ply
format ascii 1.0
element vertex 384
property double x
property double y
property double z
end_header
0.942825996585 -0.437999997587 1.27634193243
0.817092966416 -0.437999955942 1.24509039634
0.724314244096 -0.437999976909 1.22202982886
0.653035038851 -0.4380000035 1.2043130669
0.588814517347 -0.43000003334 1.18519728795
0.550706499186 -0.438000005081 1.17887884101
1.46048549 -1.95000005433 2.00101751726
1.23188045071 -1.95000007573 1.94419669769
0.923938244233 -0.437999983093 1.20880146367
0.804271724879 -0.437999972928 1.18828750811
0.715253294678 -0.437999994954 1.17302744194
0.646445447751 -0.438000003243 1.16123199081
0.584082592191 -0.430000028375 1.14801475807
0.54999999621 -0.441883043472 1.14592510695
1.44047459508 -1.95000008617 1.7748815691
1.21661405563 -1.95000006078 1.73650604497
0.906175464841 -0.437999966696 1.14528379193
0.792104845522 -0.437999991817 1.13438366821
0.706596849774 -0.437999982557 1.12621286573
0.640117298386 -0.437999976232 1.11986034559
0.57487530057 -0.424999985675 1.11052234378
0.550000016511 -0.446696606517 1.113325415
1.42105890182 -1.94999993979 1.5554729396
1.20176686661 -1.9500000699 1.53451830551
0.889440191395 -0.438000010185 1.08543992122
0.780543455097 -0.437999998243 1.08316245676
0.698318484621 -0.437999992929 1.08144280575
0.634035406549 -0.43799998827 1.08009839095
0.570565018196 -0.42499997559 1.07665303808
0.550000019403 -0.451536646704 1.08054624244
0.567999960851 -0.54480505586 1.09611779049
0.567999948191 -0.636224893823 1.11101172269
0.873645493862 -0.437999974951 1.02896004082
0.76954343357 -0.437999981784 1.03442848319
0.690393910066 -0.437999988487 1.03858617824
0.628185613521 -0.437999983986 1.04185395608
0.567999956253 -0.426788994493 1.04402550941
0.550000016689 -0.456403398443 1.04758611293
0.567999969471 -0.551098127303 1.05500251576
0.567999958379 -0.643887123504 1.06319616584
0.858714437184 -0.437999961711 0.975568282225
0.759064924462 -0.437999981217 0.988004881568
0.682800928804 -0.437999976145 0.997522888257
0.622554930251 -0.438000009183 1.00504179484
0.566758636266 -0.430000040761 1.01188633348
0.550000019778 -0.461297099218 1.01444352559
0.567999920696 -0.557430867034 1.01362742226
0.56799994829 -0.651605713753 1.01502861831
0.600166654742 -0.314398406616 0.979999937685
0.592779014453 -0.339622186889 0.97999993308
0.584615314954 -0.367495622295 0.97999993147
0.575546507067 -0.398459366285 0.979999930593
0.562788492258 -0.430000045513 0.980689666703
0.559999995783 -0.48053896927 0.978335782359
0.559999994116 -0.549602014637 0.974372500577
0.567999962013 -0.659381385847 0.966505178831
0.560000017989 -0.296973361146 0.967332387151
0.560000019276 -0.322163737407 0.964094955012
0.560000011895 -0.351925960248 0.960269957873
0.560000031292 -0.387628909829 0.955681459752
0.560000012932 -0.431248421034 0.950075546285
0.559999985269 -0.48574591521 0.94307161219
0.560000013169 -0.555770371248 0.934072159976
0.567999923501 -0.667214604258 0.91762191429
0.464355679742 -1.31850794964 2.77999993963
0.295316607058 -1.22620395731 2.77999997186
0.127441018261 -1.13453532435 2.78000006534
-0.0392830137214 -1.04349531904 2.77999986182
-0.204867352079 -0.953077784856 2.77999988725
-0.369323615431 -0.863276219638 2.77999988338
-0.532663316497 -0.774084379903 2.77999992066
-0.694897773848 -0.685496056326 2.77999995196
0.414456470129 -1.54429837037 2.77999998285
0.230304133539 -1.44278875567 2.77999991734
0.047533615788 -1.34204094807 2.78000000015
-0.133870540427 -1.24204614452 2.77999985893
-0.31392367375 -1.14279622033 2.77999992897
-0.492640762295 -1.04428270085 2.77999992265
-0.670036546915 -0.946497389987 2.77999974696
-0.846125841803 -0.849432438192 2.77999981885
0.354583231608 -1.81522018113 2.77999971692
0.152350585471 -1.70248585436 2.77999979178
-0.0482141856033 -1.59068133049 2.77999991736
-0.247131643096 -1.47979513105 2.78000007608
-0.444421922023 -1.36981582871 2.78000005116
-0.640104819039 -1.26073234631 2.77999979823
-0.83420002223 -1.1525340089 2.7799996377
-1.02672704486 -1.04521023323 2.77999988387
0.278943749037 -1.95000000491 2.611201532
0.0646338039318 -1.95000020123 2.71607781282
-0.16503082853 -1.89403390374 2.78000001681
-0.385201618576 -1.76962094451 2.7800000208
-0.603375062581 -1.64633662779 2.78000001838
-0.819578077484 -1.52416549252 2.77999979221
-1.03383748312 -1.4030928935 2.77999978398
-1.24617938549 -1.28310398637 2.77999991355
0.206886331626 -1.9499999082 2.34593962452
0.00406050731284 -1.95000003865 2.42755920809
-0.224055709 -1.94999997292 2.51935580484
-0.482507142709 -1.95000016219 2.62335982769
-0.777775756158 -1.95000035445 2.74217951787
-1.04275166518 -1.8517424921 2.78000017055
-1.28183980785 -1.71435305208 2.77999992342
-1.51853029358 -1.57834161113 2.77999982667
0.144163035511 -1.95000020943 2.11503933452
-0.0482372551421 -1.94999999744 2.17845820635
-0.262894437061 -1.95000001356 2.24921352359
-0.503907483688 -1.94999975004 2.32865610489
-0.776448378418 -1.95000020437 2.41849129974
-1.08713579471 -1.95000016911 2.5209000775
-1.44458152649 -1.95000011508 2.6387213224
-1.86020013906 -1.95000001042 2.77571748596
0.0890705450074 -1.95000005521 1.91222962597
-0.0938469627463 -1.95000006379 1.9612134205
-0.296498329562 -1.94999991156 2.01548170739
-0.5222591966 -1.94999994915 2.0759386109
-0.775321391577 -1.94999981284 2.14370650633
-1.06095626239 -1.94999996626 2.22019722262
-1.38588500913 -1.95000009469 2.30721050173
-1.75881481576 -1.95000018723 2.40707805043
0.0402961425453 -1.95000018268 1.7326786486
-0.133974449294 -1.950000143 1.77008117431
-0.325859021092 -1.95000003953 1.81126404968
-0.538170188238 -1.95000000085 1.85683097168
-0.774352895396 -1.94999979083 1.90752122506
-1.03867336998 -1.94999995362 1.96425062815
-1.33647805891 -1.94999997815 2.02816647836
-1.6745602013 -1.95000015925 2.10072686443
1.40382013434 -1.94999985242 2.06635969766
1.17702448654 -1.94999983085 2.0649448519
0.958189586526 -1.94999985738 2.06357969606
0.746903476768 -1.94999982859 2.06226160023
0.542782213426 -1.949999839 2.06098822403
0.345467410329 -1.94999977495 2.05975726581
0.154624222897 -1.94999973201 2.05856669211
-0.0300606357481 -1.94999987108 2.05741464183
1.36882438123 -1.94999988503 1.83875925744
1.14744427615 -1.9499998155 1.8413540872
0.933673111395 -1.9499998773 1.84385979094
0.727125144209 -1.9499998868 1.8462808053
0.527440370564 -1.94999983559 1.8486213461
0.334282327535 -1.94999988384 1.85088543107
0.147336162263 -1.94999974605 1.85307661891
-0.0336930838072 -1.94999997262 1.85519862097
1.33530562303 -1.949999912 1.62076470333
1.11909115063 -1.94999985616 1.62703842816
0.910156525418 -1.94999991957 1.63310096021
0.708140084761 -1.9499998927 1.63896272074
0.512703857915 -1.94999989793 1.64463355898
0.323531484053 -1.94999989659 1.65012264108
0.14032658018 -1.94999982127 1.65543854355
-0.0371888402938 -1.94999981596 1.6605893826
1.30317229398 -1.9499999451 1.41178048168
1.09189026775 -1.94999986681 1.42143243415
0.88757987151 -1.94999995512 1.43076594215
0.689901541863 -1.94999997995 1.43979646314
0.49853753071 -1.94999992992 1.44853851008
0.313190077842 -1.95000005443 1.45700574485
0.133579816102 -1.9499999286 1.46521082864
-0.0405555303521 -1.9499997105 1.47316578058
0.567999983105 -0.684500634413 1.08750073029
1.0657727665 -1.94999980072 1.22401574899
0.865887903553 -1.94999998981 1.23635959744
0.672366306062 -1.95000002264 1.2483104639
0.4849089329 -1.95000000556 1.25988682959
0.303235152714 -1.95000012579 1.27110604956
0.127081375956 -1.94999990027 1.28198433786
-0.0438002256357 -1.94999992834 1.29253707824
0.568000006761 -0.699899780966 1.03326583
1.0406752369 -1.94999977962 1.03430867812
0.845029575706 -1.94999988244 1.04942484278
0.655494449545 -1.94999994052 1.06406888811
0.471787986029 -1.94999981644 1.07826258829
0.293645441829 -1.94999994345 1.09202641117
0.120817778906 -1.94999995574 1.10537958717
-0.0469293448374 -1.94999993967 1.11834022487
0.567999964248 -0.715632357744 0.977856174141
1.01653902111 -1.94999967497 0.851868252021
0.824957778281 -1.9499997675 0.869539097572
0.639249048698 -1.94999984341 0.886668282093
0.45914690204 -1.94999994311 0.903280331388
0.284401210588 -1.9500000658 0.91939831651
0.114776544691 -1.94999984064 0.93504397817
-0.049948989047 -1.94999994457 0.950237736713
0.567999972946 -0.731709540408 0.921233165966
0.993310074975 -1.9499998648 0.676284746749
0.805628905304 -1.94999984653 0.696310994066
0.623595876196 -1.9499998764 0.715734556931
0.446959789257 -1.94999996685 0.734582237063
0.275484119678 -1.95000004863 0.752879283838
0.10894600909 -1.94999987122 0.770649518073
-0.0528648003816 -1.94999992232 0.787915295132
1.32681996914 0.437999986399 1.35677587877
1.34800005466 0.339212007975 1.36437033901
1.34800004126 0.231981073798 1.36432021133
1.34799997415 0.128360588441 1.36427175191
1.34799991329 0.0281712497825 1.36422489855
1.3479998539 -0.0687545893325 1.36417957119
1.34799999609 -0.162573842644 1.36413576865
1.34799990647 -0.253433494461 1.36409326588
1.33738364736 0.437999991468 1.25699400564
1.34800001319 0.333180246673 1.26141662083
1.34800008834 0.226088570266 1.26312884309
1.34799991958 0.122601402702 1.26478337264
1.34799987515 0.022539891167 1.2663831643
1.34799998135 -0.0742633249063 1.26793090066
1.34800004512 -0.167964874294 1.26942903598
1.34799996346 -0.258711447254 1.27087988894
1.34799996766 0.437895239119 1.15493798484
1.34799997796 0.327152604915 1.15853317091
1.34800003841 0.220199986186 1.16200532455
1.34799995194 0.116846035035 1.16536062689
1.34799993558 0.0169121968026 1.16860490856
1.34799997761 -0.0797685493175 1.17174358995
1.34799996997 -0.173352511574 1.17478172858
1.34799996532 -0.263986129533 1.17772408674
1.34799996159 0.43172659069 1.05030495313
1.34799994921 0.321129078472 1.05571991531
1.34800006367 0.214315375763 1.06094962535
1.34800001317 0.111094467462 1.06600341969
1.34799991688 0.0112881415838 1.07089003023
1.34799996335 -0.0852702625798 1.07561762708
1.34799995459 -0.178736772229 1.08019383874
1.34799997445 -0.26925755506 1.08462582628
1.34799995051 0.425562220827 0.945744542229
1.34799992717 0.315109663112 0.952976780088
1.34799999225 0.208434678447 0.959961664941
1.34799998676 0.105346671079 0.966711684304
1.34799993786 0.0056677359012 0.97323848578
1.34799999909 -0.0907684676971 0.979552953671
1.34799993789 -0.184117654574 0.985665295095
1.34799999101 -0.274525727007 0.991585052085
1.00581063376 0.232786423461 0.908104475878
1.13942391713 0.219813543054 0.889042940977
1.34799993909 0.202557928258 0.859041386098
1.1354507374 0.0559744698209 0.903078838436
1.34799999875 5.09755237873e-05 0.875650201282
1.3480000247 -0.0962631687172 0.883549504854
1.13284000703 -0.167509114883 0.921801325125
1.14827108242 -0.240202173084 0.925439016092
1.00596931897 0.228956256661 0.841637989853
1.15004795762 0.219615405477 0.80606615126
1.34799996183 0.19668513868 0.758188698585
1.14487935785 0.0534095406826 0.823758939383
1.34800015916 -0.0055621382315 0.778125087198
1.14172711639 -0.0999236647732 0.839672102202
0.592934281077 -0.113397789743 0.979999972256
0.600444751814 -0.132695593938 0.979999973641
1.00612797033 0.225126710402 0.77518234922
1.162719151 0.220134831761 0.720000028437
1.18785548651 0.142410309597 0.720000047688
0.894203376526 0.000517605756613 0.84089973224
1.24056325812 -0.0205677061274 0.72000001348
1.13877836008 -0.104164179697 0.765868837016
0.560000087671 -0.110714190351 0.972707686879
0.560000077028 -0.125304498812 0.974387819614
1.3480000313 -0.198252434792 1.32571390673
1.34800000779 -0.285289255965 1.34613163905
1.34800004668 -0.379517447196 1.3682363955
1.21607794319 -0.438000002359 1.34078012652
0.793999990166 -0.343074668365 1.18677283447
0.871617823365 -0.438000007748 1.23326720568
0.781040507617 -0.438000019543 1.20499620889
0.715184374087 -0.437999993451 1.18444118073
1.34800002025 -0.206410459652 1.23615781644
1.34800003349 -0.293979747886 1.25306289429
1.34800013388 -0.388802424496 1.27136824298
1.19117201066 -0.437999970669 1.24702185552
0.989454688563 -0.438000016654 1.20349079576
0.862095036469 -0.438000009842 1.17600628444
0.774376778896 -0.43800000081 1.1570764781
0.710284497757 -0.438000022924 1.1432452186
1.34800006101 -0.214606080116 1.14618904712
1.34800003188 -0.30271187991 1.15954816957
1.34800010168 -0.398133713839 1.17401660453
1.16764738641 -0.437999998815 1.15846292398
0.975487318449 -0.43800001178 1.13545047245
0.85290908754 -0.437999998957 1.12077090743
0.76791263777 -0.437999982194 1.11059201149
0.705511824583 -0.438000009316 1.10311910083
1.34800002177 -0.222839550715 1.05580472062
1.34800004844 -0.311485958142 1.06558426172
1.34800003994 -0.407511682146 1.07617789392
1.14539203571 -0.438000001366 1.07468244313
0.96211050086 -0.438000003866 1.07028698503
0.844042449662 -0.437999996948 1.06745547587
0.761639279339 -0.437999986433 1.0654792816
0.700861520604 -0.438000005854 1.06402171133
1.34800015051 -0.23111114811 0.965001957908
1.34800018822 -0.320302302798 0.971167914704
1.3480000951 -0.416936718297 0.977848448078
0.81001949545 -0.320000010125 1.00962493945
0.949287553771 -0.437999991178 1.00782165848
0.835478763082 -0.438000006648 1.01596159082
0.755548350963 -0.437999989846 1.02167844209
0.696328916133 -0.43799999052 1.02591398604
1.12176218657 -0.222890188129 0.91104123649
1.34800006955 -0.329161158698 0.876295877301
0.780189665537 -0.271299139872 0.969359859396
1.10429942732 -0.437999990813 0.919989080149
0.936984762429 -0.437999967464 0.947890317029
0.827202693731 -0.437999983562 0.966197472912
0.749631995227 -0.437999981482 0.97913309022
0.691909618968 -0.437999983233 0.988758819921
0.595026932487 -0.186023698193 0.979999850288
0.594170239605 -0.203406797488 0.979999853998
0.593250782046 -0.222063491265 0.979999857457
0.592261395019 -0.242139067938 0.979999861882
0.591193823369 -0.263801808378 0.979999857298
0.590038366331 -0.287247660807 0.979999855218
0.58878371747 -0.312706237724 0.979999853185
0.58741655875 -0.340448364572 0.979999843646
0.560000062629 -0.184465966775 0.974773422295
0.560000065941 -0.19870493533 0.974008201896
0.560000051514 -0.21414119506 0.973178643958
0.560000058852 -0.230932397209 0.972276262035
0.560000060857 -0.24926512078 0.971291038807
0.56000005157 -0.269361852959 0.970211019668
0.560000054227 -0.291490082621 0.969021821165
0.560000049577 -0.315974225417 0.967706015674
-0.580796699269 -1.95000037719 1.53306659632
-0.789230299892 -1.95000056832 1.57389813074
-1.03309812042 -1.95000012042 1.6216709923
-1.32227633255 -1.95000014084 1.67832011207
-1.67068553658 -1.95000001959 1.74657237152
-1.95000025228 -1.83615250295 1.77870747434
-1.95000033969 -1.52261910742 1.7165177856
-1.95000001408 -1.2571843226 1.66386843013
-0.576202826344 -1.95000030813 1.34885676648
-0.785618377187 -1.95000033487 1.37542697771
-1.03088469634 -1.95000025793 1.40654584641
-1.32206986556 -1.95000022151 1.44349080807
-1.673400951 -1.95000006688 1.48806694301
-1.95000031901 -1.83110457682 1.50808371887
-1.9500001182 -1.51616245362 1.46814472435
-1.95000039499 -1.24979584297 1.43436582984
-0.571553726858 -1.95000030058 1.16243128682
-0.781959656498 -1.95000026204 1.17437923926
-1.0286399802 -1.95000028561 1.18838704582
-1.32186028111 -1.95000038243 1.20503764086
-1.67616256346 -1.9500000489 1.22515676853
-1.950000361 -1.82599190661 1.23399001855
-1.95000033079 -1.50963024183 1.21685480176
-1.95000045111 -1.24232715417 1.20237677156
-0.566848358655 -1.95000026782 0.973749923475
-0.778253108902 -1.95000015728 0.970704361858
-1.02636322444 -1.95000008555 0.967130010361
-1.32164724388 -1.9500003236 0.962876050585
-1.67897182056 -1.95000020325 0.957728321926
-1.95000045979 -1.82081330149 0.956359212664
-1.95000004819 -1.50302055451 0.962596201874
-1.95000019299 -1.23477695682 0.967860734141
-0.562085683557 -1.95000018502 0.782771491809
-0.774497883548 -1.95000018432 0.764350499878
-1.02405400559 -1.95000002705 0.742708295864
-1.32143091684 -1.95000032049 0.716918893949
-1.681829792 -1.95000037574 0.685664070049
-1.95000041641 -1.81556732507 0.675122398256
-1.95000018156 -1.49633257661 0.705316049378
-1.9500002665 -1.22714423211 0.730776219878
-0.557264765324 -1.95000031468 0.589453739536
-0.770692879351 -1.95000010789 0.555264462669
-1.02171165935 -1.95000016698 0.515053445378
-1.32121116461 -1.95000030841 0.467076227001
-1.68473752097 -1.95000034827 0.408842485914
-1.95000013736 -1.81025258883 0.390208943482
-1.95000031166 -1.48956464123 0.444960123697
-1.95000035619 -1.21942745815 0.491080768267
-0.552384311165 -1.95000017218 0.39375352163
-0.766837224637 -1.95000014577 0.343391579908
-1.01933528673 -1.95000025676 0.28409511225
-1.32098801902 -1.95000041784 0.213255189281
-1.68769653064 -1.95000030864 0.127137686915
-1.9500001944 -1.80486817058 0.101546126041
-1.95000017107 -1.48271514447 0.181473041659
-1.95000010691 -1.21162506818 0.248731131026
-0.547443478962 -1.95000035591 0.195626333499
-0.76292979626 -1.95000011534 0.128675811609
-1.01692416265 -1.950000325 0.0497608701597
-1.255739604 -1.87520415602 -9.46837137583e-08
-1.43087304443 -1.70866421529 -2.40441289323e-07
-1.60627693489 -1.54186655811 -2.10991859095e-07
-1.78195221876 -1.3748109168 -2.11979057418e-07
-1.95000001559 -1.20373587514 0.00368285630943
