ply
format ascii 1.0
element vertex 384
property double x
property double y
property double z
end_header
1.07352634939 -0.437999958745 1.26518161302
0.950883837121 -0.437999954099 1.23686262485
0.859895015878 -0.437999973939 1.21585269779
0.789705913836 -0.437999965816 1.19964555578
0.733916027532 -0.437999971087 1.18676329541
0.688506595022 -0.437999978621 1.17627795297
0.650827063676 -0.437999982058 1.16757749543
0.619058500032 -0.437999990659 1.16024192238
1.05467951308 -0.437999991472 1.19924817097
0.937855974935 -0.43799998209 1.18116692441
0.850518922889 -0.437999969871 1.16764941769
0.782755682286 -0.437999958294 1.15716142781
0.728649080893 -0.437999967893 1.14878713693
0.684448610158 -0.437999988752 1.1419460608
0.647661884266 -0.437999958469 1.13625242346
0.616568020106 -0.437999973896 1.13143990726
1.03691319957 -0.43799997644 1.13709514513
0.925469820044 -0.437999982659 1.12821478552
0.841547659335 -0.437999959215 1.12152744609
0.776072593064 -0.437999976336 1.11631007218
0.72356450174 -0.437999954874 1.11212596204
0.68051843988 -0.437999946423 1.10869583639
0.644588204639 -0.437999964362 1.10583274131
0.614144021521 -0.437999947042 1.10340679376
0.798506177169 -0.333999949865 1.06052708559
0.913679165794 -0.437999996476 1.07780838157
0.832955593681 -0.43799996661 1.07735483987
0.769641478755 -0.437999968538 1.07699911646
0.718653014324 -0.437999970894 1.07671264349
0.676710222878 -0.437999967719 1.07647699181
0.641602091569 -0.437999961428 1.07627973945
0.611783892569 -0.437999942885 1.07611220605
0.790000059602 -0.334307599449 1.02852882298
0.902442047526 -0.438000006315 1.02976843125
0.824719149027 -0.437999966752 1.03501056188
0.763448373578 -0.437999955364 1.03914305753
0.713905896574 -0.437999979471 1.04248452405
0.673018314042 -0.437999973238 1.04524224602
0.638699864115 -0.437999964709 1.0475569031
0.609485135766 -0.437999947964 1.04952733154
0.790000071358 -0.338635444256 0.997007685464
0.891720361305 -0.438000001429 0.983932112315
0.816816721225 -0.437999980464 0.994383400346
0.75748033886 -0.437999969083 1.00266259247
0.709315009482 -0.437999953665 1.00938309001
0.66943747348 -0.437999975247 1.01494719399
0.635878042051 -0.43799998392 1.01962973411
0.607245391664 -0.437999970335 1.0236248413
0.974986833805 -0.437999983746 0.920453761774
0.881479463315 -0.437999998231 0.940151202452
0.809228358356 -0.437999977699 0.955370987044
0.751725270718 -0.43799995697 0.967484083824
0.704872825349 -0.437999965456 0.977353608027
0.665962771009 -0.43799998497 0.985550057199
0.633133296001 -0.43799995802 0.992465627786
0.605062396529 -0.437999963971 0.998378796609
0.657187780828 -0.277177571634 0.979999947143
0.649840479934 -0.29263208953 0.979999949684
0.641969596232 -0.309187952567 0.979999948876
0.633517072435 -0.326967222865 0.979999952376
0.6244159909 -0.346110736956 0.979999949514
0.614588713083 -0.3667817726 0.979999944231
0.603944687503 -0.389170719881 0.979999947029
0.592377712567 -0.413501071514 0.979999943886
0.622206931682 -1.32666435036 2.77999977961
0.453295860079 -1.23157658928 2.77999995879
0.286077866436 -1.13744181165 2.77999992679
0.120527617195 -1.04424600535 2.78000009302
-0.0433796413869 -0.951974927516 2.77999995199
-0.205668284724 -0.860615075594 2.77999986412
-0.366362289115 -0.770153091902 2.78000005881
-0.525484746186 -0.680575550151 2.77999983495
0.570981829757 -1.5525343401 2.77999976088
0.387095962503 -1.44761774874 2.77999994068
0.205218844224 -1.34384714147 2.77999996913
0.0253177310579 -1.24120402964 2.78000010154
-0.152639345256 -1.1396699533 2.78000004713
-0.328683789871 -1.03922721251 2.7800000941
-0.502846112059 -0.93985812325 2.7799998771
-0.675156651994 -0.841545859007 2.78000003505
0.50952286378 -1.82352936676 2.77999992043
0.307750336874 -1.70655951235 2.77999986315
0.10839949657 -1.59099367814 2.77999995663
-0.0885729981226 -1.47680657485 2.78000002584
-0.283209430695 -1.36397364788 2.78000002553
-0.475551136021 -1.2524710194 2.78000004584
-0.665638490828 -1.14227532114 2.78000012793
-0.853510773531 -1.03336359667 2.78000007301
0.430441798959 -1.95000000384 2.60511514527
0.218122353868 -1.949999794 2.71357050966
-0.00962308905194 -1.89226477596 2.77999988758
-0.22724064114 -1.76366444603 2.78000005259
-0.441998350661 -1.63675390491 2.78000002083
-0.653952285392 -1.51150027818 2.7800000159
-0.863156865646 -1.38787118559 2.77999984702
-1.06966553858 -1.26583552845 2.77999993409
0.354738407144 -1.95000007075 2.3424228392
0.15337429308 -1.95000022777 2.42744394908
-0.0733281278217 -1.95000010408 2.52316333437
-0.330472677502 -1.95000021326 2.63173631563
-0.624632427063 -1.95000039208 2.7559380951
-0.875264555667 -1.83283426633 2.78000000662
-1.10783991475 -1.69211190806 2.77999980079
-1.33706289965 -1.55341825939 2.77999981955
0.288760166704 -1.95000007123 2.11347696026
0.0974030424757 -1.95000020561 2.18010223644
-0.116305838864 -1.95000001529 2.25450958821
-0.356525723008 -1.94999995802 2.33814740435
-0.62851608394 -1.95000020773 2.4328469838
-0.939025642419 -1.95000021418 2.54095773513
-1.29686066214 -1.95000014509 2.66554584685
-1.67637485826 -1.91834427951 2.77999974064
0.230746192039 -1.95000002696 1.91216721554
0.0485372393455 -1.95000029407 1.96416024597
-0.153530346764 -1.95000018405 2.02181972645
-0.378890360936 -1.95000028769 2.08612574274
-0.631816149051 -1.94999986585 2.15829735886
-0.91769574036 -1.95000023403 2.2398726162
-1.24341756267 -1.95000039221 2.3328166716
-1.61793435971 -1.95000024175 2.4396841268
0.179336495497 -1.95000009331 1.73377454158
0.0055046693462 -1.95000012953 1.77399546266
-0.186084344945 -1.9500002909 1.81832505379
-0.398297765317 -1.95000024088 1.86742661286
-0.634655422191 -1.95000021624 1.92211463243
-0.899526114906 -1.94999993685 1.98339986281
-1.19840103544 -1.95000001868 2.05255305535
-1.53827749385 -1.95000031731 2.13119318666
0.58272724811 -0.429999980705 1.1782489397
0.55613142928 -0.437999986029 1.18315744373
1.09930971689 -1.94999996475 2.04787268387
0.889115404623 -1.94999999308 2.05024988943
0.68578888594 -1.94999991987 2.05254936531
0.488999017021 -1.94999993294 2.05477496475
0.298435548792 -1.94999994225 2.05693014463
0.11380756563 -1.95000003207 2.05901824362
0.577617730111 -0.429999985018 1.14755837177
0.551595737503 -0.437999970285 1.15196750964
1.07202086528 -1.95000004362 1.82969926461
0.866484722033 -1.95000013044 1.83557964767
0.667531677101 -1.950000086 1.84127162962
0.474850484877 -1.95000002676 1.84678416849
0.288149168524 -1.95000008182 1.8521256768
0.107153607777 -1.95000003205 1.85730389668
0.56977350658 -0.424999987344 1.11654611012
0.549999973925 -0.443899432585 1.12395116726
1.04582205373 -1.95000002405 1.62024091229
0.844743574561 -1.95000009559 1.62934767839
0.64998082618 -1.94999999463 1.63816834886
0.461240910254 -1.95000013085 1.64671633002
0.278248663221 -1.95000016228 1.65500396611
0.100745482141 -1.95000020895 1.66304301045
0.568000006621 -0.429967119779 1.08989493003
0.549999977484 -0.453401147695 1.0965016649
1.02064929821 -1.95000005132 1.41898571966
0.823840581762 -1.95000013157 1.43106613714
0.633096159861 -1.94999997567 1.44277426416
0.448140072027 -1.9500001592 1.4541271747
0.268712723951 -1.95000015137 1.46514067841
0.0945698937028 -1.95000010956 1.47582980293
0.563504654414 -0.429999985413 1.06278753447
0.567999994542 -0.504703228837 1.07207325197
0.567999985409 -0.615285661126 1.08633063438
0.803728137596 -1.94999998407 1.24028392436
0.616840452003 -1.95000001365 1.25465860113
0.435519969595 -1.95000011084 1.26860507902
0.259521567996 -1.95000017615 1.28214219908
0.0886143555018 -1.95000005898 1.29528770116
0.559999974352 -0.431565921093 1.03669281149
0.567999980197 -0.516421046465 1.03822152279
0.567999990464 -0.633555839628 1.0413468894
0.784362287318 -1.94999994669 1.05658353854
0.601179183394 -1.94999992561 1.07342209444
0.423354619691 -1.95000012025 1.08976808838
0.250656835083 -1.95000016212 1.10564281449
0.082867310966 -1.95000005575 1.12106635953
0.559113705887 -0.438000007207 1.0106459363
0.56799999535 -0.528555219091 1.00316718753
0.567999984409 -0.652700128099 0.994210872175
0.76570224068 -1.95000014945 0.879577805648
0.586080370312 -1.95000011153 0.898694180688
0.411619877561 -1.9500000826 0.917261252168
0.242101437394 -1.95000013579 0.935302356621
0.077318012856 -1.95000002879 0.952839545568
0.554962515865 -0.437999978436 0.985711715839
0.560000007491 -0.520557760886 0.971258626138
0.567999985281 -0.672782859165 0.944764330815
0.747710006692 -1.95000007071 0.708907338608
0.571514204744 -1.950000088 0.730130443499
0.400293277594 -1.95000007139 0.750754321272
0.23383945785 -1.95000012966 0.770803979649
0.0719564072451 -1.95000008103 0.790303098423
1.34799999054 0.360454661616 1.30325760187
1.34799985443 0.266824587826 1.30311870889
1.34799993637 0.176287171366 1.30298447722
1.34800002826 0.0886915628203 1.30285461145
1.34800003725 0.00389665822458 1.30272887034
1.34800005376 -0.0782297242592 1.30260708902
1.34800004481 -0.157811601717 1.30248907224
1.34800006946 -0.234965427001 1.30237466765
1.34800003111 0.356229013638 1.21498353789
1.34799992147 0.262552004571 1.2163286634
1.34799996361 0.171973009007 1.21762934001
1.34800000177 0.0843407657344 1.21888770185
1.34799998966 -0.000486225674861 1.22010576952
1.34799999814 -0.0826405287095 1.22128546382
1.34800002712 -0.162246504975 1.22242857049
1.34800003842 -0.239420911854 1.22353675681
1.34800000191 0.351992480208 1.12648287966
1.34800005014 0.258268665618 1.12931959391
1.34800006463 0.167648163734 1.13206237645
1.34800005338 0.0799793641557 1.13471581716
1.34800001684 -0.00487962934014 1.13728421083
1.34800000657 -0.0870617605558 1.13977158851
1.34799999412 -0.166691729377 1.14218172044
1.34800002866 -0.243886612423 1.1445181571
1.34799994866 0.347745045822 1.03775477749
1.3479999479 0.253974402104 1.04209064445
1.34800005751 0.16331253605 1.0462827688
1.34799999876 0.0756072788627 1.05033817566
1.34799999141 -0.00928360544178 1.05426345058
1.34800001053 -0.0914934580971 1.05806475814
1.34799999963 -0.171147315933 1.06174787771
1.34800003292 -0.248362562808 1.06531823993
1.34800002784 0.343486754243 0.948798346282
1.34799994476 0.24966931817 0.954641026626
1.34800004833 0.158966121074 0.96028974955
1.34799994629 0.0712244948008 0.965754047448
1.34799996456 -0.0136981861523 0.971042782122
1.34799994184 -0.0959356582956 0.976164292435
1.34799997469 -0.175613294511 0.98112638017
1.15560636666 -0.214706075977 0.995659797004
1.12715442999 0.219853297544 0.905583340854
1.34800003064 0.245353366677 0.866969871498
1.13705395052 0.0891850594724 0.914183983923
1.3479999455 0.0668309825439 0.880962663924
1.34799998718 -0.0181234049816 0.887621474151
1.34799991318 -0.100388398225 0.894069505915
1.15950216564 -0.159831918356 0.92998043879
1.12800864793 -0.212497021595 0.939329804608
1.13265218177 0.219694545822 0.839048903279
1.34800008284 0.241026453399 0.779076344879
1.13315684836 0.0847792318378 0.851669532564
1.34799992915 0.0624266886042 0.795963265321
1.34799999153 -0.0225593073217 0.803998803555
1.14432117187 -0.102083168023 0.8663330531
1.13886871537 -0.1609305235 0.873364554597
1.11774140975 -0.21361596626 0.884031938228
1.13826947124 0.219532238329 0.771065633295
1.27862365721 0.20806671787 0.719999986613
1.12686628168 0.0796917553491 0.790810462593
1.32452922409 0.0535611311229 0.71999999902
1.34799996923 -0.0270059322893 0.720174049289
1.14225571367 -0.105380505652 0.805575912741
0.978444744767 -0.145215310973 0.87107173039
0.991665795791 -0.189713572523 0.871071713875
1.34799993088 -0.19976875878 1.27011849625
1.34799998354 -0.27365854524 1.2872697522
1.34799993207 -0.353685593066 1.30584555383
1.34016270603 -0.437999905726 1.3231052759
1.1346782557 -0.437999918779 1.26250651457
1.00528962783 -0.437999946714 1.22434893318
0.916330664209 -0.437999977708 1.19811433592
0.851412430179 -0.437999984164 1.17896950792
1.34799991729 -0.206511114384 1.19438528454
1.34799992942 -0.280957087484 1.20857149881
1.34799991645 -0.361611487506 1.22394076817
1.31563727679 -0.437999931658 1.23203716813
1.11992853909 -0.437999925505 1.19297140036
0.995449131944 -0.437999961018 1.16812385294
0.909299482818 -0.437999976345 1.15092737233
0.846137807587 -0.437999952434 1.13831955429
1.34799988984 -0.213303896224 1.11808565273
1.34799990735 -0.288312414014 1.12926101085
1.34799994414 -0.369601635118 1.14137211935
1.29240308923 -0.437999940068 1.14576387367
1.10578615122 -0.437999904961 1.12629969245
0.985941264902 -0.437999912789 1.11379985312
0.9024699087 -0.437999932304 1.10509378045
0.840994573595 -0.437999955667 1.09868189681
1.14779512803 -0.207969313221 1.03810889947
1.3479998827 -0.295725185511 1.04933110531
1.34799987584 -0.377656785428 1.0581314844
1.27036082551 -0.437999947165 1.06391644508
1.09221453904 -0.437999957506 1.06231812038
0.976749655954 -0.43799993861 1.06128216915
0.895833497558 -0.437999927529 1.0605561894
0.835977835301 -0.437999951796 1.06001916791
1.15200249397 -0.213422717199 0.979793771569
1.34799987767 -0.303196081189 0.96877449628
1.34799986041 -0.385777772599 0.974210646644
1.24942103243 -0.437999942477 0.986162828227
1.07917959945 -0.437999962315 1.0008670513
0.789999970304 -0.324111954069 1.01834732644
0.889382144994 -0.437999942195 1.01726037921
0.831082977762 -0.437999936232 1.02229583857
1.12195608942 -0.216309256148 0.926375308312
1.3479998493 -0.310725780356 0.887583785702
1.34799986521 -0.39396539928 0.889601223209
1.2295031094 -0.437999963478 0.912203366446
1.06665016703 -0.437999947661 0.941799294123
0.790000000694 -0.327331879758 0.989393843758
0.88310817743 -0.437999944103 0.975155126858
0.826305635805 -0.437999931663 0.985478083643
1.12089703625 -0.221229405059 0.870369924489
1.13979729192 -0.279972621683 0.864112556616
1.12501519955 -0.33765058998 0.867207464786
0.784730795992 -0.265824877875 0.962751358442
0.786378457951 -0.295893546234 0.961772728998
0.950921343799 -0.437999942062 0.913708721304
0.877004392274 -0.437999945229 0.934191992689
0.82164164383 -0.437999953831 0.949533672366
0.969305476618 -0.211736426306 0.871071641535
0.963031694376 -0.251369487063 0.871071617823
0.956431756943 -0.293062536682 0.871071617381
0.781702891748 -0.267223381668 0.937682904925
1.04299478819 -0.437999970436 0.830279786269
0.94284876791 -0.43799996281 0.867584823706
0.66790851915 -0.268446443766 0.979999920509
0.665218532329 -0.285439588389 0.97999992089
-0.446153292093 -1.95000020656 1.54433928811
-0.654941434109 -1.95000010521 1.58857225697
-0.899524713766 -1.95000004232 1.64038864251
-1.18997140869 -1.95000001737 1.70192146812
-1.54051638061 -1.95000002662 1.77618647173
-1.94999997446 -1.93325257739 1.85967610266
-1.9499999424 -1.59984526038 1.7947391122
-1.95000005723 -1.31739021899 1.73972601152
-0.444447922171 -1.95000008107 1.3598375211
-0.654514549547 -1.95000004388 1.38970442002
-0.900860525663 -1.95000010858 1.42472946548
-1.19377232494 -1.95000005627 1.46637514331
-1.54783158679 -1.95000014905 1.5167146777
-1.94999993066 -1.92389749893 1.57067476327
-1.94999994002 -1.58986557182 1.52947525206
-1.94999979748 -1.30707939504 1.49459637235
-0.442721108181 -1.95000014988 1.17300612859
-0.65408190943 -1.95000009684 1.18812458131
-0.902216146923 -1.95000018653 1.2058734134
-1.19763476894 -1.94999988573 1.22700443676
-1.55527779953 -1.95000002048 1.25258634046
-1.95000007183 -1.91445636717 1.2790107262
-1.95000025915 -1.57980180244 1.26197131194
-1.94999990611 -1.29668838606 1.24755615213
-0.440972286491 -1.95000007655 0.983800652139
-0.6536432638 -1.95000003719 0.983776848931
-0.903591925139 -1.95000014152 0.983748870025
-1.20156054922 -1.94999984066 0.983715525409
-1.56285886344 -1.94999990142 0.983675084205
-1.95000002001 -1.90492769951 0.984646957492
-1.95000007238 -1.56965237483 0.992198694546
-1.950000022 -1.28621606918 0.998582810219
-0.439201169654 -1.95000015499 0.792175558585
-0.653198675804 -1.95000019024 0.776603814094
-0.904988411436 -1.95000010593 0.758282092091
-1.20555119924 -1.94999988411 0.736411363844
-1.57057845145 -1.94999977043 0.709849804331
-1.9500001487 -1.89531055803 0.687545818923
-1.94999980883 -1.5594164633 0.72012853891
-1.95000023221 -1.27566152786 0.747653554638
-0.437407165989 -1.95000003216 0.598084170254
-0.652747723316 -1.95000004002 0.566546533291
-0.906405936231 -1.9499998833 0.529397124167
-1.209608138 -1.94999979112 0.484991754139
-1.57844093364 -1.95000012042 0.430974402791
-1.95000003341 -1.88560338378 0.387668995813
-1.95000008167 -1.54909332582 0.445731242276
-1.95000015593 -1.26502360693 0.494745302894
-0.435589952849 -1.94999997362 0.401478537733
-0.652290473535 -1.94999993112 0.353544329545
-0.907845301397 -1.94999991702 0.297015530131
-1.21373329087 -1.94999984893 0.229353034049
-1.58644910743 -1.94999987051 0.146908180655
-1.95000018454 -1.87580529126 0.0849772950251
-1.95000022613 -1.53868143342 0.16897687449
-1.95000030876 -1.25430156384 0.239834469854
-0.43374910864 -1.95000005297 0.202309433502
-0.651826867998 -1.94999999548 0.137534755002
-0.909306805865 -1.94999992533 0.0610566213192
-1.17187577458 -1.89820030701 -5.92094442364e-08
-1.35478673071 -1.73200241664 -1.21283669774e-08
-1.53908587474 -1.56454336976 -2.64490973567e-08
-1.72478904321 -1.39580869015 -7.38298304714e-08
-1.91191228473 -1.22578369477 -1.21293318056e-07
