ply
format ascii 1.0
element vertex 384
property double x
property double y
property double z
end_header
0.89263704003 -0.438000008523 1.28126868155
0.767170950005 -0.43799994855 1.24935592593
0.674566389928 -0.437999963048 1.22580164313
0.59385813158 -0.429999999955 1.20209576623
0.550000068359 -0.441092562481 1.19534610011
1.67714585466 -1.94999988758 2.08135265614
1.40582101016 -1.9500000009 2.01234029317
1.17744059993 -1.9500000636 1.95425097474
0.873859671029 -0.437999961574 1.21355370892
0.754483795886 -0.437999956596 1.19242223378
0.665649257784 -0.437999940392 1.17669706899
0.587624953431 -0.429999997302 1.1603382204
0.550000035007 -0.446178635535 1.15882946668
1.65181573449 -1.95000001294 1.83270326773
1.38679578993 -1.95000000089 1.7857904187
1.16312931773 -1.95000016315 1.74619786309
0.856217122087 -0.437999949168 1.14993088647
0.742453746208 -0.437999937912 1.13843749915
0.657136282404 -0.437999935017 1.12981797201
0.575931378707 -0.425000022856 1.11848076087
0.550000036213 -0.451281147396 1.1221950883
1.62732036126 -1.94999999254 1.59224904645
1.36834541362 -1.9500000864 1.56608512434
1.14921701945 -1.94999999668 1.54394681001
0.839609518264 -0.43799996036 1.0900401258
0.731031105054 -0.437999932631 1.08717841137
0.649000600355 -0.437999949077 1.0850164051
0.570306432296 -0.425000021077 1.08079789991
0.550000006119 -0.456400107234 1.0854423648
0.567999988437 -0.542693359219 1.10015145189
0.568000031299 -0.627953346612 1.11421568549
1.13568744799 -1.94999999578 1.34725860542
0.823948296382 -0.437999949979 1.03356238971
0.720171007394 -0.437999942888 1.03844362255
0.641217640535 -0.437999957245 1.04215724772
0.568000031154 -0.427832039065 1.04468390155
0.550000018301 -0.461535675619 1.0485707403
0.568000000674 -0.549020083928 1.05561552562
0.568000033674 -0.635352850251 1.06340306799
0.56800000967 -0.750165918408 1.07375964461
0.809154885554 -0.437999960238 0.980214015482
0.709832862959 -0.437999947548 0.992051141847
0.633764988791 -0.437999988373 1.00111685657
0.565060160939 -0.429999991219 1.00917127246
0.568000021387 -0.487278861521 1.00977871706
0.567999987046 -0.55536982352 1.01091733557
0.567999981746 -0.642783043586 1.01237905666
0.568000021007 -0.759103110377 1.01432415161
0.564856414662 -0.32135560922 0.98000006706
0.560000078373 -0.349789897759 0.979344595908
0.560000089211 -0.386283981089 0.977318417508
0.559944738113 -0.429999994333 0.974901797294
0.560000086216 -0.483511870499 0.971920259495
0.560000077402 -0.550280500412 0.968213221403
0.568000000766 -0.650244336875 0.961142325721
0.56799999866 -0.768083662676 0.954599806566
0.560000102315 -0.322452804707 0.954202225166
0.560000097456 -0.353680374141 0.950250214962
0.560000094736 -0.390576088003 0.945580871018
0.560000028757 -0.434837165882 0.939979418355
0.560000069039 -0.488913839928 0.933135723291
0.560000083959 -0.556478257105 0.924585090712
0.567999968678 -0.657736710071 0.909691559401
0.567999973611 -0.777107959458 0.894584505121
0.404798931513 -1.3125608722 2.77999994537
0.236248534835 -1.22103804856 2.7800000351
0.0686395286325 -1.1300262491 2.77999987811
-0.0980359193095 -1.03952135709 2.779999697
-0.263785641208 -0.949519255808 2.77999971436
-0.428617260076 -0.860015599245 2.77999959228
-0.592538497041 -0.771006396907 2.77999966112
-0.755556798486 -0.682487463481 2.77999968885
0.354829503988 -1.53765337891 2.77999988177
0.171181204573 -1.43716232857 2.78000019696
-0.011348875636 -1.33728286815 2.78000012601
-0.192770838785 -1.23800961067 2.77999985444
-0.373094813224 -1.13933730966 2.77999977172
-0.552330741627 -1.04126043052 2.77999975401
-0.73048844869 -0.943773577819 2.77999977574
-0.907577628024 -0.846871425026 2.77999980761
0.29488452938 -1.80768190476 2.77999991018
0.0931678880162 -1.69628716357 2.78000014889
-0.107198744485 -1.58563779324 2.78000022625
-0.306228710742 -1.47572608917 2.77999978317
-0.503935627566 -1.36654558569 2.77999994497
-0.70033236335 -1.25808830881 2.77999978533
-0.895432026408 -1.15034736861 2.77999967682
-1.08924758154 -1.04331577772 2.77999980333
0.220324513711 -1.9500001499 2.61804886419
0.00502502733803 -1.95000011781 2.72224916801
-0.224147252645 -1.88866099255 2.78000022926
-0.444568905421 -1.76557598411 2.78000022759
-0.663364841359 -1.64339832321 2.77999982357
-0.880553365696 -1.52211877126 2.77999986936
-1.09615179088 -1.40172688829 2.77999969534
-1.31017787866 -1.28221333845 2.77999980632
0.14963620581 -1.9499998222 2.35160477702
-0.0539816644253 -1.94999977384 2.43245112042
-0.283074285682 -1.94999996276 2.52341236785
-0.542741307247 -1.9499999411 2.62651301851
-0.839540852363 -1.94999961112 2.74435690354
-1.10479986793 -1.85064822185 2.7800000062
-1.34570326057 -1.71426277099 2.77999971458
-1.58463689755 -1.57899289834 2.77999971812
0.0881344826251 -1.9499998393 2.11978776082
-0.104899417956 -1.94999975235 2.1823804742
-0.320332490919 -1.94999981529 2.25223637998
-0.562303586538 -1.94999992511 2.33069747496
-0.836037994553 -1.94999977485 2.41945792772
-1.14822959657 -1.9499997793 2.52068851555
-1.50759522165 -1.95000009324 2.63721582603
-1.92570046467 -1.95000008461 2.77278973861
0.034137791022 -1.94999983789 1.91625927204
-0.14928482401 -1.94999973039 1.96439192115
-0.352552161749 -1.94999961753 2.01773210471
-0.57906904399 -1.94999972805 2.0771733981
-0.833066199977 -1.94999973697 2.14382586004
-1.11986736369 -1.9499998032 2.21908658461
-1.44626606215 -1.94999970701 2.30473819189
-1.82107136531 -1.9499997966 2.40309246184
-0.0136486362828 -1.9499999329 1.73613907031
-0.18831922445 -1.94999990903 1.77268387482
-0.380690756105 -1.94999978319 1.81293205918
-0.593597677956 -1.94999992213 1.85747677627
-0.830513357383 -1.94999983111 1.90704455844
-1.095741748 -1.9499998948 1.96253601691
-1.39468048557 -1.9499998675 2.02508036769
-1.73419269945 -1.94999990287 2.0961135767
1.3489049484 -1.95000016787 2.07750004417
1.1220584989 -1.9500002092 2.07492304772
0.903132982976 -1.95000032226 2.07243607642
0.691720561736 -1.95000025462 2.07003435011
0.487441082009 -1.95000013283 2.06771362387
0.2899395669 -1.95000028541 2.06547005649
0.0988841646598 -1.94999988563 2.06329939646
-0.0860356665545 -1.95000000314 2.06119873906
1.31489865202 -1.95000013185 1.8493693268
1.0935003555 -1.95000000564 1.85081428369
0.879670227773 -1.95000029274 1.85221003664
0.673026421544 -1.95000025643 1.85355873608
0.473212783936 -1.95000015505 1.85486282641
0.279896210111 -1.95000016849 1.85612456518
0.092764867048 -1.95000009971 1.85734589623
-0.0884734162108 -1.95000007072 1.85852878311
1.28234277958 -1.9500002129 1.63096833776
1.06613962523 -1.9500001299 1.63610110425
0.85717463288 -1.95000021728 1.64106209193
0.655090177093 -1.95000016103 1.6458596812
0.45955198608 -1.9500000496 1.65050183883
0.270247065783 -1.95000022523 1.65499611521
0.0868819895283 -1.95000027192 1.65934933094
-0.0908184169067 -1.95000002203 1.66356796018
1.25114635552 -1.95000019938 1.42168753503
1.03990232353 -1.95000008276 1.43020457735
0.835587647268 -1.95000022282 1.43844229912
0.637866680723 -1.95000008576 1.44641410504
0.446425447363 -1.95000022106 1.45413278607
0.260969365379 -1.95000013441 1.46161010072
0.081222107811 -1.95000022411 1.4688572857
-0.0930759353297 -1.95000024865 1.47588475018
0.568000005377 -0.773266565727 1.09999077552
1.01472071892 -1.95000002493 1.23259264713
0.814855260058 -1.95000014848 1.24384417211
0.621314276311 -1.95000003445 1.25473962632
0.433802357576 -1.95000004105 1.26529568799
0.252042068709 -1.95000009104 1.2755279651
0.0757727815595 -1.94999996774 1.28545110078
-0.0952506851933 -1.95000023906 1.29507897374
1.19250497126 -1.95000002793 1.02829310457
0.990532460666 -1.9500002137 1.04277516178
0.794927767631 -1.95000018652 1.05680062005
0.605394493219 -1.95000001806 1.07039073439
0.421654347987 -1.9499999754 1.08356546754
0.243445691856 -1.95000000947 1.09634357832
0.0705224386637 -1.94999992028 1.1087427055
-0.0973471369621 -1.95000002486 1.12077947461
1.16491266704 -1.95000001875 0.843190482575
0.967279704125 -1.95000014628 0.860299858885
0.775759149892 -1.95000020359 0.8768800794
0.590071757826 -1.95000010747 0.892955324459
0.409955099477 -1.95000009294 0.908548297229
0.235162168702 -1.95000017893 0.923680380146
0.0654603855923 -1.94999994607 0.938371735946
-0.0993695306269 -1.95000007244 0.952641302918
1.13838374957 -1.94999995407 0.665221779346
0.94490923411 -1.94999989654 0.684748887606
0.757306841405 -1.95000010914 0.703683287429
0.575313053388 -1.95000004994 0.722051662986
0.39868017783 -1.95000020019 0.739878935626
0.227174726441 -1.95000016155 0.75718873543
0.0605766586344 -1.95000015968 0.774003234261
-0.101321640544 -1.94999993524 0.790343428352
1.2773050584 0.43799998063 1.3623033994
1.34799993098 0.362042725287 1.38838489619
1.34799983834 0.249135162239 1.38858359102
1.34799986421 0.140010365346 1.38877567129
1.34799995777 0.0344813235777 1.38896144751
1.34799993454 -0.0676268324436 1.38914115976
1.34800011147 -0.166477779059 1.38931521245
1.34800006424 -0.262224911874 1.38948371984
1.2887812389 0.437999964196 1.26263648443
1.34799987042 0.355207365788 1.27981292513
1.34799993788 0.242521110178 1.28185948528
1.34799989376 0.133606670293 1.28383751437
1.34799986325 0.0282778368225 1.28575042736
1.34799997937 -0.0736395880814 1.28760142314
1.34800004966 -0.172308725218 1.28939341328
1.34800004591 -0.267882414116 1.29112916608
1.3005251052 0.437999961416 1.16064502424
1.34800006967 0.348385032307 1.17144605195
1.34799993385 0.235919301063 1.17533347167
1.3480000202 0.127214685933 1.17909092234
1.34800000784 0.022085516929 1.18272476966
1.34800004394 -0.0796417233537 1.18624103525
1.34799995925 -0.178129532693 1.18964530848
1.34800006908 -0.273530243805 1.19294290596
1.3125460707 0.437999937639 1.05624672525
1.34800008337 0.34157548693 1.06328359436
1.34799994543 0.229329741736 1.06900503761
1.34800001494 0.120834328852 1.07453532929
1.34800009992 0.0159042971586 1.07988388534
1.34800001184 -0.0856332676645 1.08505950835
1.3479999666 -0.183940238938 1.09007046234
1.34799995085 -0.279168392137 1.0949244829
1.32485419234 0.437999965144 0.949355376021
1.34800002886 0.334778747937 0.955325026709
1.34799986258 0.222752362644 0.962873635951
1.34799999893 0.114465595181 0.970170248032
1.3480000249 0.00973413666912 0.977227299708
1.34800000757 -0.0916142470298 0.984056393665
1.34800001453 -0.189740866425 0.990668396507
1.34800006835 -0.284796954381 0.9970734977
1.00582316391 0.257787279392 0.90308004347
1.09428928154 0.219825168419 0.893430497158
1.34799991965 0.216187205177 0.856938709763
1.12946285718 0.0635369131664 0.901425313264
1.34800008372 0.00357503839327 0.874754523624
1.34800003529 -0.0975846898887 0.883231210624
1.12745967333 -0.172782326716 0.921518214705
1.34799992711 -0.290415860756 0.899389515312
1.00599408557 0.253301084579 0.831470817318
1.10581424964 0.219626285958 0.810139739336
1.34799989165 0.209634163775 0.751199731591
1.13588276189 0.0598620745081 0.818707784959
1.34799998363 -0.00257305675082 0.772465097401
1.14320306945 -0.101473125188 0.833063476123
0.560000000489 -0.115421389374 0.978804905292
0.563223649417 -0.135308872587 0.979999981514
1.0061647604 0.24882109909 0.759960794207
1.12863415831 0.223940347573 0.719999914491
1.15488825764 0.145155286896 0.719999929261
0.78942759109 -0.0113309631741 0.866157199501
1.21010478861 -0.0205418457466 0.719999921394
1.13610928748 -0.106075801983 0.755873104371
0.559999996923 -0.116592838072 0.958730431247
0.560000008112 -0.135785483815 0.960968842579
1.34800004228 -0.199982217033 1.34878602763
1.34800009193 -0.291680826186 1.37054592481
1.3480001194 -0.390996045177 1.39411321997
1.16524634116 -0.437999992168 1.34711615609
0.953770398672 -0.43800001091 1.27982596617
0.821652590088 -0.437999977302 1.23778697771
0.731280516988 -0.437999991203 1.20903120722
0.665567742466 -0.438000003998 1.18812185613
1.34800007999 -0.208743153545 1.25431366467
1.34800012703 -0.300960645329 1.27233964658
1.34800013193 -0.400852535832 1.29186575205
1.14039830263 -0.437999992685 1.25313098229
0.939298905098 -0.438000008026 1.20857558698
0.812276042681 -0.437999992 1.18043251481
0.72476572032 -0.437999988692 1.16104380731
0.660812967721 -0.438000021886 1.14687450051
1.34800011623 -0.217535178935 1.159506058
1.34800009372 -0.310274702881 1.17377091814
1.34800006736 -0.410746900118 1.18922519004
1.11695615142 -0.437999986952 1.16446349713
0.925465481771 -0.438000027922 1.14046652093
0.803238126131 -0.438000006441 1.1251493864
0.718450150243 -0.437999971667 1.11452403007
0.656184260534 -0.438000005987 1.10672107833
1.34800011822 -0.226358457101 1.06436141929
1.3480000773 -0.319623199709 1.074837754
1.34800005985 -0.420679388668 1.08618929484
1.09480394558 -0.438000009048 1.08067481607
0.912228697808 -0.43800000057 1.07529547819
0.794520796965 -0.438000005402 1.07182737194
0.712324892179 -0.438000007129 1.06940557909
0.651676705901 -0.437999988293 1.0676186588
1.34800011643 -0.235213156052 0.968877956316
1.34800010141 -0.329006331428 0.975538122835
1.34800012551 -0.430650228085 0.982755759136
0.789999990447 -0.331185232637 1.01252220247
0.899550860913 -0.437999974935 1.01287639466
0.786107300908 -0.437999993385 1.02036394551
0.706381321498 -0.437999975808 1.02562605187
0.647285636705 -0.437999995356 1.02952651149
1.12538110974 -0.227605839243 0.908421765752
1.14753076409 -0.304334038596 0.907144579049
0.779862347724 -0.284953917866 0.96579143336
1.05396528334 -0.437999969634 0.9262071463
0.887397341245 -0.437999972331 0.953038558692
0.777982058417 -0.437999992228 0.970663598834
0.700611609805 -0.43799998931 0.983126731696
0.643006562158 -0.437999994722 0.992405977103
0.560000000111 -0.187485917036 0.97917390023
0.559999992527 -0.20629780892 0.978964480459
0.559999982487 -0.226690399407 0.978737464328
0.559999985399 -0.248871662623 0.978490532646
0.559999984918 -0.273087719592 0.97822094967
0.55999997402 -0.29963201671 0.977925450433
0.559999965393 -0.328857289247 0.977600104896
0.559999984852 -0.361191333721 0.977240144047
0.559999990986 -0.189260809902 0.960034574564
0.559999992395 -0.208179434607 0.959051639111
0.559999990914 -0.228690813218 0.95798595164
0.559999971931 -0.251004918292 0.956826607946
0.559999962189 -0.275370343505 0.955560682747
0.559999954807 -0.302083580029 0.954172773975
0.55999996462 -0.331501164703 0.952644352228
0.559999969393 -0.364055642449 0.950952952012
-0.634170509506 -1.94999980839 1.53297592142
-0.843153546279 -1.95000018976 1.57275801178
-1.0877350638 -1.94999973239 1.61931646171
-1.37785883684 -1.94999979032 1.67454443917
-1.72755054918 -1.94999989044 1.74111177891
-1.9500001799 -1.79191090872 1.75183736006
-1.95000000468 -1.48658172002 1.69076736043
-1.95000001574 -1.22796446317 1.63904041426
-0.628383305944 -1.94999982838 1.34856162958
-0.838211032728 -1.95000002335 1.37402715032
-1.08402316254 -1.94999982275 1.403859825
-1.37594519595 -1.94999995732 1.4392886171
-1.72829343391 -1.94999987927 1.4820509372
-1.9500002014 -1.78862126814 1.48820334562
-1.95000016256 -1.48158916484 1.44871618963
-1.95000019492 -1.22181021704 1.41530623252
-0.622528887387 -1.94999984361 1.16200554458
-0.833206679227 -1.95000007161 1.17280485967
-1.08026084865 -1.95000011415 1.18546881035
-1.37400289974 -1.94999997793 1.20052596267
-1.72904857474 -1.94999989312 1.21872552962
-1.95000018607 -1.78528478764 1.22081780595
-1.95000018625 -1.4765314423 1.20350959738
-1.950000298 -1.2155819154 1.18888119857
-0.616606139085 -1.94999999476 0.973270134064
-0.828139119128 -1.94999999494 0.969043927729
-1.07644669056 -1.950000053 0.964083002735
-1.37203130032 -1.94999984558 0.958177536959
-1.72981632373 -1.94999997637 0.9510293664
-1.95000005061 -1.78190039789 0.949600107717
-1.95000038826 -1.47140746376 0.955085515388
-1.95000010189 -1.20927810634 0.959716506224
-0.610613740423 -1.95000002558 0.782316976539
-0.823007288038 -1.95000003642 0.762696016142
-1.07257986851 -1.94999998999 0.739640454383
-1.37002992852 -1.94999978148 0.712161976276
-1.73059666103 -1.94999981684 0.678852744466
-1.95000015809 -1.7784673387 0.674467260082
-1.95000014645 -1.46621553355 0.703380227543
-1.9500000026 -1.20289760912 0.727762172889
-0.604550478041 -1.94999998002 0.589106779789
-0.817809869069 -1.95000004833 0.5537115406
-1.06865932153 -1.94999997831 0.512077402399
-1.36799817177 -1.94999986612 0.462395357151
-1.73139040536 -1.94999987499 0.402082181279
-1.94999996932 -1.77498413638 0.395333935005
-1.95000021364 -1.46095476251 0.448328249495
-1.95000031889 -1.19643916722 0.492966837637
-0.598415135946 -1.94999996435 0.393599276293
-0.812545479135 -1.94999981798 0.342039735353
-1.06468388931 -1.94999997371 0.281328311727
-1.36593496841 -1.94999968696 0.208791356645
-1.73219763758 -1.94999991236 0.120600398352
-1.95000014201 -1.77145019101 0.112112076635
-1.94999999034 -1.45562339968 0.189862511255
-1.94999994932 -1.18990080317 0.255278243386
-0.592206393893 -1.94999991765 0.195753266303
-0.807213190599 -1.95000000875 0.127628182199
-1.06065244594 -1.95000002646 0.047325770433
-1.2933955424 -1.86868572442 -1.75492587129e-08
-1.46555730241 -1.70078912425 3.1503988529e-08
-1.63754958866 -1.5330578879 5.17207554562e-08
-1.80937287216 -1.36549188133 -6.26010057125e-08
-1.94999997282 -1.18328155796 0.0146422956319
