ply
format ascii 1.0
element vertex 384
property float x
property float y
property float z
property float depth_m
property int frame
property uchar sensor_id
property uchar pixel_u
property uchar pixel_v
end_header
1.34183382 0.21841515 1.51589129 0.69099933 86 0 0 0
1.37959157 0.15070707 1.54331981 0.74657321 86 0 1 0
1.36596156 0.07507255 1.54347283 0.75010961 86 0 2 0
1.35220231 -0.00128200 1.54362759 0.75368023 86 0 3 0
1.33828012 -0.07835765 1.54376579 0.75724995 86 0 4 0
1.32420336 -0.15615760 1.54389231 0.76082832 86 0 5 0
1.31005036 -0.23472798 1.54405459 0.76450837 86 0 6 0
1.29577384 -0.31407181 1.54422710 0.76824123 86 0 7 0
1.34191584 0.21588504 1.44049382 0.67970949 86 0 0 1
1.34177258 0.14779387 1.44551579 0.69533968 86 0 1 1
1.34162525 0.07649724 1.45077532 0.71170843 86 0 2 1
1.34147503 0.00176221 1.45629033 0.72887093 86 0 3 1
1.34131494 -0.07666557 1.46207677 0.74687892 86 0 4 1
1.34114635 -0.15906675 1.46815622 0.76579887 86 0 5 1
1.34098617 -0.24576052 1.47455978 0.78572214 86 0 6 1
1.34081101 -0.33708134 1.48130234 0.80670214 86 0 7 1
1.34199523 0.21343628 1.36752049 0.66878265 86 0 0 2
1.34186088 0.14640926 1.37081095 0.68391353 86 0 1 2
1.34172213 0.07627901 1.37425434 0.69974679 86 0 2 2
1.34157674 0.00282464 1.37786093 0.71633047 86 0 3 2
1.34142701 -0.07419669 1.38164352 0.73372221 86 0 4 2
1.34127855 -0.15505465 1.38561733 0.75198913 86 0 5 2
1.34112254 -0.24004153 1.38979407 0.77118886 86 0 6 2
1.34094646 -0.32947396 1.39418547 0.79138082 86 0 7 2
1.34209622 0.21106813 1.29686131 0.65822488 86 0 0 3
1.34196715 0.14507011 1.29852603 0.67287743 86 0 1 3
1.34183234 0.07606686 1.30026657 0.68819731 86 0 2 3
1.34168851 0.00384878 1.30208763 0.70422822 86 0 3 3
1.34154941 -0.07181735 1.30399810 0.72103608 86 0 4 3
1.34140644 -0.15118483 1.30600266 0.73866904 86 0 5 3
1.34124538 -0.23452576 1.30810524 0.75717390 86 0 6 3
1.34106647 -0.32214336 1.31031366 0.77661878 86 0 7 3
1.34220329 0.20877476 1.22839940 0.64800406 86 0 0 4
1.34207865 0.14377376 1.22853788 0.66220021 86 0 1 4
1.34194511 0.07586117 1.22868219 0.67702901 86 0 2 4
1.34180402 0.00483760 1.22883296 0.69253570 86 0 3 4
1.34166989 -0.06951952 1.22899230 0.70878351 86 0 4 4
1.34152060 -0.14744604 1.22915832 0.72580272 86 0 5 4
1.34135477 -0.22920219 1.22933150 0.74364930 86 0 6 4
1.34118191 -0.31508112 1.22951355 0.76239717 86 0 7 4
1.34230716 0.20655153 1.16203112 0.63809586 86 0 0 5
1.34218260 0.14251779 1.16073613 0.65185267 86 0 1 5
1.34205213 0.07566220 1.15938408 0.66621530 86 0 2 5
1.34191584 0.00579410 1.15797110 0.68122518 86 0 3 5
1.34177393 -0.06729501 1.15649299 0.69692767 86 0 4 5
1.34162091 -0.14383137 1.15494513 0.71336651 86 0 5 5
1.34146049 -0.22406555 1.15332248 0.73059958 86 0 6 5
1.34128896 -0.30827019 1.15161950 0.74868238 86 0 7 5
1.34239583 0.20439382 1.09766285 0.62847495 86 0 0 6
1.34227444 0.14130022 1.09502150 0.64181513 86 0 1 6
1.34214765 0.07547006 1.09226560 0.65573376 86 0 2 6
1.34201513 0.00672139 1.08938754 0.67026937 86 0 3 6
1.34187449 -0.06514369 1.08637919 0.68546188 86 0 4 6
1.34172670 -0.14034191 1.08323137 0.70135844 86 0 5 6
1.34157869 -0.21911419 1.07993334 0.71801698 86 0 6 6
1.34141612 -0.30171489 1.07647567 0.73547816 86 0 7 6
1.34247897 0.20229987 1.03520728 0.61913723 86 0 0 7
1.34236109 0.14011952 1.03130042 0.63207978 86 0 1 7
1.34223797 0.07528402 1.02722678 0.64557481 86 0 2 7
1.34210933 0.00761965 1.02297542 0.65965849 86 0 3 7
1.34197311 -0.06306236 1.01853480 0.67436856 86 0 4 7
1.34183599 -0.13697064 1.01389052 0.68975502 86 0 5 7
1.34169604 -0.21433204 1.00902860 0.70586371 86 0 6 7
1.34153991 -0.29538745 1.00393625 0.72273272 86 0 7 7
0.68443537 -0.12249581 1.52634917 0.37870780 86 1 0 0
0.64639070 -0.12810997 1.52646303 0.38243240 86 1 1 0
0.59302421 -0.07081276 1.42827943 0.27676141 86 1 2 0
0.56146282 -0.01317620 1.33437397 0.17385347 86 1 3 0
0.41982504 -1.02925427 2.83649249 1.88108695 86 1 4 0
0.22309779 -1.05833817 2.83716177 1.90043747 86 1 5 0
0.02233512 -1.08790751 2.83767703 1.91999578 86 1 6 0
-0.18260644 -1.11809772 2.83821115 1.93997037 86 1 7 0
0.70285248 -0.16974257 1.52752286 0.41776308 86 1 0 1
0.66103961 -0.17644967 1.52765420 0.42229146 86 1 1 1
0.61830963 -0.18330069 1.52778448 0.42691424 86 1 2 1
0.56940950 -0.11128961 1.42925578 0.30932105 86 1 3 1
0.52998027 -0.19746282 1.52805383 0.43647030 86 1 4 1
0.21301979 -1.31177243 2.84324774 2.10736942 86 1 5 1
-0.00996501 -1.34748584 2.84388017 2.13143420 86 1 6 1
-0.23811002 -1.38404047 2.84454546 2.15607858 86 1 7 1
0.72550350 -0.22785192 1.52896332 0.46579581 86 1 0 2
0.67909755 -0.23603867 1.52912305 0.47142655 86 1 1 2
0.63155452 -0.24441960 1.52928021 0.47718623 86 1 2 2
0.57529645 -0.15634665 1.43047236 0.34636271 86 1 3 2
0.53289365 -0.26184681 1.52964189 0.48918810 86 1 4 2
0.20048215 -1.62712610 2.85080583 2.36485052 86 1 5 2
-0.05025953 -1.67131102 2.85161849 2.39520454 86 1 6 2
-0.30754539 -1.71669450 2.85249817 2.42641449 86 1 7 2
0.75403501 -0.30105007 1.53076949 0.52629584 86 1 0 3
0.70190096 -0.31129272 1.53095446 0.53346443 86 1 1 3
0.64833187 -0.32183961 1.53116284 0.54085916 86 1 2 3
0.58276233 -0.21340358 1.43180332 0.39314499 86 1 3 3
0.53660591 -0.34395472 1.53169435 0.55643445 86 1 4 3
0.20813530 -1.89529448 2.75340272 2.52239323 86 1 5 3
-0.04424299 -1.89593025 2.71411565 2.49386001 86 1 6 3
-0.29097533 -1.89655175 2.67570744 2.46596503 86 1 7 3
0.79109065 -0.39611399 1.53312411 0.60487378 86 1 0 4
0.73161827 -0.40936226 1.53334648 0.61431414 86 1 1 4
0.67028791 -0.42315545 1.53366224 0.62420613 86 1 2 4
0.59257076 -0.28839267 1.43362555 0.45467362 86 1 3 4
0.54150144 -0.45223428 1.53440102 0.64511538 86 1 4 4
0.26172348 -1.89907237 2.44883998 2.34528494 86 1 5 4
0.02631730 -1.89961627 2.41548331 2.32058907 86 1 6 4
-0.20418591 -1.90015675 2.38282660 2.29641700 86 1 7 4
0.79492573 -0.42508996 1.47846328 0.59568429 86 1 0 5
0.73187158 -0.42524856 1.47030362 0.58954126 86 1 1 5
0.67009131 -0.42534365 1.46227740 0.58345520 86 1 2 5
0.60957355 -0.42543676 1.45441519 0.57749349 86 1 3 5
0.55027967 -0.42555873 1.44672799 0.57168657 86 1 4 5
0.30828047 -1.90235131 2.18423897 2.19141245 86 1 5 5
0.08770960 -1.90282355 2.15565253 2.16983151 86 1 6 5
-0.12858045 -1.90334814 2.12765293 2.14873791 86 1 7 5
0.78644197 -0.42593017 1.41307166 0.55723369 86 1 0 6
0.72749857 -0.42606475 1.40606232 0.55184835 86 1 1 6
0.66967237 -0.42614597 1.39916552 0.54651219 86 1 2 6
0.61295680 -0.42625298 1.39241212 0.54130697 86 1 3 6
0.55731139 -0.42635494 1.38578493 0.53619683 86 1 4 6
0.34909833 -1.90528547 1.95224366 2.05654860 86 1 5 6
0.14160635 -1.90566561 1.92753202 2.03749371 86 1 6 6
-0.06210018 -1.90611711 1.90330253 2.01886797 86 1 7 6
0.77898725 -0.42666900 1.35561022 0.52344650 86 1 0 7
0.72365114 -0.42678288 1.34954204 0.51868570 86 1 1 7
0.66930868 -0.42687708 1.34357765 0.51399314 86 1 2 7
0.61594052 -0.42696835 1.33771983 0.50938350 86 1 3 7
0.56340980 -0.41922189 1.32965279 0.49718270 86 1 4 7
0.38518560 -1.90785393 1.74714055 1.93729722 86 1 5 7
0.18930858 -1.90817072 1.72563527 1.92036068 86 1 6 7
-0.00319927 -1.90857487 1.70452714 1.90380621 86 1 7 7
1.22316824 -0.25254630 1.54181583 0.71832603 86 2 0 0
1.17527058 -0.30711333 1.54225228 0.72805053 86 2 1 0
1.12592857 -0.36306554 1.54260269 0.73785800 86 2 2 0
1.07526761 -0.42057674 1.54298661 0.74797881 86 2 3 0
0.99538007 -0.44184948 1.51713990 0.70786321 86 2 4 0
0.91237416 -0.44152330 1.48173733 0.64806330 86 2 5 0
0.79761390 -0.34126779 1.39475968 0.48476434 86 2 6 0
0.78235384 -0.44100941 1.42628169 0.55439043 86 2 7 0
1.39234468 -0.34544851 1.54845344 0.89798820 86 2 0 1
1.33514952 -0.41548169 1.54912068 0.91325325 86 2 1 1
1.22330355 -0.44265787 1.51835350 0.85604966 86 2 2 1
1.10173906 -0.44214078 1.47613205 0.77004129 86 2 3 1
1.00240816 -0.44176662 1.44164685 0.69980180 86 2 4 1
0.91968749 -0.44146176 1.41293027 0.64131320 86 2 5 1
0.80378465 -0.34154788 1.34362823 0.48046681 86 2 6 1
0.78979043 -0.44099185 1.36783893 0.54947495 86 2 7 1
1.33511271 -0.31346311 1.42934887 0.81737649 86 2 0 2
1.33395823 -0.41215166 1.44941198 0.89343566 86 2 1 2
1.22867720 -0.44256903 1.42726858 0.84432316 86 2 2 2
1.10804935 -0.44203535 1.39459192 0.76049411 86 2 3 2
1.00928329 -0.44169262 1.36785681 0.69193107 86 2 4 2
0.92685413 -0.44140821 1.34554429 0.63471031 86 2 5 2
0.85702061 -0.44117490 1.32664283 0.58623916 86 2 6 2
0.79709085 -0.44095951 1.31041883 0.54463035 86 2 7 2
1.33530996 -0.31315791 1.34257054 0.80285728 86 2 0 3
1.33419014 -0.40990171 1.35432470 0.87611037 86 2 1 3
1.23387081 -0.44245319 1.33863490 0.83286744 86 2 2 3
1.11425274 -0.44198219 1.31506445 0.75125116 86 2 3 3
1.01604596 -0.44167251 1.29572257 0.68430287 86 2 4 3
0.93387228 -0.44135183 1.27953080 0.62823737 86 2 5 3
0.86416201 -0.44111651 1.26579941 0.58070350 86 2 6 3
0.80426059 -0.44091957 1.25400079 0.53986210 86 2 7 3
1.33553721 -0.31288364 1.25882685 0.78888476 86 2 0 4
1.33443705 -0.40775358 1.26285879 0.85947233 86 2 1 4
1.23901470 -0.44241529 1.25238869 0.82183433 86 2 2 4
1.12035712 -0.44198178 1.23745544 0.74230224 86 2 3 4
1.02265115 -0.44164014 1.22515966 0.67682481 86 2 4 4
0.94074819 -0.44129575 1.21485006 0.62189412 86 2 5 4
0.87117359 -0.44106674 1.20609509 0.57527959 86 2 6 4
0.81130807 -0.44088594 1.19856259 0.53518230 86 2 7 4
1.33573610 -0.31260744 1.17794737 0.77536839 86 2 0 5
1.33465457 -0.40567184 1.17480145 0.84343112 86 2 1 5
1.24406316 -0.44241087 1.16839880 0.81113935 86 2 2 5
1.12631770 -0.44198131 1.16167363 0.73356390 86 2 3 5
1.02909323 -0.44158307 1.15612199 0.66947633 86 2 4 5
0.94748658 -0.44124071 1.15146241 0.61567760 86 2 5 5
0.87806200 -0.44103074 1.14749571 0.56996989 86 2 6 5
0.81823440 -0.44085286 1.14407726 0.53058290 86 2 7 5
1.33593893 -0.31234639 1.09979197 0.76231849 86 2 0 6
1.33489920 -0.40369005 1.08996804 0.82801753 86 2 1 6
1.24892554 -0.44236006 1.08657234 0.80064899 86 2 2 6
1.13206256 -0.44190326 1.08766430 0.72492284 86 2 3 6
1.03538593 -0.44151367 1.08856889 0.66226876 86 2 4 6
0.95411808 -0.44122702 1.08932491 0.60963047 86 2 5 6
0.88483891 -0.44102286 1.08996508 0.56478661 86 2 6 6
0.82505410 -0.44084787 1.09051738 0.52608925 86 2 7 6
1.33615109 -0.31210277 1.02422108 0.74971706 86 2 0 7
1.33512536 -0.40177289 1.00818150 0.81314641 86 2 1 7
1.25363305 -0.44228541 1.00684213 0.79038906 86 2 2 7
1.13766816 -0.44182158 1.01537964 0.71647561 86 2 3 7
1.04155957 -0.44146396 1.02245049 0.65523726 86 2 4 7
0.96062555 -0.44122099 1.02839447 0.60370940 86 2 5 7
0.89149549 -0.44101848 1.03347063 0.55970031 86 2 6 7
0.83175683 -0.44083726 1.03785831 0.52166545 86 2 7 7
0.74768469 0.43538620 1.26022145 0.22155331 86 3 0 0
0.77325001 0.43515416 1.27118316 0.24170952 86 3 1 0
0.80393345 0.43487682 1.28433974 0.26590177 86 3 2 0
0.84144213 0.43453780 1.30042287 0.29547536 86 3 3 0
0.88834330 0.43411814 1.32053469 0.33245745 86 3 4 0
0.94864624 0.43356609 1.34638945 0.37999815 86 3 5 0
0.79459141 0.30925881 1.24094279 0.16961394 86 3 6 0
1.14144194 0.43168801 1.42901476 0.53191143 86 3 7 0
0.75026373 0.43540063 1.23703854 0.22023542 86 3 0 1
0.77589698 0.43517243 1.24583419 0.24014300 86 3 1 1
0.80662483 0.43489886 1.25637796 0.26400718 86 3 2 1
0.84413373 0.43456495 1.26924854 0.29313776 86 3 3 1
0.89094669 0.43414820 1.28531167 0.32949415 86 3 4 1
0.95100062 0.43360341 1.30591582 0.37612680 86 3 5 1
0.79460533 0.30892722 1.22243683 0.16683154 86 3 6 1
1.14203418 0.43178622 1.37143840 0.52440816 86 3 7 1
0.75281274 0.43541581 1.21413007 0.21893412 86 3 0 2
0.77850986 0.43519045 1.22081166 0.23859663 86 3 1 2
0.80927816 0.43492062 1.22881183 0.26213944 86 3 2 2
0.84678310 0.43459169 1.23856362 0.29083687 86 3 3 2
0.89349861 0.43417322 1.25070885 0.32657588 86 3 4 2
0.95329522 0.43363186 1.26625402 0.37231848 86 3 5 2
0.79459477 0.30859378 1.20451992 0.16411181 86 3 6 2
1.14262075 0.43188605 1.31546735 0.51712495 86 3 7 2
0.75533180 0.43543082 1.19149073 0.21764810 86 3 0 3
0.78108930 0.43520824 1.19610934 0.23707007 86 3 1 3
0.81189417 0.43494204 1.20163300 0.26029789 86 3 2 3
0.84938366 0.43461042 1.20835460 0.28856096 86 3 3 3
0.89600034 0.43419341 1.21671223 0.32370180 86 3 4 3
0.95554381 0.43365973 1.22738733 0.36858648 86 3 5 3
0.79458455 0.30827104 1.18717781 0.16147932 86 3 6 3
1.14324939 0.43200661 1.26104228 0.51010132 86 3 7 3
0.75782144 0.43544565 1.16911580 0.21637711 86 3 0 4
0.78363595 0.43522580 1.17172110 0.23556291 86 3 1 4
0.81446821 0.43495644 1.17483269 0.25847346 86 3 2 4
0.85193984 0.43462486 1.17861423 0.28631473 86 3 3 4
0.89845839 0.43421321 1.18330877 0.32087782 86 3 4 4
0.95774777 0.43368705 1.18929208 0.36492857 86 3 5 4
0.79458408 0.30796338 1.17038433 0.15894029 86 3 6 4
1.14385193 0.43212021 1.20807479 0.50325650 86 3 7 4
0.76028218 0.43546031 1.14700068 0.21512088 86 3 0 5
0.78614635 0.43523713 1.14764120 0.23406783 86 3 1 5
0.81700337 0.43496697 1.14840555 0.25666976 86 3 2 5
0.85445654 0.43463909 1.14933330 0.28410321 86 3 3 5
0.90087395 0.43423270 1.15048309 0.31810272 86 3 4 5
0.95990842 0.43371383 1.15194552 0.36134255 86 3 5 5
0.79456995 0.30765818 1.15411079 0.15646511 86 3 6 5
1.14443850 0.43223079 1.15650998 0.49659294 86 3 7 5
0.76271147 0.43546937 1.12514165 0.21387342 86 3 0 6
0.78862274 0.43524490 1.12386554 0.23258770 86 3 1 6
0.81950341 0.43497738 1.12234469 0.25489110 86 3 2 6
0.85694035 0.43465864 1.12050030 0.28193334 86 3 3 6
0.90325742 0.43425926 1.11821901 0.31538680 86 3 4 6
0.96206194 0.43376255 1.11532146 0.35786629 86 3 5 6
0.79456472 0.30736670 1.13833541 0.15407485 86 3 6 6
1.14495052 0.43231464 1.10629858 0.49004498 86 3 7 6
0.76511839 0.43548820 1.10353220 0.21265070 86 3 0 7
0.79107857 0.43526765 1.10038467 0.23114337 86 3 1 7
0.82198394 0.43500510 1.09663756 0.25315875 86 3 2 7
0.85939625 0.43468726 1.09210152 0.27980933 86 3 3 7
0.90561231 0.43429463 1.08649808 0.31273124 86 3 4 7
0.96417848 0.43381292 1.07939440 0.35446084 86 3 5 7
0.79455967 0.30708399 1.12303476 0.15175653 86 3 6 7
1.14538316 0.43236971 1.05740700 0.48360306 86 3 7 7
1.13769769 0.43125990 1.40379499 0.50682634 86 4 0 0
1.25424991 0.42968372 1.46404497 0.62860364 86 4 1 0
1.34583804 0.39325964 1.50876637 0.71827495 86 4 2 0
1.34587211 0.31715575 1.50310900 0.70528382 86 4 3 0
1.34590703 0.24375611 1.49765372 0.69275647 86 4 4 0
1.34595035 0.17291847 1.49239385 0.68067646 86 4 5 0
1.34599555 0.10450863 1.48731598 0.66901398 86 4 6 0
1.34603775 0.03840382 1.48240844 0.65774292 86 4 7 0
1.14365296 0.43126215 1.35132161 0.50562435 86 4 0 1
1.26134227 0.42971547 1.39884636 0.62681454 86 4 1 1
1.34585770 0.39077435 1.43085520 0.70746243 86 4 2 1
1.34589359 0.31584057 1.42667090 0.69485891 86 4 3 1
1.34593037 0.24353020 1.42263396 0.68269885 86 4 4 1
1.34597271 0.17370720 1.41873865 0.67096412 86 4 5 1
1.34601487 0.10624386 1.41497549 0.65962726 86 4 6 1
1.34605369 0.04102280 1.41133661 0.64866519 86 4 7 1
1.14965146 0.43130547 1.29911912 0.50450754 86 4 0 2
1.26840237 0.42975067 1.33402031 0.62504435 86 4 1 2
1.34588002 0.38836388 1.35525591 0.69697410 86 4 2 2
1.34591715 0.31456430 1.35246040 0.68474054 86 4 3 2
1.34595300 0.24331074 1.34976134 0.67292905 86 4 4 2
1.34599195 0.17447373 1.34715508 0.66152251 86 4 5 2
1.34603116 0.10793131 1.34463616 0.65049779 86 4 6 2
1.34606909 0.04357049 1.34219982 0.63983452 86 4 7 2
1.15564285 0.43135959 1.24715057 0.50341684 86 4 0 3
1.27551623 0.42982755 1.26957776 0.62338477 86 4 1 3
1.34591673 0.38602882 1.28186835 0.68680811 86 4 2 3
1.34595311 0.31332754 1.28038265 0.67492622 86 4 3 3
1.34599052 0.24309922 1.27894792 0.66345078 86 4 4 3
1.34602957 0.17521911 1.27756170 0.65236193 86 4 5 3
1.34606832 0.10957070 1.27622124 0.64163864 86 4 6 3
1.34610718 0.04604533 1.27492438 0.63126349 86 4 7 3
1.16160851 0.43141353 1.19540626 0.50233096 86 4 0 4
1.28245755 0.42984434 1.20546508 0.62159097 86 4 1 4
1.34595393 0.38376140 1.21059099 0.67693603 86 4 2 4
1.34599194 0.31212657 1.21034221 0.66539323 86 4 3 4
1.34602881 0.24289377 1.21010178 0.65423763 86 4 4 4
1.34606669 0.17594414 1.20986946 0.64345211 86 4 5 4
1.34610613 0.11116588 1.20964491 0.63301915 86 4 6 4
1.34614589 0.04845443 1.20942766 0.62292063 86 4 7 4
1.16752885 0.43145637 1.14388518 0.50122887 86 4 0 5
1.28936208 0.42986236 1.14172023 0.61981064 86 4 1 5
1.34599328 0.38155929 1.14133359 0.66734701 86 4 2 5
1.34603026 0.31095919 1.14225276 0.65612638 86 4 3 5
1.34606604 0.24269395 1.14314154 0.64527684 86 4 4 5
1.34610518 0.17664966 1.14400132 0.63478470 86 4 5 5
1.34614506 0.11271858 1.14483355 0.62463021 86 4 6 5
1.34618363 0.05080068 1.14563958 0.61479545 86 4 7 5
1.17333042 0.43144822 1.09260197 0.50003427 86 4 0 6
1.29616320 0.42985263 1.07834774 0.61797458 86 4 1 6
1.34601957 0.37941484 1.07401239 0.65801376 86 4 2 6
1.34605593 0.30982139 1.07603524 0.64710253 86 4 3 6
1.34609560 0.24249879 1.07799156 0.63655168 86 4 4 6
1.34613550 0.17733635 1.07988493 0.62634081 86 4 5 6
1.34617451 0.11423140 1.08171848 0.61645269 86 4 6 6
1.34621227 0.05308798 1.08349504 0.60687190 86 4 7 6
1.17910107 0.43143831 1.04156342 0.49884191 86 4 0 7
1.30291389 0.42983855 1.01535198 0.61613894 86 4 1 7
1.34604595 0.37732981 1.00854809 0.64893878 86 4 2 7
1.34608679 0.30871571 1.01161310 0.63832933 86 4 3 7
1.34612611 0.24230903 1.01457956 0.62806100 86 4 4 7
1.34616507 0.17800500 1.01745190 0.61811864 86 4 5 7
1.34620309 0.11570512 1.02023466 0.60848641 86 4 6 7
1.34623184 0.05531854 1.02293367 0.59914231 86 4 7 7
0.60579133 -0.43998561 1.21233375 0.47076562 86 5 0 0
0.55844596 -0.44002374 1.21000299 0.47960630 86 5 1 0
0.41384747 -1.95816000 1.45747481 1.92280889 86 5 2 0
0.21292359 -1.95831287 1.44758207 1.96031857 86 5 3 0
0.00400448 -1.95847224 1.43729574 1.99932122 86 5 4 0
-0.21339799 -1.95864148 1.42659230 2.03991079 86 5 5 0
-0.43981068 -1.95881779 1.41544526 2.08218265 86 5 6 0
-0.67580560 -1.95900163 1.40382647 2.12624359 86 5 7 0
0.61259499 -0.44000966 1.16536824 0.47864044 86 5 0 1
0.56422054 -0.43204590 1.16148680 0.48023775 86 5 1 1
0.43505445 -1.95830729 1.26520287 1.95626760 86 5 2 1
0.23098285 -1.95848595 1.25131849 1.99512696 86 5 3 1
0.01864260 -1.95866005 1.23687066 2.03554964 86 5 4 1
-0.20247886 -1.95883849 1.22182514 2.07764125 86 5 5 1
-0.43293807 -1.95902413 1.20614424 2.12151003 86 5 6 1
-0.67332562 -1.95919476 1.18978610 2.16724682 86 5 7 1
0.61963157 -0.44004397 1.11680464 0.48679209 86 5 0 2
0.57018156 -0.42709236 1.11278460 0.48379138 86 5 1 2
0.45701144 -1.95848603 1.06612028 1.99093699 86 5 2 2
0.24969485 -1.95866659 1.04795895 2.03119516 86 5 3 2
0.03382249 -1.95884882 1.02904826 2.07310915 86 5 4 2
-0.19114511 -1.95903434 1.00934092 2.11678481 86 5 5 2
-0.42578015 -1.95919486 0.98878750 2.16230536 86 5 6 2
-0.67072710 -1.95936022 0.96733083 2.20982432 86 5 7 2
0.62691407 -0.44009227 1.06655685 0.49523845 86 5 0 3
0.57657926 -0.42711278 1.06275943 0.49232405 86 5 1 3
0.47976088 -1.95866639 0.85985463 2.02685261 86 5 2 3
0.26909585 -1.95885400 0.83711130 2.06859159 86 5 3 3
0.04957316 -1.95904447 0.81341233 2.11208057 86 5 4 3
-0.17936093 -1.95919489 0.78870340 2.15738630 86 5 5 3
-0.41833567 -1.95935981 0.76290979 2.20468688 86 5 6 3
-0.66802452 -1.95953243 0.73595972 2.25410843 86 5 7 3
0.63445385 -0.44014275 1.01453447 0.50398356 86 5 0 4
0.58320695 -0.42713723 1.01093725 0.50116640 86 5 1 4
0.50334673 -1.95882426 0.64601719 2.06405830 86 5 2 4
0.28922864 -1.95901621 0.61836215 2.10735750 86 5 3 4
0.06593849 -1.95919996 0.58952627 2.15249491 86 5 4 4
-0.16711712 -1.95936536 0.55943538 2.19957972 86 5 5 4
-0.41059670 -1.95953813 0.52799861 2.24877048 86 5 6 4
-0.66523246 -1.95974724 0.49511483 2.30024385 86 5 7 4
0.62094796 -0.33035466 0.99497205 0.40416411 86 5 0 5
0.57916814 -0.31310851 0.99456116 0.39496896 86 5 1 5
0.52781476 -1.95897365 0.42418732 2.10264063 86 5 2 5
0.31013144 -1.95917566 0.39126081 2.14759469 86 5 3 5
0.08294032 -1.95937045 0.35690166 2.19449568 86 5 4 5
-0.15438488 -1.95954276 0.32102053 2.24345660 86 5 5 5
-0.40256095 -1.95976476 0.28348457 2.29469919 86 5 6 5
-0.66234615 -1.96000897 0.24418872 2.34835100 86 5 7 5
0.60702949 -0.23360313 0.99165851 0.31386921 86 5 0 6
0.57465460 -0.22176346 0.99143877 0.30819622 86 5 1 6
0.55321498 -1.95913167 0.19390504 2.14269590 86 5 2 6
0.33184803 -1.95934105 0.15531839 2.18939805 86 5 3 6
0.10061888 -1.95954758 0.11501822 2.23816800 86 5 4 6
-0.13387674 -1.93807950 0.08405323 2.26479363 86 5 5 6
-0.34806030 -1.85959168 0.08267248 2.22709441 86 5 6 6
-0.55558927 -1.78428333 0.08099611 2.19134688 86 5 7 6
0.59820873 -0.17225126 0.98952141 0.25661761 86 5 0 7
0.57178023 -0.16343105 0.98938267 0.25279424 86 5 1 7
0.55142404 -0.44037066 0.82555581 0.55527914 86 5 2 7
0.37938572 -1.68821841 0.07148839 1.93546522 86 5 3 7
0.18857028 -1.62460959 0.07044411 1.90793955 86 5 4 7
0.00312548 -1.56272587 0.06946686 1.88111842 86 5 5 7
-0.17735167 -1.50294007 0.06826178 1.85548961 86 5 6 7
-0.35261938 -1.44415277 0.06751110 1.82981777 86 5 7 7
