ply
format ascii 1.0
element vertex 632
property float x
property float y
property float z
property float depth_m
property int frame
property uchar sensor_id
property uchar pixel_u
property uchar pixel_v
end_header
0.69323275 -0.43923890 1.05523522 0.46647877 0 2 1 5
0.63638533 -0.43919806 1.05620795 0.44348696 0 2 2 5
0.57817307 -0.42602708 1.05815917 0.40806401 0 2 3 5
0.69283717 -0.43924622 1.00778427 0.46249324 0 2 1 6
0.63645773 -0.43918476 1.01107302 0.43985930 0 2 2 6
0.57862696 -0.42601402 1.01660695 0.40488046 0 2 3 6
0.61635925 -0.34331381 0.99314146 0.34296146 0 2 1 7
0.58313572 -0.35655594 0.99303440 0.34155062 0 2 2 7
0.54985293 -0.36904344 0.99312592 0.33944458 0 2 3 7
0.55403330 -0.47601990 0.96539138 0.43631843 0 2 4 7
0.69323275 -0.43923890 1.05523522 0.46647877 1 2 1 5
0.63638533 -0.43919806 1.05620795 0.44348696 1 2 2 5
0.57817307 -0.42602708 1.05815917 0.40806401 1 2 3 5
0.69283717 -0.43924622 1.00778427 0.46249324 1 2 1 6
0.63645773 -0.43918476 1.01107302 0.43985930 1 2 2 6
0.57862696 -0.42601402 1.01660695 0.40488046 1 2 3 6
0.61635925 -0.34331381 0.99314146 0.34296146 1 2 1 7
0.58313572 -0.35655594 0.99303440 0.34155062 1 2 2 7
0.54985293 -0.36904344 0.99312592 0.33944458 1 2 3 7
0.55403330 -0.47601990 0.96539138 0.43631843 1 2 4 7
0.70214563 -0.43910391 1.05670213 0.47384986 2 2 1 5
0.64407665 -0.43906637 1.05751409 0.44992194 2 2 2 5
0.58480990 -0.42603317 1.05926325 0.41379106 2 2 3 5
0.54446796 -0.44038376 1.05880901 0.41012225 2 2 4 5
0.70183768 -0.43909240 1.00852253 0.46967047 2 2 1 6
0.64426958 -0.43905413 1.01174054 0.44615042 2 2 2 6
0.58537972 -0.42599829 1.01714748 0.41046140 2 2 3 6
0.54462396 -0.43840788 1.01740489 0.40492100 2 2 4 6
0.62289170 -0.34173887 0.99339666 0.34752315 2 2 1 7
0.58880046 -0.35462226 0.99344714 0.34514523 2 2 2 7
0.55566261 -0.36826435 0.99321356 0.34382504 2 2 3 7
0.54449459 -0.43578188 0.97724182 0.39911643 2 2 4 7
0.71656212 -0.43910238 1.05914758 0.48597422 3 2 1 5
0.65645188 -0.43903893 1.05969584 0.46046373 3 2 2 5
0.71640293 -0.43907854 1.00976630 0.48149264 3 2 1 6
0.65683077 -0.43902324 1.01287807 0.45644581 3 2 2 6
0.59883939 -0.43100841 1.01717094 0.42500186 3 2 3 6
0.55453965 -0.43895704 1.01821672 0.41346350 3 2 4 6
0.63339605 -0.33940660 0.99382587 0.35503793 3 2 1 7
0.59899051 -0.35339180 0.99360274 0.35302430 3 2 2 7
0.56483368 -0.36696275 0.99345891 0.35074994 3 2 3 7
0.55435454 -0.43578407 0.97737435 0.40689260 3 2 4 7
0.73417104 -0.43914770 1.01133642 0.49606064 4 2 1 6
0.67210992 -0.43909557 1.01430117 0.46912336 4 2 2 6
0.61643275 -0.43903279 1.01696343 0.44494292 4 2 3 6
0.56237811 -0.43017948 1.02090563 0.41373548 4 2 4 6
0.73423505 -0.43915447 0.96143580 0.49135536 4 2 1 7
0.61104450 -0.35157693 0.99394133 0.36220935 4 2 2 7
0.57597852 -0.36561804 0.99373036 0.35938948 4 2 3 7
0.54125342 -0.37898526 0.99365194 0.35612899 4 2 4 7
0.68901513 -0.43915112 1.01596602 0.48323748 5 2 2 6
0.63108923 -0.43909684 1.01845118 0.45724320 5 2 3 6
0.57313106 -0.42605131 1.02288466 0.41992080 5 2 4 6
0.62463280 -0.35000888 0.99424184 0.37292627 5 2 2 7
0.58808195 -0.36389049 0.99415461 0.36868662 5 2 3 7
0.55248690 -0.37775037 0.99398868 0.36485201 5 2 4 7
0.70706419 -0.43921124 1.01784030 0.49841899 6 2 2 6
0.64666090 -0.43914214 1.02012227 0.47039488 6 2 3 6
0.58642364 -0.42602963 1.02429333 0.43120643 6 2 4 6
0.54427555 -0.43931128 1.02394868 0.42313993 6 2 5 6
0.70820763 -0.43918416 0.96777389 0.49350497 6 2 2 7
0.60122580 -0.36261348 0.99450745 0.37924019 6 2 3 7
0.56455395 -0.37686071 0.99428769 0.37459219 6 2 4 7
0.54387234 -0.43183562 0.98328652 0.41198575 6 2 5 7
0.72604855 -0.43930945 1.01990963 0.51452464 7 2 2 6
0.66298492 -0.43925114 1.02195360 0.48432285 7 2 3 6
0.60691087 -0.43919250 1.02377198 0.45746264 7 2 4 6
0.55385545 -0.43164461 1.02654757 0.42566195 7 2 5 6
0.72751261 -0.43929318 0.96828198 0.50926083 7 2 2 7
0.61496545 -0.36134207 0.99493221 0.39039379 7 2 3 7
0.57696875 -0.37566657 0.99473801 0.38450557 7 2 4 7
0.54032038 -0.39012748 0.99440489 0.37936950 7 2 5 7
0.67991406 -0.43933839 1.02395952 0.49885556 8 2 3 6
0.62160098 -0.43927186 1.02553223 0.47003540 8 2 4 6
0.56173342 -0.41966455 1.02981270 0.42398319 8 2 5 6
0.62911346 -0.35992565 0.99547894 0.40190107 8 2 3 7
0.59028797 -0.37540798 0.99501808 0.39586997 8 2 4 7
0.55216638 -0.38935607 0.99484221 0.38890490 8 2 5 7
0.69745352 -0.43946285 1.02613572 0.51403856 9 2 3 6
0.63675405 -0.43937798 1.02743613 0.48311201 9 2 4 6
0.57735913 -0.42624368 1.03043367 0.44198442 9 2 5 6
0.70017450 -0.43943159 0.97462842 0.50872254 9 2 3 7
0.60364047 -0.37445916 0.99556582 0.40689403 9 2 4 7
0.56499747 -0.39012793 0.99497428 0.40038064 9 2 5 7
0.71559370 -0.43960815 1.02849307 0.52985775 10 2 3 6
0.65235585 -0.43949437 1.02949222 0.49667236 10 2 4 6
0.59073629 -0.42643315 1.03212411 0.45368844 10 2 5 6
0.54336933 -0.42857227 1.03258766 0.43066049 10 2 6 6
0.71872609 -0.43958105 0.97546048 0.52421606 10 2 3 7
0.61816429 -0.37486752 0.99586401 0.41983089 10 2 4 7
0.57753364 -0.38943869 0.99555607 0.41067636 10 2 5 7
0.53892234 -0.40420885 0.99506954 0.40272549 10 2 6 7
0.73432802 -0.43973995 1.03104626 0.54629189 11 2 3 6
0.66842947 -0.43964357 1.03170498 0.51075304 11 2 4 6
0.61056974 -0.43953468 1.03228636 0.47952980 11 2 5 6
0.55349261 -0.42307187 1.03488900 0.43545493 11 2 6 6
0.73792134 -0.43974868 0.97642244 0.54035300 11 2 3 7
0.67245061 -0.43963460 0.98059627 0.50553769 11 2 4 7
0.59102962 -0.39009205 0.99590791 0.42272344 11 2 5 7
0.55110594 -0.40475196 0.99543538 0.41327581 11 2 6 7
0.68468160 -0.43978383 1.03404523 0.52507365 12 2 4 6
0.62467978 -0.43968113 1.03430237 0.49183860 12 2 5 6
0.56115390 -0.41157276 1.03794256 0.43422595 12 2 6 6
0.68915640 -0.43976595 0.98156648 0.51957637 12 2 4 7
0.60484891 -0.39108659 0.99627581 0.43529588 12 2 5 7
0.56333750 -0.40517668 0.99590903 0.42382041 12 2 6 7
0.70596832 -0.43985813 1.03521402 0.54310286 13 2 4 6
0.64325870 -0.43974424 1.03535806 0.50735897 13 2 5 6
0.58300604 -0.42656980 1.03702914 0.46270657 13 2 6 6
0.71080080 -0.43984770 0.98096639 0.53735721 13 2 4 7
0.62009939 -0.38664310 0.99669274 0.44526133 13 2 5 7
0.57805620 -0.40219252 0.99611233 0.43380749 13 2 6 7
0.53764207 -0.41542540 0.99588988 0.42146602 13 2 7 7
0.73089603 -0.44004343 1.03556136 0.56395638 14 2 4 6
0.66499504 -0.43987584 1.03573128 0.52525043 14 2 5 6
0.60756917 -0.43975335 1.03587665 0.49154049 14 2 6 6
0.55288935 -0.42675340 1.03749378 0.44944143 14 2 7 6
0.73600134 -0.44000190 0.97925642 0.55792040 14 2 4 7
0.67042068 -0.43985630 0.98324652 0.52002972 14 2 5 7
0.59330549 -0.39471513 0.99656663 0.44111905 14 2 6 7
0.55270627 -0.40963705 0.99615649 0.42913070 14 2 7 7
0.68895109 -0.44005879 1.03571341 0.54481679 15 2 5 6
0.62879451 -0.43992857 1.03594400 0.50847942 15 2 6 6
0.57165206 -0.42689479 1.03761488 0.46411419 15 2 7 6
0.69464465 -0.44003481 0.98128020 0.53940219 15 2 5 7
0.60929411 -0.38572150 0.99691034 0.44804904 15 2 6 7
0.56883576 -0.40298550 0.99622598 0.43702739 15 2 7 7
0.71470645 -0.44030785 1.03545628 0.56576276 16 2 5 6
0.65156555 -0.44016362 1.03581555 0.52654541 16 2 6 6
0.59174141 -0.42703254 1.03758835 0.47965679 16 2 7 6
0.72065662 -0.44027020 0.97893368 0.56014240 16 2 5 7
0.62616587 -0.37656752 0.99700944 0.45563993 16 2 6 7
0.58489056 -0.39365734 0.99661677 0.44308043 16 2 7 7
0.67572472 -0.44047716 1.03556585 0.54563677 17 2 6 6
0.61825435 -0.44030553 1.03601808 0.50894564 17 2 7 6
0.68211491 -0.44045333 0.98100549 0.54063535 17 2 6 7
0.60138486 -0.38381549 0.99695218 0.44920561 17 2 7 7
0.68976938 -0.44079907 1.03511275 0.55687094 18 2 6 6
0.63079083 -0.44058942 1.03566169 0.51864052 18 2 7 6
0.69631013 -0.44077871 0.97942114 0.55180460 18 2 6 7
0.61099827 -0.37893419 0.99671296 0.45347166 18 2 7 7
0.69799521 -0.44097309 1.03522842 0.56255770 19 2 6 6
0.63827731 -0.44079875 1.03581652 0.52361405 19 2 7 6
0.70462187 -0.44096213 0.97896149 0.55747283 19 2 6 7
0.61692769 -0.37640973 0.99695241 0.45556873 19 2 7 7
0.70318142 -0.44103887 1.03564062 0.56526846 20 2 6 6
0.64309225 -0.44082024 1.03625399 0.52594191 20 2 7 6
0.70981915 -0.44097795 0.97911042 0.56012046 20 2 6 7
0.62194194 -0.37724852 0.99699318 0.45862979 20 2 7 7
0.70685379 -0.44109649 1.03618627 0.56651264 21 2 6 6
0.64661523 -0.44088383 1.03680694 0.52705973 21 2 7 6
0.71353198 -0.44107549 0.97952065 0.56140584 21 2 6 7
0.62593117 -0.37846793 0.99719877 0.46086922 21 2 7 7
0.70974535 -0.44110044 1.03686062 0.56697547 22 2 6 6
0.64944334 -0.44084850 1.03748671 0.52745694 22 2 7 6
0.71641274 -0.44104793 0.98015458 0.56183541 22 2 6 7
0.62969591 -0.38053714 0.99739962 0.46335155 22 2 7 7
0.71227931 -0.44111493 1.03760065 0.56709504 23 2 6 6
0.65199852 -0.44091185 1.03821884 0.52764738 23 2 7 6
0.71895125 -0.44106799 0.98088106 0.56196123 23 2 6 7
0.63388204 -0.38423247 0.99734927 0.46714801 23 2 7 7
0.71463664 -0.44111576 1.03837706 0.56702858 24 2 6 6
0.65438317 -0.44091817 1.03899044 0.52763271 24 2 7 6
0.72133754 -0.44112362 0.98165206 0.56195349 24 2 6 7
0.66111329 -0.44090150 0.98617402 0.52321023 24 2 7 7
0.71693078 -0.44113495 1.03916969 0.56690115 25 2 6 6
0.65669100 -0.44089081 1.03978329 0.52751410 25 2 7 6
0.72360981 -0.44110728 0.98246538 0.56178856 25 2 6 7
0.66341764 -0.44087148 0.98697952 0.52308881 25 2 7 7
0.71917819 -0.44111483 1.03997644 0.56669575 26 2 6 6
0.65899885 -0.44091342 1.04058002 0.52741343 26 2 7 6
0.72586002 -0.44109825 0.98329049 0.56159550 26 2 6 7
0.66572460 -0.44089699 0.98778601 0.52299035 26 2 7 7
0.72140855 -0.44106692 1.04079161 0.56644684 27 2 6 6
0.66127441 -0.44086168 1.04139025 0.52722567 27 2 7 6
0.72808915 -0.44105516 0.98412977 0.56135249 27 2 6 7
0.66799958 -0.44085148 0.98861405 0.52280867 27 2 7 7
0.72368170 -0.44108159 1.04160277 0.56626201 28 2 6 6
0.66358332 -0.44086721 1.04219720 0.52709138 28 2 7 6
0.73034295 -0.44104018 0.98496622 0.56113636 28 2 6 7
0.67029370 -0.44082894 0.98944071 0.52264607 28 2 7 7
0.72596240 -0.44108276 1.04241730 0.56606507 29 2 6 6
0.66591656 -0.44089743 1.04300337 0.52698261 29 2 7 6
0.73264398 -0.44108445 0.98579129 0.56098539 29 2 6 7
0.67263601 -0.44088529 0.99025260 0.52256233 29 2 7 7
0.72824591 -0.44105647 1.04323615 0.56584370 30 2 6 6
0.66823708 -0.44085870 1.04381861 0.52680826 30 2 7 6
0.73490779 -0.44102850 0.98663908 0.56073308 30 2 6 7
0.67494669 -0.44083088 0.99108894 0.52237231 30 2 7 7
0.73058099 -0.44109195 1.04404900 0.56569451 31 2 6 6
0.67059714 -0.44087286 1.04462906 0.52669078 31 2 7 6
0.73724457 -0.44107190 0.98746541 0.56059217 31 2 6 7
0.67730769 -0.44085256 0.99190989 0.52226162 31 2 7 7
0.73292185 -0.44110230 1.04486544 0.56552511 32 2 6 6
0.67297955 -0.44089798 1.04543924 0.52658886 32 2 7 6
0.73958171 -0.44108061 0.98829943 0.56042117 32 2 6 7
0.67968879 -0.44087948 0.99273021 0.52216077 32 2 7 7
0.73526701 -0.44108425 1.04568577 0.56533229 33 2 6 6
0.67535405 -0.44086120 1.04625718 0.52643019 33 2 7 6
0.68206555 -0.44085441 0.99356187 0.52201349 33 2 7 7
0.73762653 -0.44105664 1.04650782 0.56513625 34 2 6 6
0.67775503 -0.44084473 1.04707368 0.52629668 34 2 7 6
0.68446530 -0.44084075 0.99439144 0.52188241 34 2 7 7
0.68019410 -0.44087682 1.04788557 0.52621639 35 2 7 6
0.68688667 -0.44083555 0.99521952 0.52176464 35 2 7 7
0.68260808 -0.44080562 1.04870977 0.52603829 36 2 7 6
0.68930084 -0.44077161 0.99606028 0.52159387 36 2 7 7
0.68509017 -0.44085591 1.04952121 0.52598584 37 2 7 6
0.69178221 -0.44082323 0.99687696 0.52154189 37 2 7 7
0.68756614 -0.44084904 1.05033981 0.52588135 38 2 7 6
0.69425845 -0.44082153 0.99770517 0.52144217 38 2 7 7
0.69007564 -0.44088106 1.05115484 0.52582026 39 2 7 6
0.69676702 -0.44085450 0.99852636 0.52138138 39 2 7 7
0.69257985 -0.44085826 1.05197676 0.52570939 40 2 7 6
0.69926965 -0.44083261 0.99935941 0.52127123 40 2 7 7
0.69510292 -0.44083937 1.05279901 0.52560705 41 2 7 6
0.70178953 -0.44081045 1.00019281 0.52116549 41 2 7 7
0.69762168 -0.44076831 1.05362785 0.52545750 42 2 7 6
0.70430614 -0.44073996 1.00103670 0.52101678 42 2 7 7
0.70021766 -0.44084364 1.05444114 0.52545786 43 2 7 6
0.70690333 -0.44081920 1.00184932 0.52102005 43 2 7 7
0.70278500 -0.44080820 1.05526753 0.52535272 44 2 7 6
0.70948315 -0.44081741 1.00267932 0.52094805 44 2 7 7
0.70536725 -0.44076808 1.05609522 0.52524740 45 2 7 6
0.71204580 -0.44073508 1.00352662 0.52080125 45 2 7 7
0.70797672 -0.44075361 1.05692080 0.52517194 46 2 7 6
0.71465517 -0.44072353 1.00435929 0.52072853 46 2 7 7
0.71062826 -0.44080142 1.05774018 0.52516264 47 2 7 6
0.71731797 -0.44079912 1.00517390 0.52074593 47 2 7 7
0.71328582 -0.44082375 1.05856316 0.52513236 48 2 7 6
0.71995984 -0.44078593 1.00600754 0.52068031 48 2 7 7
0.54239174 -0.41768623 0.82681437 0.50893408 48 5 0 7
0.71594857 -0.44081876 1.05938994 0.52507925 49 2 7 6
0.72263315 -0.44080831 1.00683398 0.52065396 49 2 7 7
0.54144522 -0.40118537 0.83641810 0.49198961 49 5 0 7
0.72529367 -0.44076152 1.00767533 0.52056384 50 2 7 7
0.55061132 -0.47081218 0.86150317 0.55326426 50 5 0 6
0.55274980 -0.44021775 0.81646175 0.53207952 50 5 0 7
0.72798208 -0.44074238 1.00851115 0.52050513 51 2 7 7
0.54157857 -0.41320784 0.88655089 0.49518195 51 5 0 6
0.55098147 -0.41984186 0.82813075 0.51115555 51 5 0 7
0.73069140 -0.44073456 1.00934490 0.52046174 52 2 7 7
0.54220460 -0.40285464 0.89172873 0.48474589 52 5 0 6
0.55094094 -0.40722446 0.83567101 0.49820033 52 5 0 7
0.73344592 -0.44079617 1.01016431 0.52049077 53 2 7 7
0.55074447 -0.47361099 0.92223739 0.54616994 53 5 0 5
0.55117436 -0.43343540 0.87969300 0.51558185 53 5 0 6
0.55166081 -0.39798639 0.84141363 0.48871592 53 5 0 7
0.73617230 -0.44075292 1.01100615 0.52042079 54 2 7 7
0.54139556 -0.40912967 0.94323236 0.48231891 54 5 0 5
0.55098700 -0.41894579 0.88661298 0.50097471 54 5 0 6
0.55193624 -0.38664865 0.84827518 0.47707561 54 5 0 7
0.73895996 -0.44081792 1.01182546 0.52046132 55 2 7 7
0.54170438 -0.39597886 0.94817350 0.46929899 55 5 0 5
0.55077804 -0.40426241 0.89361577 0.48617259 55 5 0 6
0.55208476 -0.37465874 0.85548511 0.46476582 55 5 0 7
0.55085447 -0.47425921 0.98194130 0.53723335 56 5 0 4
0.55143352 -0.43300766 0.93742008 0.50596720 56 5 0 5
0.55134927 -0.39333991 0.89903819 0.47516233 56 5 0 6
0.55224063 -0.36263229 0.86271574 0.45241857 56 5 0 7
0.54237866 -0.40883313 0.99643294 0.47358495 57 5 0 4
0.55154482 -0.41865937 0.94273827 0.49176076 57 5 0 5
0.55204069 -0.38293628 0.90424367 0.46467510 57 5 0 6
0.55249397 -0.35098482 0.86974588 0.44046038 57 5 0 7
0.55057700 -0.44009777 0.99073589 0.50400138 58 5 0 4
0.55183089 -0.40516211 0.94779156 0.47839692 58 5 0 5
0.55225772 -0.37012502 0.91046295 0.45176038 58 5 0 6
0.55274534 -0.33926690 0.87681476 0.42842963 58 5 0 7
0.54852759 -0.41178139 0.99748137 0.47645494 59 5 0 4
0.55123055 -0.38685406 0.95435093 0.46026933 59 5 0 5
0.55247816 -0.35726451 0.91670419 0.43879572 59 5 0 6
0.55288875 -0.32699850 0.88417790 0.41583329 59 5 0 7
0.54164932 -0.39527265 1.04927881 0.45246741 60 5 0 3
0.55169589 -0.41368928 0.99791677 0.47831115 60 5 0 4
0.55233118 -0.37756071 0.95809172 0.45106751 60 5 0 5
0.55271502 -0.34442374 0.92293835 0.42585051 60 5 0 6
0.55306671 -0.31483445 0.89148673 0.40334359 60 5 0 7
0.55156422 -0.44007714 1.04525631 0.49530345 61 5 0 3
0.55202953 -0.39905704 1.00180720 0.46407625 61 5 0 4
0.55264500 -0.36399949 0.96316867 0.43763924 61 5 0 5
0.55298658 -0.33169752 0.92912552 0.41302022 61 5 0 6
0.55329313 -0.30284240 0.89870524 0.39102986 61 5 0 7
0.55442660 -0.44005398 1.04609492 0.49528056 62 5 0 3
0.55877799 -0.42161171 0.99793354 0.48601723 62 5 0 4
0.55280775 -0.34957160 0.96851787 0.42335215 62 5 0 5
0.55316588 -0.31846463 0.93552696 0.39967841 62 5 0 6
0.55352316 -0.29082174 0.90594020 0.37868598 62 5 0 7
0.55175498 -0.40485511 1.05074804 0.46162632 63 5 0 3
0.55989734 -0.41139857 1.00090348 0.47608033 63 5 0 4
0.55309441 -0.33575125 0.97367812 0.40966585 63 5 0 5
0.55347274 -0.30581361 0.94168484 0.38692236 63 5 0 6
0.55375781 -0.27878113 0.91318702 0.36632070 63 5 0 7
0.55188358 -0.38735336 1.05348353 0.44489107 64 5 0 3
0.56022496 -0.39652506 1.00484762 0.46160898 64 5 0 4
0.55327345 -0.32130761 0.97903439 0.39536145 64 5 0 5
0.55361062 -0.29228737 0.94821194 0.37328297 64 5 0 6
0.55395080 -0.26651345 0.92055592 0.35372123 64 5 0 7
0.55993945 -0.42001158 1.05078262 0.47611305 65 5 0 3
0.56041841 -0.38081758 1.00896689 0.44632542 65 5 0 4
0.55353023 -0.30723585 0.98427536 0.38142422 65 5 0 5
0.55391368 -0.27953757 0.95441360 0.36042523 65 5 0 6
0.55420104 -0.25447418 0.92780445 0.34135512 65 5 0 7
0.56023720 -0.40343881 1.05341943 0.46026468 66 5 0 3
0.57129348 -0.42698260 1.00016813 0.49123508 66 5 0 4
0.55378075 -0.29309298 0.98953954 0.36741537 66 5 0 5
0.55410370 -0.26619819 0.96086430 0.34697184 66 5 0 6
0.55441697 -0.24224964 0.93515282 0.32879746 66 5 0 7
0.56044257 -0.38623226 1.05612571 0.44380924 67 5 0 3
0.57422897 -0.42701978 1.00100223 0.49126846 67 5 0 4
0.55498976 -0.28402467 0.99321740 0.35843027 67 5 0 5
0.55429530 -0.25283869 0.96732453 0.33349678 67 5 0 6
0.55459594 -0.22983203 0.94260515 0.31604013 67 5 0 7
0.53995553 -0.36973851 0.85899771 0.46974459 67 5 1 7
0.56983097 -0.42700867 1.05254896 0.48279363 68 5 0 3
0.57717300 -0.42703508 1.00184199 0.49128017 68 5 0 4
0.55832011 -0.28621405 0.99337503 0.36059213 68 5 0 5
0.55457749 -0.23990134 0.97360824 0.32044584 68 5 0 6
0.55485354 -0.21775205 0.94987896 0.30362794 68 5 0 7
0.55122981 -0.44024176 0.82087729 0.54371375 68 5 1 7
0.57279046 -0.42704661 1.05338858 0.48282591 69 5 0 3
0.58012826 -0.42704498 1.00268397 0.49128625 69 5 0 4
0.56170803 -0.28865663 0.99345450 0.36300406 69 5 0 5
0.55474048 -0.22635932 0.98014727 0.30678359 69 5 0 6
0.55026109 -0.47550590 0.86561975 0.56993335 69 5 1 6
0.55501164 -0.20520254 0.95740389 0.29073191 69 5 0 7
0.55418674 -0.44025560 0.82171902 0.54371703 69 5 1 7
0.57575622 -0.42704818 1.05423319 0.48282298 70 5 0 3
0.58309301 -0.42704022 1.00353009 0.49127769 70 5 0 4
0.56513232 -0.29123892 0.99349130 0.36555374 70 5 0 5
0.55501039 -0.21332837 0.98647234 0.29363489 70 5 0 6
0.54298772 -0.37701581 0.90962404 0.46848878 70 5 1 6
0.55527567 -0.19312233 0.96468017 0.27831602 70 5 0 7
0.55166181 -0.39398030 0.84814601 0.49514601 70 5 1 7
0.57876740 -0.42708773 1.05510999 0.48287413 71 5 0 3
0.58608428 -0.42696084 1.00442632 0.49121404 71 5 0 4
0.56856855 -0.29371621 0.99359136 0.36801603 71 5 0 5
0.55636732 -0.20552845 0.99062463 0.28577593 71 5 0 6
0.55112048 -0.42632347 0.88890189 0.51927012 71 5 1 6
0.55552180 -0.18087616 0.97206998 0.26574457 71 5 0 7
0.55179598 -0.36993865 0.86231419 0.46991804 71 5 1 7
0.58176167 -0.42701887 1.05598426 0.48281404 72 5 0 3
0.58910546 -0.42705120 1.00527360 0.49130824 72 5 0 4
0.57197846 -0.29604591 0.99372587 0.37032497 72 5 0 5
0.54162240 -0.36675700 0.96493900 0.44957602 72 5 1 5
0.55972676 -0.20754815 0.99063698 0.28781092 72 5 0 6
0.55164673 -0.40262994 0.90015204 0.49486205 72 5 1 6
0.55575102 -0.16858318 0.97947495 0.25311655 72 5 0 7
0.55237271 -0.34970201 0.87436710 0.44867551 72 5 1 7
0.58476795 -0.42699923 1.05684460 0.48279527 73 5 0 3
0.59211678 -0.42706120 1.00612961 0.49131858 73 5 0 4
0.57542964 -0.29857038 0.99379254 0.37282115 73 5 0 5
0.55124284 -0.43981274 0.94185845 0.52343357 73 5 1 5
0.56303005 -0.20927561 0.99076620 0.28954536 73 5 0 6
0.55213641 -0.37866696 0.91151261 0.47016981 73 5 1 6
0.55590764 -0.15598170 0.98703875 0.24016444 73 5 0 7
0.55279666 -0.32824479 0.88708793 0.42614549 73 5 1 7
0.58778820 -0.42701881 1.05769690 0.48281100 74 5 0 3
0.59600127 -0.43203791 1.00594564 0.49615926 74 5 0 4
0.57891716 -0.30124771 0.99380843 0.37546578 74 5 0 5
0.55163637 -0.41095352 0.95217486 0.49423641 74 5 1 5
0.56640322 -0.21131595 0.99076133 0.29159209 74 5 0 6
0.55246968 -0.35327201 0.92349700 0.44399837 74 5 1 6
0.55847189 -0.15428364 0.98879665 0.23840703 74 5 0 7
0.55316309 -0.30635076 0.90004727 0.40315270 74 5 1 7
0.59081210 -0.42700240 1.05855166 0.48279071 75 5 0 3
0.59904021 -0.43209975 1.00678612 0.49621579 75 5 0 4
0.55027484 -0.44013249 0.99859098 0.51435345 75 5 1 4
0.58234957 -0.30358727 0.99392893 0.37777424 75 5 0 5
0.55167175 -0.37825220 0.96374821 0.46115083 75 5 1 5
0.56972733 -0.21308261 0.99087075 0.29336092 75 5 0 6
0.55282241 -0.32812163 0.93537274 0.41807547 75 5 1 6
0.56173435 -0.15572147 0.98888483 0.23986837 75 5 0 7
0.55355890 -0.28474395 0.91284688 0.38045800 75 5 1 7
0.59465788 -0.43204898 1.05885835 0.48761195 76 5 0 3
0.60347823 -0.44010347 1.00596938 0.50400066 76 5 0 4
0.55331591 -0.44014463 0.99944513 0.51434571 76 5 1 4
0.58578166 -0.30587546 0.99406547 0.38003084 76 5 0 5
0.55233267 -0.35249394 0.97304550 0.43508312 76 5 1 5
0.57308198 -0.21496139 0.99093310 0.29524156 76 5 0 6
0.55334521 -0.30464455 0.94651498 0.39387318 76 5 1 6
0.56503327 -0.15729542 0.98890078 0.24146810 76 5 0 7
0.55394007 -0.26306086 0.92568852 0.35768041 76 5 1 7
0.59770113 -0.43201516 1.05971521 0.48757368 77 5 0 3
0.60653064 -0.44010849 1.00682210 0.50400090 77 5 0 4
0.55636666 -0.44014492 1.00030251 0.51432478 77 5 1 4
0.58923172 -0.30820703 0.99418889 0.38232979 77 5 0 5
0.55304834 -0.32741213 0.98212077 0.40969694 77 5 1 5
0.57645680 -0.21690012 0.99097075 0.29718179 77 5 0 6
0.55370724 -0.27971620 0.95829284 0.36817351 77 5 1 6
0.56830969 -0.15873839 0.98898706 0.24293217 77 5 0 7
0.55429921 -0.24124880 0.93860170 0.33476484 77 5 1 7
0.60205960 -0.44008428 1.05969632 0.49528584 78 5 0 3
0.55262874 -0.44013406 1.05433877 0.50524974 78 5 1 3
0.60959381 -0.44011423 1.00767534 0.50400150 78 5 0 4
0.55340790 -0.36363226 1.01808396 0.43831328 78 5 1 4
0.59268981 -0.31052882 0.99431606 0.38461864 78 5 0 5
0.55351296 -0.29970043 0.99205741 0.38164884 78 5 1 5
0.57981661 -0.21872739 0.99105596 0.29900888 78 5 0 6
0.55414276 -0.25556403 0.96973078 0.34327075 78 5 1 6
0.57159567 -0.16019473 0.98906700 0.24440905 78 5 0 7
0.55465716 -0.21949066 0.95148552 0.31190330 78 5 1 7
0.55569993 -0.44012256 1.05519708 0.50521457 79 5 1 3
0.61266749 -0.44011998 1.00852937 0.50400186 79 5 0 4
0.56001065 -0.40865506 1.00898425 0.48300377 79 5 1 4
0.59627287 -0.31345298 0.99425571 0.38750398 79 5 0 5
0.55622738 -0.29639684 0.99399795 0.37828156 79 5 1 5
0.58317423 -0.22050560 0.99116260 0.30078587 79 5 0 6
0.55459519 -0.23166343 0.98105866 0.31862459 79 5 1 6
0.57490650 -0.16173290 0.98910426 0.24596921 79 5 0 7
0.55506503 -0.19821697 0.96410216 0.28954762 79 5 1 7
0.61575165 -0.44012666 1.00938405 0.50400293 80 5 0 4
0.56037744 -0.37461931 1.01736999 0.44917411 80 5 1 4
0.59976087 -0.31582636 0.99436840 0.38984343 80 5 0 5
0.55946261 -0.29863398 0.99412438 0.38051629 80 5 1 5
0.58658830 -0.22251854 0.99117138 0.30279914 80 5 0 6
0.55499573 -0.20738217 0.99255336 0.29358375 80 5 1 6
0.57821946 -0.16325077 0.98915320 0.24750778 80 5 0 7
0.55546780 -0.17698160 0.97669810 0.26722962 80 5 1 7
0.61884282 -0.44011593 1.01024322 0.50398690 81 5 0 4
0.56068313 -0.34003715 1.02587564 0.41479909 81 5 1 4
0.60324994 -0.31815387 0.99449629 0.39213729 81 5 0 5
0.56275291 -0.30135963 0.99409190 0.38324404 81 5 1 5
0.58997887 -0.22437960 0.99124486 0.30465874 81 5 0 6
0.55858216 -0.21284391 0.99102268 0.29917872 81 5 1 6
0.58153359 -0.16474441 0.98921593 0.24902080 81 5 0 7
0.55590209 -0.15609382 0.98910244 0.24527384 81 5 1 7
0.62194970 -0.44013859 1.01109626 0.50400323 82 5 0 4
0.57073114 -0.42712728 1.00748197 0.50127238 82 5 1 4
0.60678349 -0.32066207 0.99456855 0.39461008 82 5 0 5
0.56600488 -0.30357324 0.99422824 0.38545299 82 5 1 5
0.59336690 -0.22619085 0.99134010 0.30646768 82 5 0 6
0.56177500 -0.21456251 0.99113242 0.30091688 82 5 1 6
0.58484718 -0.16620654 0.98929630 0.25050083 82 5 0 7
0.55906951 -0.15759459 0.98913789 0.24681501 82 5 1 7
0.62506265 -0.44014169 1.01195421 0.50400043 83 5 0 4
0.57383563 -0.42711260 1.00834819 0.50123006 83 5 1 4
0.61030355 -0.32304951 0.99467939 0.39696315 83 5 0 5
0.56926632 -0.30578995 0.99436464 0.38766417 83 5 1 5
0.59679226 -0.22814458 0.99137624 0.30842003 83 5 0 6
0.56498525 -0.21637373 0.99120266 0.30274943 83 5 1 6
0.58820761 -0.16784886 0.98928159 0.25216550 83 5 0 7
0.56223884 -0.15905980 0.98919412 0.24831775 83 5 1 7
0.62818021 -0.44011905 1.01281833 0.50397247 84 5 0 4
0.57695026 -0.42711282 1.00921207 0.50120169 84 5 1 4
0.61384054 -0.32547526 0.99477907 0.39935419 84 5 0 5
0.57253906 -0.30803049 0.99449429 0.38989860 84 5 1 5
0.60019257 -0.22994144 0.99147911 0.31021380 84 5 0 6
0.56821284 -0.21827702 0.99123364 0.30467585 84 5 1 6
0.59152802 -0.16928456 0.98937768 0.25361732 84 5 0 7
0.56542099 -0.16057903 0.98922159 0.24987613 84 5 1 7
0.63131192 -0.44012611 1.01367703 0.50397336 85 5 0 4
0.58006983 -0.42706813 1.01008680 0.50112790 85 5 1 4
0.61739003 -0.32791702 0.99487454 0.40176114 85 5 0 5
0.57585725 -0.31065511 0.99449919 0.39252073 85 5 1 5
0.60361513 -0.23180929 0.99155289 0.31207895 85 5 0 6
0.57142842 -0.22000366 0.99134298 0.30641937 85 5 1 6
0.59486427 -0.17076315 0.98945171 0.25511277 85 5 0 7
0.56859760 -0.16200444 0.98930195 0.25133502 85 5 1 7
0.63445385 -0.44014275 1.01453447 0.50398356 86 5 0 4
0.58320695 -0.42713723 1.01093725 0.50116640 86 5 1 4
0.62094796 -0.33035466 0.99497205 0.40416411 86 5 0 5
0.57916814 -0.31310851 0.99456116 0.39496896 86 5 1 5
0.60702949 -0.23360313 0.99165851 0.31386921 86 5 0 6
0.57465460 -0.22176346 0.99143877 0.30819622 86 5 1 6
0.59820873 -0.17225126 0.98952141 0.25661761 86 5 0 7
0.57178023 -0.16343105 0.98938267 0.25279424 86 5 1 7
0.55142404 -0.44037066 0.82555581 0.55527914 86 5 2 7
0.63903850 -0.44015739 1.01581938 0.50402617 87 5 0 4
0.58777298 -0.42713847 1.01222919 0.50115645 87 5 1 4
0.62619055 -0.33418787 0.99505489 0.40798140 87 5 0 5
0.58397416 -0.31651775 0.99473244 0.39840186 87 5 1 5
0.61206759 -0.23654917 0.99169644 0.31684920 87 5 0 6
0.57937112 -0.22457869 0.99149091 0.31107700 87 5 1 6
0.60309355 -0.17452854 0.98958425 0.25895801 87 5 0 7
0.57641649 -0.16564422 0.98944438 0.25509498 87 5 1 7
0.55601293 -0.44036840 0.82687295 0.55522537 87 5 2 7
0.64408313 -0.44014023 1.01632383 0.50558853 88 5 0 4
0.59302891 -0.43211985 1.01165496 0.50752276 88 5 1 4
0.63095661 -0.33472520 0.99519963 0.41006544 88 5 0 5
0.58846880 -0.31723414 0.99483803 0.40054736 88 5 1 5
0.61638464 -0.23661240 0.99180277 0.31843662 88 5 0 6
0.58348315 -0.22474036 0.99158038 0.31267092 88 5 1 6
0.55405162 -0.44032697 0.88796710 0.54594660 88 5 2 6
0.60713045 -0.17431618 0.98965831 0.26025531 88 5 0 7
0.58028936 -0.16551260 0.98950415 0.25639817 88 5 1 7
0.55499108 -0.18984701 0.97051909 0.28791270 88 5 2 7
0.64838067 -0.44017219 1.01698671 0.50662285 89 5 0 4
0.59719818 -0.43222802 1.01231333 0.50852150 89 5 1 4
0.63535231 -0.33654328 0.99518530 0.41285309 89 5 0 5
0.59250569 -0.31880140 0.99489516 0.40302542 89 5 1 5
0.55168580 -0.44028630 0.94726045 0.53652817 89 5 2 5
0.62037986 -0.23758222 0.99183828 0.32037908 89 5 0 6
0.58723636 -0.22563121 0.99165095 0.31448367 89 5 1 6
0.55816779 -0.44033833 0.88848986 0.54677165 89 5 2 6
0.61089717 -0.17488297 0.98969369 0.26179388 89 5 0 7
0.58386969 -0.16605842 0.98955694 0.25787365 89 5 1 7
0.55655865 -0.11538273 1.01353809 0.20891392 89 5 2 7
0.65211171 -0.44021727 1.01774261 0.50715601 90 5 0 4
0.60158128 -0.44025489 1.01131914 0.51692051 90 5 1 4
0.63925426 -0.33818516 0.99538040 0.41495875 90 5 0 5
0.59620045 -0.32078595 0.99496571 0.40545309 90 5 1 5
0.55531647 -0.44033572 0.94799270 0.53693712 90 5 2 5
0.62411766 -0.23903183 0.99188308 0.32230532 90 5 0 6
0.59076295 -0.22711268 0.99166941 0.31642914 90 5 1 6
0.55703288 -0.10542460 1.04161137 0.19485071 90 5 2 6
0.61447170 -0.17592579 0.98974193 0.26332194 90 5 0 7
0.58728096 -0.16715066 0.98956994 0.25944144 90 5 1 7
0.56087726 -0.15853068 0.98946004 0.25556672 90 5 2 7
0.65524467 -0.44020907 1.01846593 0.50737816 91 5 0 4
0.60468927 -0.44026368 1.01204682 0.51711589 91 5 1 4
0.55215535 -0.44032020 1.00537654 0.52723449 91 5 2 4
0.64267906 -0.34007730 0.99548340 0.41705796 91 5 0 5
0.59938521 -0.32257647 0.99508337 0.40744907 91 5 1 5
0.55840662 -0.44036274 0.94870704 0.53710890 91 5 2 5
0.62735753 -0.24037215 0.99198834 0.32387021 91 5 0 6
0.59383876 -0.22850354 0.99173937 0.31804463 91 5 1 6
0.56149037 -0.21612368 0.99192266 0.31144598 91 5 2 6
0.61762425 -0.17705118 0.98978841 0.26468503 91 5 0 7
0.59028339 -0.16824862 0.98961935 0.26077622 91 5 1 7
0.56373434 -0.15956175 0.98953565 0.25683051 91 5 2 7
0.65337597 -0.44022792 1.01903450 0.50515616 92 5 0 4
0.60305970 -0.44026220 1.01260250 0.51505715 92 5 1 4
0.55073161 -0.44029829 1.00591322 0.52535444 92 5 2 4
0.64182810 -0.34307647 0.99537794 0.41781640 92 5 0 5
0.59852133 -0.32522198 0.99502987 0.40806040 92 5 1 5
0.55695516 -0.44032909 0.94945129 0.53517526 92 5 2 5
0.62688946 -0.24295692 0.99198518 0.32429335 92 5 0 6
0.59338271 -0.23094397 0.99173436 0.31848186 92 5 1 6
0.56105483 -0.21927031 0.99153049 0.31278697 92 5 2 6
0.61744254 -0.17957850 0.98977078 0.26510185 92 5 0 7
0.59009406 -0.17060738 0.98962529 0.26115286 92 5 1 7
0.56354789 -0.16187811 0.98949638 0.25729674 92 5 2 7
0.64873448 -0.44020403 1.01963624 0.50150549 93 5 0 4
0.59817388 -0.43220206 1.01494331 0.50373197 93 5 1 4
0.63852968 -0.34642898 0.99534499 0.41754454 93 5 0 5
0.59537575 -0.32813906 0.99504792 0.40767285 93 5 1 5
0.55300573 -0.44031048 0.95029058 0.53210533 93 5 2 5
0.62437345 -0.24634494 0.99198342 0.32416540 93 5 0 6
0.59097214 -0.23408996 0.99173770 0.31836224 93 5 1 6
0.55942932 -0.44035051 0.89201516 0.54223847 93 5 2 6
0.61540999 -0.18292630 0.98980716 0.26500306 93 5 0 7
0.58814980 -0.17383130 0.98962374 0.26113841 93 5 1 7
0.56167111 -0.16486336 0.98952268 0.25724071 93 5 2 7
0.64283979 -0.44014441 1.02025118 0.49718592 94 5 0 4
0.59281653 -0.43215175 1.01551572 0.49978697 94 5 1 4
0.63409453 -0.34998103 0.99532630 0.41682643 94 5 0 5
0.59118162 -0.33133296 0.99504257 0.40697107 94 5 1 5
0.62090993 -0.25016182 0.99195090 0.32382828 94 5 0 6
0.58765485 -0.23761241 0.99171638 0.31802517 94 5 1 6
0.55430360 -0.44029603 0.89331706 0.53851420 94 5 2 6
0.61254492 -0.18680357 0.98978324 0.26480377 94 5 0 7
0.58538875 -0.17747145 0.98960500 0.26094422 94 5 1 7
0.63635152 -0.44005344 1.02084540 0.49255985 95 5 0 4
0.58659545 -0.42706237 1.01718001 0.49058807 95 5 1 4
0.62905645 -0.35349619 0.99532510 0.41578075 95 5 0 5
0.58644332 -0.33458351 0.99502170 0.40605825 95 5 1 5
0.61691860 -0.25400397 0.99195163 0.32322028 95 5 0 6
0.58385875 -0.24125046 0.99168498 0.31752777 95 5 1 6
0.60921385 -0.19080678 0.98977298 0.26443207 95 5 0 7
0.58219108 -0.18124911 0.98958771 0.26060578 95 5 1 7
0.55520586 -0.44021689 0.83501293 0.54482412 95 5 2 7
0.62963775 -0.43996871 1.02141435 0.48784500 96 5 0 4
0.58050984 -0.42697059 1.01771254 0.48626027 96 5 1 4
0.62373487 -0.35694313 0.99533370 0.41455621 96 5 0 5
0.58146042 -0.33796090 0.99494683 0.40517065 96 5 1 5
0.61270926 -0.25801212 0.99188911 0.32265869 96 5 0 6
0.57982991 -0.24484553 0.99167819 0.31687254 96 5 1 6
0.60567030 -0.19490823 0.98973477 0.26403409 96 5 0 7
0.57878189 -0.18504212 0.98958535 0.26016194 96 5 1 7
0.62287607 -0.43986984 1.02196658 0.48310840 97 5 0 4
0.57437399 -0.42682921 1.01823761 0.48187193 97 5 1 4
0.61831249 -0.36043989 0.99530879 0.41335613 97 5 0 5
0.57635981 -0.34111307 0.99492868 0.40403277 97 5 1 5
0.60836725 -0.26186469 0.99188241 0.32190564 97 5 0 6
0.57570210 -0.24839353 0.99168277 0.31613570 97 5 1 6
0.60201422 -0.19894419 0.98972991 0.26352715 97 5 0 7
0.57527943 -0.18880790 0.98959679 0.25964922 97 5 1 7
0.61615821 -0.43977681 1.02250256 0.47841057 98 5 0 4
0.56827633 -0.42676067 1.01873274 0.47758186 98 5 1 4
0.61287674 -0.36404564 0.99523098 0.41228044 98 5 0 5
0.57123578 -0.34433562 0.99486960 0.40298185 98 5 1 5
0.60399552 -0.26573024 0.99185484 0.32117203 98 5 0 6
0.57155017 -0.25202090 0.99163774 0.31548631 98 5 1 6
0.59833053 -0.20301124 0.98969644 0.26305139 98 5 0 7
0.57175418 -0.19266673 0.98954517 0.25923312 98 5 1 7
0.60952835 -0.43970008 1.02302384 0.47378051 99 5 0 4
0.56063675 -0.34311392 1.03807715 0.39047918 99 5 1 4
0.60744868 -0.36764394 0.99513778 0.41123429 99 5 0 5
0.56611617 -0.34742602 0.99483771 0.40183195 99 5 1 5
0.59961945 -0.26954303 0.99183251 0.32041192 99 5 0 6
0.56739591 -0.25554816 0.99162076 0.31475866 99 5 1 6
0.59462582 -0.20695355 0.98971330 0.26246792 99 5 0 7
0.56822247 -0.19644011 0.98952567 0.25874582 99 5 1 7
0.60300266 -0.43960380 1.02354069 0.46919167 100 5 0 4
0.55644229 -0.43963234 1.01674904 0.48203585 100 5 1 4
0.60202870 -0.37107586 0.99508056 0.41007096 100 5 0 5
0.56090735 -0.34524225 0.99654513 0.39540270 100 5 1 5
0.59527708 -0.27344543 0.99175530 0.31977707 100 5 0 6
0.56326045 -0.25903191 0.99160698 0.31401980 100 5 1 6
0.59095798 -0.21102297 0.98964511 0.26204282 100 5 0 7
0.56470144 -0.20012215 0.98954051 0.25819030 100 5 1 7
0.59583561 -0.43147066 1.02576479 0.45691639 101 5 0 4
0.55048275 -0.43955233 1.01721231 0.47788370 101 5 1 4
0.59661007 -0.37415021 0.99512107 0.40860739 101 5 0 5
0.55701086 -0.43958098 0.96605073 0.48643383 101 5 1 5
0.59094266 -0.27718867 0.99172862 0.31902307 101 5 0 6
0.55643355 -0.15831330 1.03779772 0.20624349 101 5 1 6
0.58728429 -0.21489018 0.98966711 0.26144531 101 5 0 7
0.56120775 -0.20388046 0.98949621 0.25774616 101 5 1 7
0.58921492 -0.42643012 1.02733312 0.44769555 102 5 0 4
0.59125936 -0.37739054 0.99509490 0.40735906 102 5 0 5
0.55110072 -0.43947271 0.96696483 0.48221192 102 5 1 5
0.58663154 -0.28083306 0.99172763 0.31821218 102 5 0 6
0.55462281 -0.23695913 1.00444156 0.28281030 102 5 1 6
0.58365590 -0.21887472 0.98960920 0.26100218 102 5 0 7
0.55625879 -0.15870316 1.01676854 0.20611490 102 5 1 7
0.58317696 -0.42629741 1.02785042 0.44326797 103 5 0 4
0.58598223 -0.38090735 0.99496721 0.40643403 103 5 0 5
0.58236404 -0.28453389 0.99168708 0.31749985 103 5 0 6
0.55194534 -0.43944653 0.91575484 0.48676044 103 5 1 6
0.58004853 -0.22279417 0.98956892 0.26052865 103 5 0 7
0.55516963 -0.25518137 0.96485848 0.30279744 103 5 1 7
0.57665119 -0.42622854 1.02840167 0.43851873 104 5 0 4
0.58016559 -0.38430022 0.99496789 0.40498847 104 5 0 5
0.57768479 -0.28853241 0.99166365 0.31667024 104 5 0 6
0.57608897 -0.22702513 0.98955895 0.25994468 104 5 0 7
0.55242170 -0.43938661 0.86374561 0.49100888 104 5 1 7
0.57459909 -0.42616370 1.02950594 0.43516314 105 5 0 4
0.57870808 -0.38900111 0.99494100 0.40623403 105 5 0 5
0.57693593 -0.29288990 0.99170402 0.31761357 105 5 0 6
0.57580259 -0.23124331 0.98960465 0.26077533 105 5 0 7
0.55047469 -0.43929974 0.86589184 0.48763779 105 5 1 7
