ply
format ascii 1.0
element vertex 384
property double x
property double y
property double z
end_header
1.05569832362 -0.437999908423 1.1991968955
0.944106021356 -0.437999919381 1.18447858905
0.859777705928 -0.437999922523 1.17335622517
0.793809441189 -0.437999907845 1.16465542818
0.740793827786 -0.437999878484 1.15766299781
0.697257138352 -0.437999903139 1.15192079585
0.660865758066 -0.437999902089 1.14712100538
0.629994050514 -0.437999892719 1.14304922147
1.03768912633 -0.437999913827 1.14045959183
0.930537986679 -0.437999884176 1.13403115261
0.84915731345 -0.437999899313 1.12914880051
0.78524810976 -0.437999910478 1.12531463155
0.733729388538 -0.437999895699 1.12222381064
0.69131630299 -0.437999923776 1.1196792856
0.655790761075 -0.43799991444 1.11754796181
0.625601059154 -0.437999911986 1.1157367586
0.800628811604 -0.333999949884 1.06566875725
0.91744303092 -0.437999905189 1.08534233974
0.838863353807 -0.437999906248 1.08629999174
0.776922020751 -0.437999901602 1.08705487081
0.726840501844 -0.437999929185 1.08766522068
0.685510170737 -0.437999920404 1.08816891231
0.650821588293 -0.437999901684 1.08859165882
0.621292862839 -0.437999916846 1.08895152895
0.790000069083 -0.333452546805 1.03467889815
0.904796733623 -0.437999919528 1.03832173591
0.828880969786 -0.43799991695 1.0447481007
0.768821644036 -0.437999912806 1.04983219781
0.720120660024 -0.437999929003 1.05395479957
0.679834243043 -0.437999936462 1.05736509651
0.645954996457 -0.437999919449 1.06023301527
0.617067043096 -0.437999935401 1.06267841898
0.790000017151 -0.338052361168 1.00378986148
0.892576442144 -0.437999937899 0.992885050444
0.819196184962 -0.437999899374 1.00443512674
0.760937885359 -0.437999907308 1.01360500403
0.713563763222 -0.437999949582 1.02106170975
0.674284168473 -0.437999943364 1.02724433147
0.641187818908 -0.437999928205 1.03245370775
0.612921243002 -0.437999930608 1.03690287688
0.972491322022 -0.437999968883 0.92781560438
0.880760969515 -0.437999948769 0.948953577901
0.809795963968 -0.437999915481 0.965306468792
0.753262200485 -0.437999914679 0.978333881619
0.707163928244 -0.437999958138 0.988956580838
0.668855808019 -0.437999942228 0.997784150173
0.636517054988 -0.437999955134 1.0052361619
0.608853223892 -0.437999931566 1.01161090429
0.957710377338 -0.437999944043 0.879607498154
0.869330513858 -0.437999942751 0.906453749714
0.664054946883 -0.325152252449 0.979999883821
0.656726620777 -0.347597956772 0.979999883085
0.648557161859 -0.372619980662 0.979999878318
0.639392918907 -0.4006888758 0.979999875645
0.629040409606 -0.432397224946 0.979999877852
0.604860821892 -0.437999950207 0.986789015031
0.634331224878 -0.265988522646 0.979999883976
0.628253210706 -0.279063150522 0.979999889727
0.621709573985 -0.293139485261 0.979999880131
0.614644618456 -0.30833718677 0.979999881601
0.606993493654 -0.324795837049 0.97999988018
0.598680078533 -0.342679142668 0.979999882968
0.589614505868 -0.362180471187 0.979999881095
0.579689853598 -0.383529808752 0.979999877755
0.773528839294 -1.42170988161 2.7799999152
0.599971619973 -1.30886790178 2.77999988374
0.4317832424 -1.19951666286 2.77999997289
0.268718363063 -1.09349652419 2.7799999754
0.110546388191 -0.990657614391 2.77999998081
-0.0429496564462 -0.890858873655 2.78000000672
-0.191974100123 -0.793967446969 2.78000004333
-0.336719485596 -0.699858075639 2.77999997009
0.717344161675 -1.65551211973 2.77999979709
0.528985209427 -1.5284138511 2.77999984796
0.346973296457 -1.40559831448 2.77999984971
0.170992901182 -1.28685283566 2.7800001038
0.000749159110566 -1.17197801703 2.78000004074
-0.164033956889 -1.06078786507 2.78000000297
-0.323615024933 -0.953107883439 2.77999996881
-0.47823657166 -0.848774449445 2.77999997266
0.64971738506 -1.93692915541 2.78000001978
0.443814721358 -1.7918281138 2.77999976856
0.24553063881 -1.65209632878 2.7799999366
0.0544499178061 -1.51744080948 2.78000012043
-0.129812897461 -1.38758968553 2.78000007009
-0.307616304415 -1.26229048023 2.77999995245
-0.479294209468 -1.14130811422 2.78000000593
-0.645157657473 -1.02442309218 2.77999991445
0.542016597484 -1.95000047562 2.51529473227
0.345555434246 -1.95000044639 2.63825351001
0.122382325138 -1.95000006183 2.77793014656
-0.0869246899765 -1.79715972325 2.77999997082
-0.287645482125 -1.64823619025 2.7799999804
-0.480609348877 -1.50506790034 2.78000002414
-0.666257406916 -1.36732752025 2.7800000603
-0.844997877524 -1.23471204348 2.77999997985
0.446505124152 -1.95000047253 2.2734959639
0.257648548133 -1.95000033456 2.37379524482
0.0449582884655 -1.95000040724 2.48675243977
-0.196381098979 -1.95000008301 2.61492456243
-0.472576341551 -1.95000005998 2.76160839793
-0.693080581999 -1.80324877353 2.78000003085
-0.894987696529 -1.6438390805 2.78000001151
-1.08856067164 -1.49100960725 2.78000016149
0.362446300421 -1.95000050838 2.06069097725
0.18086848905 -1.95000044208 2.142811023
-0.0220888232112 -1.95000055213 2.23460022006
-0.250437652757 -1.95000039311 2.33787280002
-0.509261019246 -1.95000021993 2.45492773618
-0.805095592238 -1.94999998211 2.58872126515
-1.14649175072 -1.94999999022 2.74312053196
-1.39195706188 -1.81026923158 2.78000009661
0.287896740993 -1.95000040129 1.87195974836
0.113228470696 -1.95000031835 1.93932337915
-0.0807141336918 -1.95000046914 2.01412056691
-0.297307577904 -1.9500003605 2.09765331368
-0.540766159877 -1.95000025746 2.19154704091
-0.81641856486 -1.94999998496 2.29785677106
-1.13110320141 -1.95000023708 2.41922013273
-1.49374126702 -1.95000005576 2.55907733785
0.221329194188 -1.95000047108 1.70343605075
0.0531880817921 -1.95000026288 1.7586984474
-0.132410668665 -1.95000028402 1.81969866684
-0.338334826012 -1.95000044358 1.88737922248
-0.568116488564 -1.95000041357 1.9629008981
-0.826156584352 -1.95000018309 2.04771013084
-1.1180099453 -1.95000036637 2.1436328005
-1.45078777712 -1.94999985939 2.25300578707
0.594485851422 -0.430000004924 1.16403545132
0.565186992317 -0.429999998539 1.16718868095
1.14625664886 -1.94999993046 1.92066744507
0.942863133094 -1.94999982771 1.94255722379
0.745456139435 -1.94999997611 1.96380284947
0.55377509196 -1.94999993852 1.98443213141
0.367574469979 -1.94999996446 2.00447162726
0.186622548529 -1.94999990729 2.02394619725
0.587581810091 -0.430000017753 1.13521681471
0.559999990541 -0.432281521776 1.1395788834
1.10378757956 -1.9499999354 1.71359284475
0.90429345193 -1.94999986232 1.73817326491
0.710577862736 -1.94999991712 1.76204174277
0.522393273844 -1.94999983122 1.78522866505
0.339506158039 -1.94999997058 1.80776296011
0.161695918746 -1.9499999805 1.82967165871
0.577975562517 -0.425000020052 1.10620438537
0.556510864099 -0.437999976934 1.11321614103
1.06268434876 -1.94999992327 1.51317795038
0.866946244973 -1.94999980956 1.54026738563
0.676789312203 -1.94999978542 1.56658443412
0.491978177577 -1.95000005114 1.59216173291
0.312290489808 -1.95000008775 1.61702989331
0.137516170246 -1.94999992997 1.64121800027
0.571653367834 -0.425000040202 1.07981445648
0.550401165192 -0.437999965513 1.08569910255
0.568000025859 -0.574924444005 1.1106946535
0.830764368908 -1.94999996954 1.34853647699
0.644040247592 -1.94999994128 1.37714012378
0.462485788412 -1.95000003047 1.40495187082
0.285889216139 -1.95000001014 1.43200411337
0.114050215126 -1.94999987232 1.4583275355
0.568000012103 -0.429628134551 1.05430367013
0.550000005034 -0.451155472094 1.05939555299
0.568000021639 -0.602132935244 1.07093197159
0.79569399842 -1.94999978292 1.1626958767
0.612283372224 -1.94999995126 1.19343542281
0.433874756162 -1.94999984103 1.22333660765
0.260266301971 -1.95000002134 1.25243331575
0.091266851008 -1.95000008633 1.28075754609
0.562144849109 -0.430000016561 1.02903874335
0.56800001733 -0.511863967384 1.02741965907
0.568000013884 -0.632467169372 1.02660129199
0.761684817685 -1.94999987461 0.982478328631
0.581474283901 -1.9499999268 1.01521342304
0.406106155873 -1.9499998177 1.04706889954
0.235387838949 -1.94999997329 1.07807973989
0.0691368159109 -1.95000005582 1.10827910049
0.559999999257 -0.437705364287 1.00300204564
0.568000032946 -0.531209141942 0.991397193614
0.568000034879 -0.666498727498 0.97686745988
0.72868929697 -1.94999980975 0.8076324061
0.551571179394 -1.94999989351 0.84223229207
0.379143315294 -1.94999988026 0.875915950866
0.211221844335 -1.94999991391 0.908719284014
0.047632350071 -1.95000008471 0.940676353949
0.554265587873 -0.437999975661 0.978412474899
0.560000013155 -0.529584500736 0.958391680287
0.568000027905 -0.704947211915 0.920678567348
0.696662817257 -1.94999978298 0.637921473527
0.522534680322 -1.94999995289 0.674264187914
0.352951666832 -1.94999991044 0.709658321075
0.187738123587 -1.94999999423 0.744140464465
0.0267273173928 -1.95000007678 0.777745443617
1.34800010043 0.316851312222 1.2387182931
1.34800014219 0.228272227876 1.23627052603
1.3480000988 0.142279744906 1.23389421539
1.34800013905 0.0587622539655 1.23158631904
1.34800016466 -0.0223856131835 1.22934390078
1.34800004024 -0.101263290341 1.22716417912
1.34800009118 -0.177964719503 1.22504463919
1.34800004017 -0.252578735051 1.22298275704
1.34800008703 0.319423130488 1.15596298496
1.3480001736 0.229865464879 1.15472844568
1.34800013421 0.142950300587 1.15353031415
1.34800019114 0.0585624626181 1.15236703644
1.34800013726 -0.0234067510363 1.15123708264
1.34800010949 -0.103059820036 1.15013906086
1.34800011397 -0.180493553085 1.14907163752
1.34800013714 -0.255799436749 1.14803354943
1.34800008917 0.322050979913 1.07140499035
1.34800012063 0.231492847611 1.07143697581
1.34800014228 0.143635019226 1.07146800705
1.3480001749 0.0583584973527 1.07149812719
1.34800011318 -0.0244488441483 1.07152737029
1.34800009129 -0.104892691152 1.07155578074
1.34800007104 -0.18307281565 1.07158339175
1.34800007774 -0.259083450458 1.07161023795
1.34800003926 0.324736675438 0.984984756467
1.34800004592 0.233155513483 0.986339233603
1.34800011542 0.144334352482 0.987652887494
1.34800010641 0.0581502300381 0.988927543648
1.34800004738 -0.0255125483233 0.990164911786
1.34800010293 -0.106763018628 0.991366596498
1.34800010137 -0.185704046291 0.992534127544
1.3480000703 -0.262432705181 0.993668939288
1.14700649299 0.219912129583 0.930461089903
1.34799998801 0.234854639095 0.899375818643
1.34800009977 0.145048787966 0.902028194162
1.34800007217 0.0579375406618 0.904601006502
1.34800010203 -0.0265985281694 0.907097752852
1.3480001217 -0.108671962341 0.909521767478
1.1577929494 -0.166294575056 0.940223076019
1.13688866795 -0.220679327785 0.945016432265
1.14282502827 0.219754330471 0.864232411609
1.34800006023 0.236591484278 0.810484659321
1.13255526701 0.0799025098519 0.873122158949
1.34800009895 0.0577202916157 0.818461881912
1.34800004276 -0.0277075123415 0.82227177465
1.13991120624 -0.106881977302 0.879552261505
1.1325622087 -0.165358454066 0.884058425443
1.12021750916 -0.219595523271 0.88966591516
1.13860902569 0.219595193552 0.797457808481
1.34698172166 0.2379368065 0.719999962215
1.12738802575 0.0788608333994 0.810012224804
0.915121899519 -0.0266115804871 0.894123697137
1.34800011194 -0.0288402178089 0.735630464812
1.1511460778 -0.108579104676 0.812550493382
0.998369935649 -0.150868787848 0.871071769752
1.00586386084 -0.196645342989 0.871071733351
1.15390277174 0.230107495166 0.719999993776
1.16467119128 0.162274697233 0.719999978421
0.914583528725 0.0139367318688 0.850518307217
0.914591921221 -0.0268172683689 0.853600185324
1.14555362128 -0.0469684637213 0.74496246345
1.13949795343 -0.109837796382 0.75261132929
0.662783771846 -0.109926433664 0.980000041924
0.664554502685 -0.12108069918 0.98000004069
1.34800012426 -0.220371217603 1.19339668691
1.34800004423 -0.292384077855 1.20770303839
1.34800008433 -0.37033907996 1.22318990349
1.30029020163 -0.438000014245 1.22725762188
1.11722267868 -0.438000039475 1.19128836735
0.998583381173 -0.438000002498 1.16797801192
0.915449866037 -0.438000005573 1.15164387016
0.853957750252 -0.438000019396 1.13956185073
1.34800007806 -0.224969860566 1.12093512363
1.34800009983 -0.29807507353 1.13251453389
1.34800015733 -0.377291786545 1.14506197127
1.27875061477 -0.438000042827 1.14734270384
1.1025079514 -0.438000056924 1.12867466697
0.987652944314 -0.438000025716 1.11650894845
0.906869707408 -0.438000011559 1.10795219499
0.846955449948 -0.438000011961 1.10160593541
1.34800013003 -0.229681351107 1.04669551499
1.34800010666 -0.303911381404 1.05540607758
1.34800009987 -0.384429516262 1.06485452143
1.25788108573 -0.438000064893 1.06991384958
1.08815562145 -0.438000065452 1.06760310077
0.976945284717 -0.438000032741 1.06608900969
0.898438733308 -0.438000020998 1.0650201709
0.840059303727 -0.438000017307 1.06422535632
1.34800019147 -0.234509889151 0.970611581874
1.34800017382 -0.309898657264 0.976303186837
1.34800007768 -0.391759799288 0.982483441018
1.23765078436 -0.438000063931 0.994856834796
1.07415243619 -0.438000050796 1.00801739601
0.78999999469 -0.323425508204 1.02223983395
0.890153097386 -0.438000042731 1.02282815509
0.833266892074 -0.438000012849 1.02740712536
1.12664312106 -0.221141338873 0.931072103425
1.34800015428 -0.31604280963 0.895127474594
1.34800012881 -0.399290544978 0.897859967731
1.21803082885 -0.438000057768 0.922064331986
1.06048591612 -0.438000069563 0.94986397652
0.789999978155 -0.327299393881 0.993959077422
0.882009015848 -0.4380000297 0.981357180735
0.826575936945 -0.438000042975 0.991138645013
1.12297955852 -0.224464192935 0.874572633897
1.13781202044 -0.282837806609 0.869879196064
1.12936743628 -0.342426887765 0.871558256276
0.784158670873 -0.266709509672 0.96706809333
1.04714385946 -0.438000011097 0.893091848135
0.946092979146 -0.438000020337 0.920812743542
0.874002955717 -0.438000034732 0.940588919513
0.819984117606 -0.438000043303 0.955407697466
0.977741705959 -0.214268523727 0.871071649791
0.971743678793 -0.255002588836 0.871071651871
0.965402207264 -0.298069503289 0.871071630107
0.781385324169 -0.268284361282 0.941565013897
1.03411505697 -0.437999991529 0.837652341477
0.936211773748 -0.438000058539 0.874284158464
0.866131415053 -0.438000038659 0.900505661518
0.813489273303 -0.438000040298 0.920202421671
0.662013267341 -0.18470850457 0.979999961247
0.659914392574 -0.194660675824 0.979999958896
0.657721626556 -0.205058008614 0.979999960433
0.655428545815 -0.215931060531 0.979999955852
0.653028086609 -0.227313239289 0.9799999538
0.650512527053 -0.239241160228 0.979999954197
0.647873396183 -0.251755044734 0.979999951526
0.64510133586 -0.264899136546 0.979999958772
-0.41881447193 -1.94999986256 1.57527780429
-0.62349806086 -1.94999991119 1.63815565048
-0.863767685078 -1.94999982962 1.71196533865
-1.14978732727 -1.94999965367 1.7998292024
-1.49599931527 -1.9499997655 1.9061839191
-1.92363864298 -1.94999973074 2.03755270878
-1.950000178 -1.62645004996 1.99315397236
-1.95000025332 -1.33497364281 1.94586110108
-0.435911603977 -1.95000002847 1.3929001102
-0.64409897708 -1.95000002361 1.44169259292
-0.888889926249 -1.95000004048 1.49906378891
-1.1808682254 -1.94999991697 1.56749418269
-1.5351335346 -1.94999980127 1.65052266661
-1.95000030639 -1.93178334163 1.74610880574
-1.95000030831 -1.59298919222 1.7155071437
-1.95000031325 -1.30564126869 1.68955237502
-0.453339831252 -1.94999994335 1.20698928731
-0.665131427542 -1.94999989592 1.24111278065
-0.914585097063 -1.94999984872 1.28130432184
-1.21272742166 -1.95000007661 1.32934049952
-1.57535385221 -1.9499998694 1.38776623656
-1.95000022174 -1.89361083146 1.4471147271
-1.95000019074 -1.55992042445 1.44111492715
-1.94999997823 -1.27662658516 1.43602123451
-0.471109005309 -1.94999990258 1.01744174109
-0.686609325689 -1.94999988115 1.03628553203
-0.940873450015 -1.94999982976 1.05851891108
-1.24539427363 -1.94999985932 1.0851468345
-1.61670606092 -1.94999991919 1.11761509505
-1.94999991323 -1.85592234511 1.15191313437
-1.95000013205 -1.52723707985 1.16992053132
-1.94999989131 -1.24792476651 1.1852229375
-0.489229133159 -1.94999970679 0.824149716344
-0.708546808581 -1.94999970725 0.827074481022
-0.967775643884 -1.94999982339 0.830531475974
-1.27890048102 -1.94999989892 0.834680548004
-1.6592385986 -1.94999992836 0.839752636635
-1.9499998629 -1.81870908166 0.860432372273
-1.94999995188 -1.49493235493 0.901868369025
-1.94999996765 -1.21953073575 0.937113460465
-0.507710875812 -1.94999967902 0.627001123921
-0.730959006233 -1.94999972665 0.61333734058
-0.995313327731 -1.94999969322 0.597157692737
-1.31327852119 -1.9499998892 0.577696775986
-1.70300261013 -1.94999979086 0.553843956542
-1.94999988016 -1.78196197148 0.572602476559
-1.95000004569 -1.46299993157 0.636904116227
-1.95000007285 -1.19143950557 0.691649762094
-0.52656512219 -1.94999972971 0.425879356414
-0.753861360803 -1.94999972663 0.394925635585
-1.02350946015 -1.94999965703 0.35820435982
-1.34856280682 -1.94999976369 0.313937822161
-1.74805273635 -1.94999981538 0.259534355535
-1.95000007832 -1.74567238574 0.288355220472
-1.95000010555 -1.43143323727 0.374974715006
-1.95000002298 -1.16364617839 0.448789783315
-0.545803160063 -1.94999968711 0.220663136276
-0.777270151455 -1.94999974069 0.171684307723
-1.052387901 -1.94999966337 0.113468950194
-1.38478990125 -1.94999977374 0.043132081892
-1.70723285311 -1.87832110133 -9.72093046059e-08
-1.95000028619 -1.70983171516 0.00762413596881
-1.95000018923 -1.400226056 0.116028309665
-1.95000028891 -1.13614624022 0.208492195332
