ply
format ascii 1.0
element vertex 384
property double x
property double y
property double z
end_header
0.942645381842 -0.43800001759 1.27492389797
0.816990765427 -0.438000017225 1.24382925854
0.724262509014 -0.438000033718 1.22088262155
0.653017849311 -0.43800005072 1.20325234088
0.588818951826 -0.429999945204 1.18421868859
0.550732475935 -0.438000007604 1.17794066503
1.46116772309 -1.94999993691 1.99799758814
1.23259256309 -1.94999998133 1.94143412747
0.923796721195 -0.438000022353 1.20747849811
0.804183355731 -0.438000000102 1.18709795622
0.715201395579 -0.438000034901 1.17193661848
0.646419887971 -0.438000030602 1.16021715827
0.584074236902 -0.429999955726 1.14707358205
0.550000068839 -0.441868779686 1.14500748092
1.44102319333 -1.9499999157 1.7720152624
1.21718621495 -1.95000004872 1.73387644475
0.906065049954 -0.438000029339 1.14402995742
0.79202636633 -0.438000020875 1.133247461
0.706542766522 -0.438000016563 1.12516488302
0.640082428946 -0.438000028135 1.11888098109
0.574852504978 -0.424999971981 1.10961851263
0.550000039581 -0.446702399509 1.11243534155
1.42147497535 -1.94999998679 1.55272179678
1.20220075931 -1.95000010347 1.53198918426
0.889353878593 -0.438000012387 1.08423320835
0.78047130327 -0.437999975701 1.08206373449
0.698260444509 -0.438000020993 1.08042570363
0.633990338795 -0.438000038589 1.07914513491
0.57052900114 -0.424999970797 1.07577103008
0.550000056094 -0.451564330689 1.07967285197
0.568000020721 -0.544792857462 1.09516060093
0.568000008667 -0.636152454943 1.10998641386
0.873577628199 -0.437999999698 1.02778181529
0.76947473342 -0.437999983476 1.03335350531
0.690330348337 -0.437999994071 1.03758939319
0.628129604174 -0.438000030353 1.04091844265
0.567999977795 -0.426844222841 1.04315838627
0.550000054183 -0.456454736494 1.04671831043
0.568000010778 -0.551128335807 1.05405687612
0.568000015752 -0.643884041509 1.06219063693
0.85865999371 -0.4379999995 0.974402677157
0.758997023793 -0.437999980746 0.986941686154
0.682730569557 -0.438000007769 0.996537083677
0.622487320161 -0.438000030946 1.00411653566
0.566695688473 -0.429999969102 1.01102174041
0.550000058312 -0.461373901236 1.01357003032
0.568000004349 -0.557506337065 1.01267730859
0.568000033456 -0.65167609208 1.01402122082
0.596428294929 -0.312557218236 0.97999983476
0.589119852975 -0.337376576511 0.979999830171
0.581046201488 -0.364794422125 0.979999833955
0.572080602529 -0.395241428296 0.979999830193
0.562066549734 -0.429248903688 0.979999829493
0.559999999805 -0.480643323514 0.977425798849
0.559999994101 -0.549724706074 0.97341877562
0.568000040425 -0.659529271691 0.965473766648
0.560000016586 -0.297025256502 0.966524714702
0.560000019299 -0.322225410737 0.963269781859
0.559999994299 -0.351999692719 0.959424047522
0.559999990922 -0.387717845179 0.954810578183
0.56000001656 -0.431357107678 0.949173985315
0.560000030252 -0.485880990561 0.942131503429
0.560000019284 -0.555942000606 0.93308220334
0.568000001302 -0.667444221599 0.916543833906
0.466304646198 -1.32053273333 2.77999993631
0.297123925102 -1.22802758256 2.78000003344
0.129151956627 -1.13618327034 2.77999998774
-0.0376241489532 -1.04499283181 2.77999993501
-0.203217120108 -0.954449318962 2.77999989441
-0.367639510492 -0.864545875502 2.77999987877
-0.530903750936 -0.775275777287 2.78000000719
-0.69302188948 -0.686632230104 2.77999994185
0.416389831394 -1.54657330793 2.77999996211
0.232082812177 -1.44480682783 2.78000001922
0.0492114200606 -1.34383296265 2.77999997427
-0.132241020328 -1.24364250268 2.77999982424
-0.312291024826 -1.14422655295 2.77999986463
-0.49095475238 -1.04557602063 2.77999987082
-0.668248236629 -0.947682186664 2.78000001936
-0.844187001361 -0.850536214392 2.77999996114
0.356490962652 -1.81782698301 2.78000002952
0.154087994345 -1.70476014147 2.77999989478
-0.0465820777774 -1.59266156158 2.78000000331
-0.245541356058 -1.48151844036 2.77999986849
-0.442811714146 -1.37131895802 2.77999991631
-0.638414456932 -1.26205090255 2.77999981538
-0.83237072587 -1.15370266561 2.77999978092
-1.02470140019 -1.04626277641 2.78000001861
0.280589104367 -1.95000028543 2.60878855976
0.0665167571815 -1.95000000621 2.71374487122
-0.163463232501 -1.89626639317 2.77999989486
-0.383665296633 -1.77151193636 2.77999984142
-0.601794249416 -1.64793201144 2.77999980602
-0.817879279001 -1.52551015936 2.77999985564
-1.03194904908 -1.40423019623 2.78000003817
-1.24403124782 -1.28407587616 2.77999986962
0.208304975613 -1.95000017747 2.34386578626
0.0056693909146 -1.95000018656 2.42559917924
-0.222215677341 -1.95000012347 2.51751694123
-0.480383206595 -1.95000024572 2.62164931189
-0.775298641108 -1.94999997645 2.74060373487
-1.04103731462 -1.85311224373 2.77999992496
-1.27986307518 -1.71543288316 2.77999986484
-1.51620484635 -1.57918584231 2.78000004199
0.14537388151 -1.95000022517 2.11322218597
-0.0468745230987 -1.95000027316 2.17677479507
-0.261349075551 -1.95000006783 2.2476746785
-0.502140755766 -1.95000003065 2.32727444978
-0.774409980041 -1.94999995336 2.41727989846
-1.08476090006 -1.9500000245 2.51987430002
-1.4417837421 -1.95000005766 2.63789726687
-1.85686235231 -1.94999986295 2.77511191134
0.0900908191614 -1.95000014503 1.91060866189
-0.092706065089 -1.95000014636 1.95973690341
-0.295213791985 -1.95000011783 2.01416259085
-0.520802105059 -1.94999997704 2.07479133536
-0.773655416247 -1.94999992034 2.14274782078
-1.05903448306 -1.94999976887 2.21944584187
-1.38364716771 -1.95000013666 2.30668846659
-1.75618022735 -1.94999990902 2.40680984199
0.0411414521602 -1.95000006356 1.73120824883
-0.13303428451 -1.95000010496 1.76876041063
-0.324806709127 -1.95000015049 1.81010640549
-0.53698428762 -1.95000008688 1.8558516977
-0.773006746863 -1.94999991727 1.90673789063
-1.03713316602 -1.9499999133 1.96368333116
-1.3347008478 -1.94999989857 2.02783867712
-1.67249022021 -1.95000002484 2.10066583517
1.40453745599 -1.95000027547 2.06335107875
1.17781482984 -1.95000029657 2.06215480464
0.959053691716 -1.95000022162 2.06100048317
0.747842018759 -1.95000031587 2.0598860939
0.543795547435 -1.95000030005 2.05880944759
0.346555790079 -1.9500004314 2.05776880165
0.155787725288 -1.95000029571 2.05676214853
-0.0288220139147 -1.95000030763 2.05578807485
1.36941176084 -1.95000005814 1.83592968631
1.14808864436 -1.95000015994 1.8387373088
0.934376177134 -1.95000013977 1.84144833082
0.727888519651 -1.95000019753 1.84406773905
0.528265350598 -1.95000017259 1.84660003028
0.335169992289 -1.95000028266 1.84904957574
0.148287386065 -1.95000018313 1.85142021327
-0.0326775619578 -1.95000023994 1.8537158549
1.33576359362 -1.95000020511 1.61807330592
1.11959128138 -1.95000007191 1.6245553189
0.910701537724 -1.9499999357 1.63081895856
0.70873249776 -1.94999999599 1.63687514487
0.513345770929 -1.95000023716 1.64273401926
0.324224671156 -1.95000035067 1.64840497069
0.14107261532 -1.95000020966 1.65389684834
-0.0363886019612 -1.95000024685 1.65921814456
1.30350126864 -1.95000004356 1.4091906766
1.09224815637 -1.95000018125 1.41904779213
0.887969986129 -1.94999999256 1.42857937897
0.690327171077 -1.95000010905 1.43780143218
0.499001449196 -1.95000015821 1.44672871347
0.313694742889 -1.95000023194 1.45537515296
0.134127431512 -1.95000008946 1.46375374063
-0.0399630864828 -1.95000020006 1.47187684085
0.568000019833 -0.684475849172 1.08646424233
1.0659903829 -1.95000013634 1.22169811201
0.866126193014 -1.95000007052 1.23423800306
0.672629164427 -1.95000010069 1.24637841765
0.485199774462 -1.95000020022 1.25813814494
0.303557005685 -1.95000028689 1.26953480576
0.127436969984 -1.95000019229 1.28058493484
-0.043408439469 -1.95000022635 1.2913041397
0.568000021344 -0.699936523897 1.03223021914
1.04075474502 -1.95000029069 1.03203002549
0.845119124394 -1.95000009234 1.04734100388
0.655598528504 -1.95000023848 1.06217341368
0.471910510591 -1.95000022592 1.07654934513
0.293789946392 -1.9500003347 1.09048955585
0.120987500841 -1.95000015302 1.10401354736
-0.046731490468 -1.95000008936 1.11713969716
0.568000040539 -0.715738288591 0.976799811256
1.01648254873 -1.95000027493 0.849603577784
0.824901659735 -1.95000023026 0.867468676706
0.639198157964 -1.95000024537 0.884785699674
0.459105628651 -1.950000098 0.901579505489
0.284373600449 -1.95000024589 0.917873419173
0.114766216653 -1.95000016679 0.933689470708
-0.0499386972471 -1.95000011391 0.949048360558
0.568000018798 -0.731892442168 0.920133004039
0.993119686253 -1.95000017205 0.67401183696
0.805430018695 -1.9500002004 0.694232305027
0.623393734202 -1.95000029258 0.713843703613
0.446759154192 -1.9500001921 0.732873189125
0.275289410398 -1.95000029542 0.751346215019
0.1087612208 -1.95000019661 0.769286903018
-0.053035974631 -1.95000008132 0.786717906968
1.32741826917 0.438000050696 1.35580933083
1.34800012014 0.338886826271 1.36310119917
1.34800011488 0.2316842482 1.36298246285
1.34800016186 0.128092663583 1.36286774475
1.34800017523 0.027932619657 1.36275681523
1.34800017264 -0.0689636036579 1.36264949489
1.34800019228 -0.162752979523 1.36254562359
1.34800012405 -0.253582563346 1.36244499888
1.33777736887 0.438000078683 1.25595261977
1.34800014443 0.332966711929 1.26019891372
1.34800020491 0.225890055204 1.26184257198
1.34800006359 0.122419267312 1.26343082761
1.34800001103 0.0223753148013 1.26496650368
1.34800016781 -0.0744092910564 1.26645220223
1.34800013187 -0.168091307095 1.2678902259
1.34800019718 -0.258817563665 1.26928290432
1.34800008513 0.437792597042 1.15381936304
1.34800006692 0.327049305479 1.15734447304
1.34800019665 0.220098477327 1.16074888668
1.3480001619 0.11674846626 1.16403865572
1.34800005141 0.016820492434 1.16721948479
1.34800007402 -0.0798526116645 1.17029672752
1.34800016914 -0.173427358148 1.17327535652
1.34800012464 -0.26405033378 1.17616000482
1.34800017175 0.431746980012 1.04919131049
1.34800011316 0.321134706357 1.05453788435
1.34800020481 0.214309552119 1.05970141127
1.34800016523 0.111080191736 1.06469112417
1.3480001779 0.0112681341081 1.06951566043
1.3480001325 -0.0852935633869 1.07418308354
1.34800005904 -0.178761113582 1.07870094583
1.34800003094 -0.269280895932 1.08307632664
1.34800026389 0.425704225534 0.944612744827
1.34800022691 0.315222885869 0.951779078066
1.34800017211 0.20852325906 0.958700112768
1.34800019032 0.105414468428 0.96538822562
1.34800015325 0.00571821164904 0.971854988432
1.34800016245 -0.0907321509342 0.978111205242
1.34800010805 -0.184092601893 0.984166999194
1.34800016528 -0.274509299137 0.990031842164
1.0058129595 0.232943333624 0.907172456498
1.13903817346 0.219811178926 0.888040407326
1.34800009857 0.202739597105 0.857744972701
1.13503575273 0.055994190146 0.901984747464
1.34800021485 0.000170749743639 0.874237449348
1.3480001639 -0.0961683753526 0.882081074144
1.1324963659 -0.167430495406 0.920560308702
1.1468645317 -0.239893017277 0.924281294735
1.00597168651 0.229188667943 0.840663054355
1.1494538968 0.219613125285 0.805110673681
1.34800009906 0.196958600665 0.756835939903
1.14438182357 0.0534795657239 0.822680467693
1.34800012533 -0.00537427699242 0.776663050292
1.14160506218 -0.0998154979314 0.83840843582
0.589984236015 -0.113102206823 0.979999861345
0.597298249123 -0.132084406144 0.979999859722
1.00613047713 0.225433814871 0.774149796014
1.15973374269 0.21922993268 0.719999839852
1.18460219925 0.14172065108 0.719999789409
0.894238530905 0.000661387423478 0.839870231122
1.23670915199 -0.0206859529542 0.719999817817
1.13867971263 -0.104012646328 0.764560553754
0.559999964193 -0.110735296839 0.97201191246
0.559999972455 -0.125334934169 0.973684913521
1.34800016051 -0.198422294121 1.3241257407
1.34800007661 -0.285443869992 1.34447514104
1.34800004918 -0.379650100391 1.36650464341
1.21578596195 -0.438000048122 1.33903131797
0.794000053888 -0.343140898986 1.18567531035
0.871546390741 -0.4379999941 1.23197410573
0.781008255463 -0.438000021275 1.20381709578
0.715175667895 -0.438000009311 1.1833434082
1.34800010284 -0.206526100756 1.23460973564
1.34800010494 -0.294086359077 1.25145217978
1.34800002577 -0.388894470407 1.26968874987
1.19096869919 -0.438000031409 1.2454125154
0.989342844734 -0.43800001324 1.20211420758
0.862030403805 -0.438000066461 1.17477440652
0.774339703212 -0.438000037571 1.15594319179
0.710265014708 -0.437999998066 1.14218341429
1.3480000281 -0.214668799401 1.14466411218
1.34800006326 -0.302771970611 1.15796495626
1.34800008373 -0.398186909755 1.17236964824
1.16751812388 -0.438000040895 1.15694904604
0.975400777078 -0.438000033899 1.13413626547
0.852848485775 -0.438000015754 1.11958391518
0.767869461245 -0.438000031572 1.10949316948
0.705481042367 -0.438000022232 1.10208491854
1.34800004955 -0.222850676538 1.05428577826
1.34800004837 -0.311501040864 1.06401001131
1.34800000781 -0.407527742038 1.07454336838
1.14532428893 -0.438000046576 1.0732264582
0.962044153779 -0.438000045387 1.06901288166
0.843983606797 -0.438000007477 1.06629868736
0.761588830436 -0.438000017343 1.06440444778
0.700818843317 -0.438000017679 1.06300735705
1.34800002582 -0.231072009021 0.963471585243
1.3480000945 -0.320273902981 0.96958381578
1.34799999228 -0.416917393845 0.976205967086
1.12428878592 -0.438000041295 0.993873595385
0.949236819796 -0.438000029245 1.00656795612
0.835419572942 -0.438000006806 1.01482171668
0.755489614356 -0.438000009262 1.0206180516
0.696273884671 -0.438000040116 1.02491224074
1.12171934519 -0.222834028424 0.909730609812
1.34800017401 -0.329090884247 0.874682801216
0.780656919847 -0.271444389397 0.968288550564
1.10432320894 -0.438000014463 0.918557068802
0.936945647816 -0.438000024714 0.946639581857
0.827141347016 -0.438000027509 0.965062485572
0.749564088573 -0.438000026058 0.978078354185
0.691841749804 -0.438000041669 0.987762976046
0.592121502161 -0.185805481032 0.979999960446
0.591242600655 -0.202911419818 0.979999960137
0.59029969321 -0.221262797264 0.979999963858
0.589285562981 -0.241000777578 0.979999962103
0.588191793746 -0.262288678676 0.97999996143
0.587008630027 -0.285316525931 0.979999959732
0.585724621604 -0.31030671022 0.979999963258
0.584326374141 -0.337521287894 0.979999953582
0.560000065715 -0.184485641491 0.974032842985
0.560000065714 -0.198732427731 0.973258437264
0.560000065442 -0.214177134284 0.972418916861
0.560000059328 -0.230977477667 0.971505710847
0.56000005747 -0.249320137968 0.97050866833
0.560000066664 -0.269427722 0.96941568675
0.560000053449 -0.291567809882 0.968212233345
0.560000070622 -0.31606502529 0.966880643826
-0.580016493715 -1.94999994278 1.53228072012
-0.788336827816 -1.94999992303 1.57329810063
-1.03206113597 -1.94999998321 1.6212863883
-1.32105286514 -1.95000006645 1.67818764246
-1.66921442023 -1.95000009899 1.74673917271
-1.9499998759 -1.83745335772 1.77976726303
-1.94999991638 -1.52371209529 1.71772145437
-1.95000003598 -1.25812005764 1.66519770487
-0.575658911083 -1.95000000797 1.348131849
-0.784993658153 -1.94999991431 1.37490012539
-1.03015659197 -1.95000000427 1.40624988714
-1.32120661735 -1.95000021841 1.44346739035
-1.67235630808 -1.95000001809 1.48836997324
-1.95000007061 -1.83202997603 1.50898405377
-1.95000015642 -1.5169463938 1.46921710965
-1.9500002393 -1.25047339728 1.4355853467
-0.571248254045 -1.94999986384 1.16174405713
-0.781606633003 -1.94999993381 1.17389862684
-1.02822473659 -1.94999979249 1.18814828227
-1.32136231594 -1.94999985313 1.20508585683
-1.67555233257 -1.94999996019 1.22555106077
-1.95000004476 -1.82653825535 1.23479721676
-1.95000018924 -1.51010267033 1.21785175282
-1.9500001777 -1.24274539727 1.20353447723
-0.566783689308 -1.94999981761 0.973076322076
-0.778174844065 -1.94999991277 0.970242010623
-1.02626537721 -1.94999990336 0.966915640027
-1.32152073115 -1.94999979139 0.96295689074
-1.67880375845 -1.94999978938 0.958166478953
-1.95000007833 -1.82097711651 0.957142250916
-1.95000008743 -1.50317961846 0.963575762127
-1.95000020675 -1.23493493429 0.969006121768
-0.562264225298 -1.94999988098 0.782086519663
-0.774697497468 -1.9500000257 0.763877307094
-1.02427766276 -1.94999998346 0.742483982294
-1.3216816994 -1.94999977802 0.716991341644
-1.68211252276 -1.94999995178 0.686096181201
-1.94999998139 -1.815345089 0.675952942947
-1.95000007411 -1.49617599119 0.706338304132
-1.95000018 -1.22704060763 0.731960380753
-0.55768876879 -1.94999989166 0.588731519403
-0.771173488605 -1.94999993849 0.554750179932
-1.02226092784 -1.94999996657 0.51478344822
-1.3218455433 -1.95000011469 0.467097180362
-1.685479827 -1.95000015735 0.409215854284
-1.9500002459 -1.80964118446 0.391161284907
-1.95000010144 -1.48909034177 0.446087319885
-1.94999991204 -1.21906097123 0.492356566853
-0.553056327719 -1.9499999719 0.392967086177
-0.767602061381 -1.94999997959 0.342804733272
-1.02021468053 -1.95000005948 0.283742048063
-1.32201166867 -1.95000004698 0.213179723089
-1.68890701022 -1.95000019578 0.127396890097
-1.95000013413 -1.80386345037 0.102697775729
-1.95000006316 -1.48192115541 0.182769568765
-1.9500000756 -1.21099496369 0.250152888256
-0.548365755387 -1.94999995267 0.194747956975
-0.763982146534 -1.94999996599 0.127983655332
-1.01813805347 -1.9499999607 0.0492858343427
-1.25677232381 -1.87482841517 -1.75729772955e-08
-1.43237855848 -1.70871009125 -1.48988956505e-07
-1.60835184143 -1.54224411102 -1.36836838083e-07
-1.78469344406 -1.37542956925 -7.84911280416e-08
-1.95000016975 -1.20284092515 0.00530689042546
