ply
format ascii 1.0
element vertex 384
property double x
property double y
property double z
end_header
1.20509338209 -0.44119821492 1.40116631208
1.04140139237 -0.440703141437 1.35866728604
0.92082344329 -0.440303794056 1.32734796644
0.828350881918 -0.439993409847 1.30332718149
0.755216695179 -0.439778147642 1.28434187507
0.695924920729 -0.439636002045 1.26896298205
0.646860074555 -0.439519891924 1.25623732261
0.605578436667 -0.439408384509 1.24552480614
1.18031613931 -0.441105201873 1.31284985995
1.02467373088 -0.44058699599 1.28452731321
0.909157263465 -0.44022304481 1.26351321069
0.819994513621 -0.439942912074 1.24729348089
0.749127937592 -0.439760880387 1.23441511158
0.69142042102 -0.43962437809 1.22393187416
0.643502320552 -0.439500446163 1.21522358951
0.599192574994 -0.431337369732 1.2045800347
1.15694626312 -0.440957288531 1.23000071078
1.00886508741 -0.440490056256 1.2143651052
0.898041955007 -0.440149748816 1.20266579187
0.812015222436 -0.43992135042 1.1935929049
0.743267027953 -0.439745995986 1.18634406547
0.687062817847 -0.439606225194 1.18041874538
0.640242902299 -0.439471999649 1.17547841824
0.596836588593 -0.431336399437 1.16894194415
1.13498693342 -0.440814607076 1.15217981291
0.993891618549 -0.440404883816 1.14786010166
0.887480387931 -0.440113179871 1.14460516772
0.804358784043 -0.439900651486 1.14206519706
0.737619853761 -0.439731649024 1.14002611149
0.682839234806 -0.439573923259 1.13834919921
0.637083162847 -0.439444396382 1.13694891302
0.594532038251 -0.431303812106 1.13430013146
1.11440370774 -0.440719604281 1.07894544378
0.805285227983 -0.335596550565 1.08252686771
0.877419209298 -0.44010109032 1.08912720814
0.797020459005 -0.43989400475 1.09258170297
0.7321538103 -0.439694050355 1.09536577286
0.678755518226 -0.439544615213 1.09765903236
0.634019632341 -0.439419379291 1.09958026954
0.589972342294 -0.426237726815 1.10025774849
1.09499167539 -0.440628775678 1.00988736362
0.790602717752 -0.33208295917 1.04285290191
0.867795414148 -0.440090333811 1.03605503915
0.789930829006 -0.439853880402 1.0450222036
0.726883212382 -0.439660466379 1.05228295494
0.674803546719 -0.439516345656 1.05828090808
0.631047083433 -0.439395264501 1.06332028803
0.587850349566 -0.42625377888 1.06804244229
1.07676026517 -0.440595933787 0.944636313618
0.786623923544 -0.334881524765 1.00417566725
0.858542530623 -0.440050834801 0.985243860118
0.783108895357 -0.439811822108 0.999283774029
0.721795529123 -0.439628087411 1.01069502805
0.670976994692 -0.439488991622 1.02015235361
0.628165413937 -0.439378936887 1.02811920911
0.585761215514 -0.426215330649 1.03670018557
1.05949481379 -0.440558532391 0.882889667137
0.941320932547 -0.440274429242 0.91311103769
0.84966045202 -0.440000791163 0.936558562259
0.776543288006 -0.43977134139 0.955263933156
0.716881344446 -0.439596784761 0.970525521685
0.667276174248 -0.439471543923 0.9832121136
0.62536878184 -0.439366932687 0.993929840106
0.583736614769 -0.426197049108 1.00619518271
0.537335159481 -1.24285849186 2.83393944291
0.368105931298 -1.15124992728 2.83384963299
0.19966087176 -1.06004990531 2.83373410407
0.0319990445458 -0.969268509198 2.83361020822
-0.134879918816 -0.878900188648 2.83346917756
-0.300982968189 -0.788951993646 2.8333287248
-0.466315487868 -0.699421019118 2.83318886278
-0.630882882636 -0.61030441699 2.83304971595
0.487265601251 -1.47257026674 2.83889738288
0.302359289462 -1.37180997094 2.83876674105
0.118392230179 -1.271555413 2.83862872813
-0.0646398195433 -1.1718032776 2.83848201652
-0.24674417426 -1.07255664999 2.83833593721
-0.42792846532 -0.973812434096 2.83819188757
-0.608187279549 -0.875556133169 2.8380268365
-0.787535167326 -0.777796426673 2.83786270197
0.42685120048 -1.74972806203 2.84486715306
0.223068795394 -1.63781175051 2.84470624359
0.0204298255007 -1.52650730963 2.84452900149
-0.18107386391 -1.41582444171 2.8443506028
-0.381452063086 -1.30576006174 2.84417349339
-0.580713999669 -1.19630861586 2.84399714555
-0.778869041955 -1.08746516738 2.84382177496
-0.975933054006 -0.97922913419 2.84365607369
0.351981770053 -1.8858544964 2.67432353379
0.125569567142 -1.96489508086 2.85200263755
-0.0999587954174 -1.8398245202 2.85178000952
-0.324128711331 -1.7156530166 2.85168541643
-0.546895445521 -1.59216731891 2.85151190745
-0.768292388629 -1.46944096233 2.85133949009
-0.988324288705 -1.34745957491 2.85115795263
-1.20698697381 -1.22620908176 2.85095304925
0.281791978954 -1.89018305719 2.40863383425
0.076678753268 -1.88673575331 2.48702484018
-0.153280011546 -1.88287991348 2.5749177789
-0.412889184938 -1.87852668615 2.67414329442
-0.754925289105 -1.95229507176 2.86084675758
-1.00395578054 -1.81258345436 2.86060702856
-1.25123677591 -1.67381558786 2.86034240275
-1.49680347402 -1.53601010618 2.86007986802
0.220491963899 -1.89395715042 2.17658928424
0.0257922728267 -1.89094666029 2.23738881483
-0.19085270882 -1.88767583614 2.30508594409
-0.433356170485 -1.88398744553 2.38084795802
-0.706647683711 -1.87983070472 2.46622861613
-1.01700749307 -1.87513600542 2.56320462199
-1.37257452412 -1.86982369903 2.67434367017
-1.87127394072 -1.93626091566 2.87200536685
0.166489199796 -1.89732403149 1.97220378234
-0.0187547585198 -1.89475026336 2.01903104202
-0.223520055261 -1.89196021148 2.07081764767
-0.451015508075 -1.88876571545 2.12831044814
-0.705272157498 -1.88519537802 2.19256632891
-0.991320976069 -1.88119726638 2.26486510059
-1.31557325064 -1.87673176988 2.34684960601
-1.6857837999 -1.87128153791 2.44029672804
0.118553630559 -1.90032398632 1.79079066569
-0.0580493234104 -1.89804283435 1.8263242498
-0.252098641511 -1.89553643388 1.86536818389
-0.466313825355 -1.89276941301 1.90846956339
-0.704010802721 -1.88969924931 1.95629568013
-0.969190254726 -1.88615832578 2.00961130616
-1.26687540852 -1.88207015729 2.06942312395
-1.6036103296 -1.87753237774 2.13711098309
0.576549544765 -0.42807602461 1.26556604384
0.54581251854 -0.44614381728 1.27570788641
1.05978411741 -1.93907332242 2.1586296159
0.841073821065 -1.93926728497 2.15552701439
0.629648545499 -1.93945469846 2.15252770562
0.425150299406 -1.93963599088 2.14962667596
0.227244141718 -1.93981135847 2.14681911486
0.0356207895287 -1.93995820034 2.14408722224
0.570715610474 -0.428122347232 1.22557040896
1.25734250222 -1.93912446936 1.92964215313
1.03625952488 -1.93931636516 1.93041425472
0.822508971129 -1.93950199344 1.93116079413
0.615731963749 -1.93968153294 1.93188296262
0.415592569233 -1.93984618968 1.93257768713
0.221778540348 -1.94000285278 1.93324915119
0.0339967023709 -1.94014583324 1.93389560091
0.565123511692 -0.428151167025 1.18728992423
1.22974241213 -1.93936724113 1.70726735433
1.01371438527 -1.93955112717 1.71169518774
0.804702940182 -1.93972237377 1.71597685217
0.602373961464 -1.9398828665 1.72011976098
0.406413729278 -1.94003835898 1.72413228091
0.216526181984 -1.94018908145 1.7280204725
0.032435080884 -1.94032618847 1.73178679263
0.559777857616 -0.428197066065 1.15062910918
1.20328579038 -1.9396000358 1.49410524196
0.992082761962 -1.93976019134 1.50188705212
0.787608004236 -1.93991937185 1.50942196036
0.589543304735 -1.94007357615 1.51672066092
0.39759189 -1.94022323546 1.52379413853
0.211475011128 -1.94036808322 1.53065254767
0.0309323886882 -1.94049968492 1.53730338199
0.556317619513 -0.431249220937 1.11580367268
1.17789486483 -1.9398047715 1.28959277584
0.971316020581 -1.93996232207 1.30046325063
0.771186952189 -1.940114827 1.31099431164
0.577210311516 -1.94026281371 1.32120164691
0.389106632476 -1.94040641021 1.33109995068
0.206613506173 -1.94054211603 1.3407025249
0.0294836294572 -1.94067554605 1.35002312554
0.554005090459 -0.436229469729 1.08173539044
0.563126228114 -0.543513323942 1.08483609706
0.561487238305 -0.689141036221 1.08999553962
0.755399682944 -1.94030421609 1.12022152447
0.565345809772 -1.94044372966 1.13311153621
0.380939001411 -1.94057879575 1.14561853696
0.201931338142 -1.94070966372 1.15775934369
0.0280887992085 -1.94083852851 1.16954989852
0.549155986478 -0.436264123251 1.04850557551
0.563055695558 -0.556679405334 1.03966795178
0.561447413664 -0.70898577253 1.03007349484
0.740208822252 -1.94048094324 0.936669141551
0.553923445802 -1.94061495243 0.952035282865
0.373071515716 -1.94074502688 0.966953236584
0.197418765631 -1.94087106458 0.981442343941
0.0267438346004 -1.94099537904 0.995520726774
0.546334808176 -0.439923751049 1.01581276967
0.563032448109 -0.570258249634 0.993481082346
0.561397930654 -0.729401838648 0.968343984333
0.725582257324 -1.94065096942 0.759935521142
0.542919245101 -1.94077988745 0.777588111017
0.365487927772 -1.94090535618 0.79473507022
0.193066712381 -1.94102690016 0.811397913969
0.0254460130913 -1.941146924 0.827596537987
1.28009552763 0.429189552364 1.35656966123
1.34940135047 0.368789413761 1.38261673883
1.34937056884 0.271618639102 1.38308761256
1.34934411417 0.177688744679 1.3835440076
1.34932540808 0.0868397216119 1.38398798928
1.34930817443 -0.00107977446443 1.3844179772
1.34927876173 -0.0862084465473 1.38482958827
1.34925203237 -0.168675855173 1.38522898696
1.29056278862 0.429147586244 1.27183899238
1.34938866562 0.362472279239 1.28907357234
1.3493581534 0.265540661535 1.29112766312
1.34933515657 0.171838334789 1.29311506888
1.34931632383 0.0812042275519 1.29503831547
1.34930047573 -0.00651097103908 1.29690026251
1.34927310652 -0.0914455830096 1.29869995285
1.34924653684 -0.173728365181 1.30044343845
1.30127874029 0.429101568584 1.18505091237
1.34937619091 0.356172682545 1.19578897208
1.34934754797 0.259479789386 1.19941785074
1.349324766 0.166003188144 1.20292683828
1.3493088912 0.0755836966981 1.20632209058
1.34929303402 -0.0119281707416 1.20960807963
1.3492657713 -0.096669316664 1.21278805073
1.34924499195 -0.178769005072 1.215869836
1.31209999662 0.428966593203 1.09612625875
1.34938029893 0.349897735616 1.10276246666
1.34935019012 0.253439641686 1.1079571137
1.3493296929 0.160186889356 1.11297968943
1.34931238018 0.0699790570072 1.11783842668
1.34928821184 -0.0173314152319 1.12254063505
1.34926564022 -0.101880486694 1.12709417797
1.34924381404 -0.183797215601 1.13150595406
1.32304337406 0.428750084681 1.00503757214
1.34939706028 0.343645304986 1.00998784644
1.34936890342 0.247420770171 1.01674001682
1.34934819884 0.154388699868 1.02326791638
1.34931579879 0.0643889008706 1.0295835258
1.34928361588 -0.0227208095969 1.0356963592
1.3492612839 -0.107078150195 1.04161570577
1.34924114559 -0.188812688216 1.04735095247
1.34942983556 0.436740510897 0.90887410951
1.34940340556 0.33740525337 0.917464050887
1.34938708127 0.241417597172 0.925763210285
1.34934630437 0.148601408125 0.933791690003
1.34931130877 0.058812415412 0.941557692872
1.34927992242 -0.0280964148093 0.949074234589
1.34925975719 -0.112263016488 0.956352163307
1.34923973476 -0.193815993581 0.963404158812
1.00667607476 0.247402872731 0.91725490507
1.06739900395 0.213582535754 0.905941635875
1.34936867199 0.235419096316 0.835035808314
1.13074556247 0.100091030574 0.902172103267
1.3493035346 0.0532501167563 0.853761324781
1.34927647996 -0.0334582929088 0.862673295215
1.34925616298 -0.117434644786 0.871303029103
1.1555473764 -0.158844444907 0.922726507851
1.00681578778 0.243624038416 0.861322531412
1.07697552674 0.213356319976 0.840660581342
1.34936049519 0.229439898525 0.744550685788
1.13967058759 0.0974990206257 0.83276219076
1.34929909217 0.0477025663751 0.766192196574
1.34927275481 -0.0388064913212 0.776492804469
1.13368224735 -0.0974424098835 0.858024180541
1.1528352542 -0.162113564794 0.859094229384
1.34445123659 -0.125781175761 1.34855974767
1.34431148098 -0.204166771164 1.36739836422
1.34413313107 -0.289060250798 1.38779233325
1.3439182645 -0.381301082009 1.40994455887
1.26226353336 -0.444934432279 1.39894129915
1.08968671631 -0.443490514098 1.3429387617
0.972780962317 -0.442744500944 1.30505784145
0.887910625893 -0.442046617975 1.27751969012
1.3444074488 -0.133489202095 1.2676901738
1.34428506939 -0.212295316507 1.28332944795
1.34411064004 -0.297654169236 1.30025968279
1.34390241312 -0.39041397423 1.31865362349
1.24294652941 -0.444700772954 1.30667001988
1.07761010774 -0.443491504281 1.26912917864
0.964307183723 -0.4426363638 1.24339766562
0.881789079582 -0.441964727571 1.22464778939
1.34437976396 -0.141218839868 1.18660420414
1.34425718102 -0.220446891248 1.19902007955
1.34407533793 -0.306270662594 1.21246323612
1.34391783037 -0.399566602235 1.2270819986
1.22478432875 -0.444598950621 1.21875565632
1.06589619703 -0.443439747697 1.198044962
0.956105457451 -0.442531688152 1.18371719887
0.875861690003 -0.441907219319 1.1732514878
1.34437462294 -0.148970990047 1.10529649505
1.34423827693 -0.228623142946 1.11447018246
1.34411373008 -0.31493148743 1.12441124794
1.34395611955 -0.408757050312 1.13521741325
1.20754411263 -0.444553420148 1.13480138431
1.05447398527 -0.443303138797 1.12956200652
0.948174103978 -0.442438942788 1.12592397763
0.870107854911 -0.441862340774 1.12325891258
1.34436934325 -0.156744866096 1.02376083697
1.14042003291 -0.203879809285 1.039912127
1.34408307211 -0.323601209962 1.03608534169
1.34394243532 -0.417957953863 1.04305349027
1.19071249919 -0.444337636319 1.05452190335
1.04347877928 -0.443177109128 1.06358640584
0.806137334338 -0.337132740186 1.07051496282
0.864495440716 -0.441806289635 1.07460853388
1.34435563982 -0.164539930369 0.941997587487
1.13686797978 -0.209500287758 0.976055404015
1.3440854136 -0.332305914767 0.947490995008
1.34394591101 -0.427194603185 0.950595979005
1.17470737451 -0.444178070708 0.977735724236
1.03290654802 -0.443073713492 0.99997721636
0.78841737172 -0.327061908428 1.03461787906
0.859035124415 -0.441754621145 1.02725012727
1.17512163147 -0.158000883874 0.90270252289
1.10729099582 -0.210351577946 0.919319226824
1.34409325303 -0.341038889597 0.858623501822
1.34392254868 -0.436450124565 0.857849013484
1.15937563987 -0.444021832048 0.904213506715
1.02271349327 -0.442978659559 0.938604686306
0.788374268088 -0.33084740161 0.9985217688
0.853724227802 -0.441710515961 0.981130834265
1.14668648951 -0.161582790897 0.847009847294
1.01418475575 -0.198495472865 0.890977831062
1.00565705571 -0.249527034253 0.891402905988
1.3430709732 -0.4453946641 0.76511331685
0.801976197038 -0.26031275916 0.961261467803
0.785360108271 -0.289855004055 0.965543913574
0.918911944456 -0.442185620706 0.911860250239
0.848550465715 -0.441667527029 0.936202612605
-0.525673095434 -1.93694764928 1.59385102017
-0.741427303879 -1.93596669428 1.63391372621
-0.993733754236 -1.93480713034 1.6807611845
-1.29268758643 -1.93336312638 1.73625578682
-1.65262458293 -1.93164654692 1.80307510777
-1.98229087975 -1.84450661681 1.84693883067
-1.97945567184 -1.51404866222 1.77945868937
-1.97733827157 -1.23478671124 1.72248485153
-0.518701090192 -1.93695795044 1.40320159496
-0.735183207679 -1.93597186802 1.42852141263
-0.988577602446 -1.93480702246 1.45815710687
-1.28917849807 -1.93338704 1.49330882255
-1.65155349712 -1.93166542536 1.53568299859
-1.98236294347 -1.84266437804 1.56288752263
-1.97980774453 -1.51025418793 1.51894522809
-1.97764935267 -1.22946321074 1.48182663317
-0.511641648282 -1.93694501038 1.21044833285
-0.728804476832 -1.93587136714 1.22067655776
-0.983218284877 -1.93461444954 1.23265933157
-1.28542237826 -1.9331856635 1.2468967845
-1.65022532224 -1.93146082425 1.26408339183
-1.98270871256 -1.84100047347 1.27451872281
-1.98009770067 -1.50636444458 1.25471084672
-1.97781807357 -1.22399784508 1.2379932954
-0.504450779805 -1.93681302429 1.0155661428
-0.722319725943 -1.93571604016 1.01037010134
-0.977802520312 -1.93443653578 1.00427689072
-1.28161309876 -1.9329808915 0.99703009559
-1.64880208038 -1.9311836814 0.988272097118
-1.98304479641 -1.83929911009 0.981638104085
-1.98025989596 -1.50233843999 0.98670111559
-1.97788865403 -1.21841185381 0.99096785192
-0.497178263618 -1.93667370942 0.818542816706
-0.715758320299 -1.93555934596 0.797568901948
-0.972316955759 -1.93425635178 0.772950293611
-1.27771628419 -1.93273445243 0.743642462791
-1.64735155762 -1.93089744063 0.708169742733
-1.98329047725 -1.83749860832 0.684158038004
-1.98035448664 -1.49821229383 0.714872004763
-1.97795988197 -1.21275254248 0.740706021355
-0.48984451764 -1.93657617941 0.619332924423
-0.709149412159 -1.93545575545 0.58221390917
-0.966782210722 -1.93410521717 0.538613292203
-1.27384083012 -1.93257272047 0.486635282374
-1.64598120716 -1.9307027022 0.423642524231
-1.98363472238 -1.83574114024 0.381950441263
-1.98070964862 -1.49418449625 0.439077082601
-1.97827806373 -1.20713751235 0.487082240154
-0.482430203582 -1.93648038766 0.417900005738
-0.702442160326 -1.93531749613 0.364273158036
-0.961175088455 -1.93395224342 0.30120770157
-1.26989040112 -1.93238642691 0.225943809732
-1.64453692258 -1.93045621055 0.134613375578
-1.90536980464 -1.77467780621 0.108583142565
-1.98105568556 -1.49008895133 0.159243349087
-1.97857531661 -1.20143458821 0.230045309144
-0.47492435346 -1.93636422891 0.214215915178
-0.695657645217 -1.93518463193 0.143691334753
-0.922921377283 -1.88691167618 0.086226698448
-1.08795798153 -1.72634158932 0.0848951593922
-1.24990421686 -1.56304688059 0.085433270812
-1.41187432541 -1.40100252777 0.0855612689773
-1.57331366157 -1.23954216382 0.0856717975291
-1.73511085722 -1.0790739954 0.0853480218525
