ply
format ascii 1.0
element vertex 384
property double x
property double y
property double z
end_header
0.914919083389 -0.437999915745 1.28300444046
0.789167957182 -0.437999960597 1.25105364383
0.696376005204 -0.437999975929 1.22747709415
0.625086736679 -0.437999943183 1.20936392176
0.560882527232 -0.430000038055 1.18987063981
1.69969721732 -1.94999999158 2.08348312809
1.42816744159 -1.94999989647 2.01449287329
1.19963287528 -1.94999983027 1.95642684197
0.896018856373 -0.437999919821 1.21516287844
0.776397329337 -0.437999929879 1.19402299064
0.687399005284 -0.437999949262 1.17829493419
0.618598924891 -0.43799996819 1.16613637448
0.559999995866 -0.433957912831 1.15449206788
1.67418868184 -1.95000003633 1.83467659949
1.40899672403 -1.95000000605 1.78781103628
1.18520057403 -1.94999980751 1.74826101627
0.878264913418 -0.437999928998 1.15143581415
0.764290568774 -0.437999946273 1.13995667543
0.678830266091 -0.437999941346 1.13134937731
0.612373305827 -0.437999957107 1.12465604197
0.559215361294 -0.437999952401 1.11930213735
1.64952357891 -1.95000001552 1.5940972372
1.39040682856 -1.94999972092 1.56799972975
1.17117209063 -1.94999987285 1.54591912283
0.861556011358 -0.43799992868 1.09145994946
0.752797083661 -0.437999926094 1.08862938898
0.670642541904 -0.437999940636 1.08649123714
0.591851391086 -0.424999996413 1.0822911818
0.554773509321 -0.437999956636 1.08347563213
0.568000010339 -0.513526672589 1.09630760289
0.568000013386 -0.591716981186 1.1092357445
1.1575306363 -1.94999986518 1.34916007007
0.845802525566 -0.43799992343 1.03491354643
0.741871521628 -0.437999929002 1.03983815319
0.662810958447 -0.437999936424 1.04358431361
0.586408653101 -0.425000030199 1.04602674867
0.550487543838 -0.437999943086 1.04890658158
0.568000035167 -0.519366112827 1.05544840364
0.56800001749 -0.598550201339 1.06262233574
0.567999994801 -0.703838588127 1.072161269
0.830924783564 -0.437999911653 0.981510636188
0.731472761241 -0.437999927292 0.993399534803
0.655312803885 -0.437999951757 1.0025040056
0.581173297497 -0.425000031666 1.01114430942
0.549999967039 -0.442174693427 1.01516502516
0.568000037697 -0.525227479181 1.01443556658
0.567999987534 -0.605412698816 1.01580880621
0.567999997222 -0.712098508751 1.01763588171
0.592467864134 -0.324377577201 0.979999929071
0.584567496924 -0.351686581432 0.979999925131
0.575830145234 -0.381888727486 0.979999923074
0.566115335281 -0.415469453875 0.979999930201
0.549999969152 -0.446912325766 0.98133697473
0.559999997141 -0.519651034325 0.975423661077
0.567999971465 -0.612304745108 0.968793870849
0.568000009469 -0.720399876722 0.962837033725
0.55999999459 -0.311205516229 0.962509515487
0.559999986287 -0.339784376451 0.95890480496
0.559999981856 -0.373549337398 0.954645959463
0.559999981915 -0.414052919194 0.949537156155
0.549999972209 -0.451665858066 0.947395401589
0.560000001445 -0.525357010716 0.93549812825
0.56799995515 -0.619226506878 0.921576225644
0.568000009249 -0.728742954948 0.90776266803
0.426605944758 -1.31043389133 2.77999989792
0.258219969597 -1.21902453824 2.77999998991
0.0907795813264 -1.12812839478 2.77999990463
-0.0757231712121 -1.03774135122 2.77999998028
-0.241296159405 -0.947859068629 2.78000010901
-0.405947081755 -0.858477231146 2.78000006705
-0.569683672833 -0.769591775052 2.78000007548
-0.732513539933 -0.681198567951 2.78000012983
0.376722838298 -1.53520949338 2.78000004414
0.193265781361 -1.43484535175 2.78000000263
0.0109318152056 -1.33509563421 2.77999997857
-0.170289320719 -1.23595464159 2.7799998587
-0.350407886682 -1.13741706028 2.78000003788
-0.529433774209 -1.03947707668 2.77999998575
-0.707377092755 -0.942129533468 2.78000019452
-0.884247294733 -0.8453687707 2.78000001965
0.31688940099 -1.80482155274 2.7800000548
0.115398748187 -1.69357118372 2.78000001665
-0.0847362240595 -1.58306936308 2.78000000814
-0.283529112584 -1.47330842883 2.77999986395
-0.480993485665 -1.36428125225 2.77999997186
-0.6771426124 -1.25598034353 2.78000015717
-0.871989378127 -1.14839824173 2.78000004957
-1.06554689229 -1.04152805922 2.78000002372
0.242409685526 -1.9500003841 2.62088173461
0.0270524573271 -1.95000007277 2.72520602597
-0.201443243971 -1.88557659499 2.78000000983
-0.421579630012 -1.76266621779 2.78000003905
-0.640084139871 -1.64066680271 2.77999991588
-0.856975126772 -1.51956870704 2.78000016488
-1.07226990677 -1.3993613021 2.77999995272
-1.28598630872 -1.28003522069 2.77999978897
0.171597214554 -1.9500001973 2.35426327377
-0.032067678606 -1.95000012968 2.43520893595
-0.261211312156 -1.95000005453 2.52628100537
-0.520933880808 -1.95000006964 2.62950660046
-0.817793998288 -1.94999995942 2.74749226185
-1.0806891835 -1.8474761975 2.77999991656
-1.32122019671 -1.71131035888 2.77999993259
-1.55977441662 -1.57626353514 2.77999990783
0.109994857505 -1.95000007179 2.12232215934
-0.0830768400899 -1.95000013482 2.18499787
-0.298549034232 -1.94999996935 2.25494518703
-0.540560307833 -1.94999995103 2.33350780475
-0.814335533715 -1.94999998611 2.4223817886
-1.12656738412 -1.94999997421 2.52373968297
-1.48597109583 -1.95000021101 2.64041082805
-1.90410940448 -1.94999995387 2.77614834499
0.0559154737892 -1.95000005183 1.91870612121
-0.127537032619 -1.95000002609 1.96691075845
-0.330833825048 -1.95000003777 2.02032976923
-0.55737886304 -1.95000001989 2.0798575605
-0.811401904787 -1.95000005525 2.14660559585
-1.0982248617 -1.94999995928 2.22197219783
-1.42463908197 -1.94999990066 2.30774196101
-1.79944986113 -1.95000004007 2.40622866851
0.00806028414433 -1.95000011597 1.738525066
-0.166633424598 -1.95000002038 1.77513441172
-0.359026418881 -1.95000024227 1.81545298633
-0.571951910649 -1.95000025256 1.86007434464
-0.808882125673 -1.95000024783 1.90972620523
-1.07411878845 -1.95000006848 1.96530999641
-1.37305705323 -1.94999992522 2.02795641675
-1.71255642013 -1.95000019547 2.09910309528
1.37128733291 -1.9499999817 2.07970809647
1.14431614332 -1.94999992413 2.07718686479
0.925280784028 -1.95000008904 2.07475391411
0.71377202749 -1.950000066 2.07240445941
0.509408541949 -1.94999989763 2.07013428972
0.311834321056 -1.94999991239 2.06793964202
0.120716524973 -1.9499999396 2.0658167196
-0.0642562484733 -1.95000001494 2.06376208422
1.33712639189 -1.95000007152 1.8514438735
1.11562094067 -1.94999989906 1.85295101438
0.901696873462 -1.94999993828 1.85440666648
0.694971374577 -1.94999989486 1.85581329796
0.495087167759 -1.95000003503 1.85717346352
0.301710110533 -1.94999996308 1.85848925306
0.114527574215 -1.94999999872 1.8597629423
-0.0667533995676 -1.94999998298 1.86099645085
1.30442572571 -1.95000005065 1.63293762746
1.088131528 -1.94999989904 1.63813761211
0.879087377361 -1.94999984787 1.64316332992
0.676934702045 -1.94999978915 1.64802336365
0.481338283854 -1.95000001322 1.65272587416
0.291984165046 -1.94999990855 1.65727819524
0.108578274438 -1.94999990095 1.66168754599
-0.0691553405168 -1.94999987344 1.66596051972
1.27309374681 -1.95000007396 1.42357680999
1.06177347865 -1.94999994863 1.43216497665
0.857393151125 -1.94999988444 1.44047111419
0.659616396135 -1.94999986694 1.44850888935
0.468128235995 -1.94999982708 1.45629108644
0.282633440365 -1.94999988939 1.46382973376
0.102854949429 -1.94999990432 1.47113605525
-0.0714674736918 -1.95000000467 1.47822065903
0.568000013999 -0.734615904682 1.09761240985
1.03647839477 -1.95000013333 1.23449833613
0.836559733666 -1.95000008862 1.24582106349
0.642974363506 -1.95000006226 1.25678509662
0.455426013494 -1.94999999241 1.26740720699
0.273636633425 -1.94999994069 1.27770315075
0.0973449680795 -1.94999994813 1.28768773003
-0.0736946255043 -1.94999973457 1.29737481959
0.567999992346 -0.751163230478 1.03790439486
1.01218309644 -1.95000009629 1.04464515944
0.816536739708 -1.9499999868 1.05874380184
0.626969650956 -1.94999989234 1.07240436119
0.443202817943 -1.94999986795 1.08564694543
0.264974023294 -1.94999974983 1.09849044514
0.0920366393617 -1.94999982527 1.11095264205
-0.0758415518702 -1.94999991304 1.12305026438
0.568000055414 -0.768035236616 0.97702539886
0.988829525862 -1.95000000842 0.862151193177
0.797277864965 -1.94999985324 0.878805902558
0.611566448932 -1.94999992467 0.894952809524
0.431432094691 -1.94999986768 0.910614820372
0.256627329198 -1.94999981022 0.925813443483
0.0869190666695 -1.94999981803 0.940568940435
-0.0779123759725 -1.94999979505 0.954900418213
1.15986659843 -1.95000006383 0.666991413833
0.966364027645 -1.95000001659 0.68659666577
0.778740273867 -1.949999983 0.705606287013
0.596731446369 -1.95000002257 0.724047004778
0.420089175719 -1.9499999983 0.7419440054
0.248579578011 -1.94999985954 0.759320993648
0.0819821594872 -1.94999980733 0.776200277002
-0.0799111765474 -1.94999993914 0.792602923626
1.29761226568 0.438000067696 1.36283861687
1.34799987976 0.352795260393 1.38148884724
1.348000009 0.242302542172 1.3817179756
1.34800006201 0.135516027228 1.38193939207
1.34800004326 0.0322523402161 1.38215347845
1.34800004076 -0.0676599911578 1.38236062255
1.34799995934 -0.16438150848 1.38256112229
1.34800001997 -0.25806267689 1.38275537066
1.30910399515 0.43800001568 1.26327868998
1.34799994571 0.346082994497 1.27525777118
1.34799999245 0.235803114488 1.27729708628
1.348000036 0.129219091353 1.27926805651
1.34800010119 0.0261481993225 1.2811740674
1.348000005 -0.0735804512386 1.2830182307
1.3479999824 -0.170126804345 1.28480356619
1.3480000543 -0.263640811199 1.28653285232
1.32086554459 0.438000071674 1.16138284905
1.34799999674 0.339382882686 1.16921915328
1.34800004199 0.229315284532 1.17306218397
1.34799997967 0.122933176109 1.17677651792
1.34800008348 0.0200545622882 1.18036855384
1.34799996216 -0.0794908790939 1.18384417519
1.34799994261 -0.175862515231 1.18720899923
1.34800002612 -0.269209779337 1.19046824365
1.33290619474 0.43800005234 1.05706783256
1.34800003713 0.332694894138 1.063372476
1.34799993246 0.222838946501 1.06901274133
1.34799995521 0.116658266637 1.07446431706
1.34799999364 0.0139714037941 1.07973651265
1.34799997607 -0.0853912995478 1.08483803447
1.34799996572 -0.181588675434 1.08977704112
1.34800006299 -0.274769626663 1.09456118359
1.34523620084 0.438000066096 0.950246483453
1.3479999583 0.326018949107 0.957717229966
1.34799989719 0.216374147487 0.965148299924
1.34800002497 0.11039434661 0.972330969994
1.34799995393 0.00789871094377 0.979277512769
1.34799992972 -0.0912817392762 0.985999370139
1.34799999392 -0.187305304315 0.992507268961
1.34799998139 -0.280320341279 0.99881127108
1.00581103612 0.246620307254 0.908129632894
1.11465550513 0.219827393146 0.894560676035
1.34800005539 0.209920892689 0.861468322467
1.13239977447 0.0601381846078 0.905428192608
1.34800002759 0.00183646206071 0.878991082988
1.34799994726 -0.0971622229752 0.887327758031
1.13016667422 -0.17057065516 0.925180823267
1.34800003362 -0.285861993724 0.903218122858
1.00597639665 0.24226695742 0.838848053796
1.12620989975 0.2196286183 0.811323515241
1.34799995154 0.203479007928 0.757972382721
1.14012276142 0.0568134345892 0.824262178764
1.34800004019 -0.00421538790872 0.778876788611
1.14277658266 -0.100975295771 0.839485784047
0.581702440261 -0.115251548484 0.979999904108
0.59024027285 -0.13627810462 0.979999895752
1.00614150533 0.237919282054 0.76965709573
1.15211199156 0.225202944583 0.719999889002
1.17851898289 0.146184127141 0.719999865386
0.813276748417 -0.0105734356721 0.866331554856
1.23406834102 -0.0200392140982 0.719999876635
1.14028817951 -0.105552847705 0.76287242149
0.559999991158 -0.113943485722 0.96718057983
0.559999984293 -0.131112823668 0.969191013838
1.34800011634 -0.198850554898 1.34294342944
1.34800007607 -0.288551473977 1.36425764569
1.34799988976 -0.385697928006 1.38734098175
1.18803460716 -0.437999947131 1.34892099957
0.976008805431 -0.437999961658 1.28152498426
0.843599673612 -0.437999958626 1.23943648177
0.75305137477 -0.43799998123 1.21065416538
0.687222213553 -0.437999988679 1.18972924505
1.34800008466 -0.207458109219 1.25052830743
1.34800003538 -0.297670974991 1.26819301113
1.34799995711 -0.395386528125 1.28732682072
1.16298976213 -0.437999928069 1.25474085596
0.961424499397 -0.437999966632 1.21014819676
0.834149359788 -0.437999917521 1.18199086575
0.746484305409 -0.43799996914 1.16259656901
0.682428145312 -0.437999971098 1.14842530317
1.34800002045 -0.216096779052 1.1577790927
1.34800012961 -0.306824781339 1.17176722557
1.34800001278 -0.405113071125 1.1869209483
1.13936904095 -0.437999953607 1.16591563381
0.947486152174 -0.437999930399 1.14193318921
0.825042039205 -0.437999946587 1.12662954095
0.740118982514 -0.437999946275 1.11601545117
0.677761792294 -0.437999949292 1.10822175181
1.34800007998 -0.224766741291 1.06469398531
1.3480000763 -0.316013048041 1.07497819456
1.34800007221 -0.414877783918 1.08612106343
1.11705411831 -0.437999942296 1.08200119746
0.934152004047 -0.437999965525 1.07667447496
0.816259196715 -0.437999933961 1.07324103609
0.733946284196 -0.437999939324 1.07084380766
0.673218123025 -0.437999928034 1.06907519795
1.34800003884 -0.233468154999 0.971271134941
1.34800002029 -0.325235989275 0.977823898586
1.34799991704 -0.424680834143 0.984924851501
0.790000075929 -0.322925869775 1.01468483907
0.921383400466 -0.43799996726 1.01418390975
0.807783918943 -0.437999960095 1.02172176421
0.727957600097 -0.437999950019 1.02701861173
0.668792378701 -0.437999923047 1.03094449796
1.12385751282 -0.225621691804 0.913195039324
1.15205873538 -0.301197166593 0.91092945417
0.777801906775 -0.278323230702 0.970661457202
1.07593162121 -0.437999968997 0.92736109676
0.909145188987 -0.437999978458 0.954289031689
0.799600241636 -0.437999967419 0.971975237261
0.722144801995 -0.437999961334 0.984480540947
0.664480024299 -0.437999930987 0.993790610063
0.583213944232 -0.187426068497 0.980000081451
0.582425466737 -0.206293935674 0.980000080331
0.581577856158 -0.226576574514 0.980000081838
0.580664228139 -0.248439316165 0.980000079622
0.579676520127 -0.272074275938 0.980000082425
0.57860537368 -0.29770605595 0.980000083175
0.577439743513 -0.325598871462 0.980000082849
0.576166545295 -0.356065699484 0.980000082761
0.560000011243 -0.187086647724 0.968904544272
0.56000001149 -0.203951685953 0.968035725267
0.560000016017 -0.222235977029 0.967093790566
0.560000006322 -0.242126536541 0.966069112361
0.559999986424 -0.263844752473 0.964950284228
0.55999999113 -0.28765467937 0.963723690937
0.559999988403 -0.313873768953 0.962372989882
0.55999998915 -0.342887164551 0.960878336205
-0.612585371817 -1.9499999399 1.53549722742
-0.821566372494 -1.94999995923 1.57535258009
-1.06613916457 -1.95000006574 1.62199575992
-1.35624257777 -1.9500002102 1.67732221895
-1.70589532704 -1.94999997555 1.74400542175
-1.94999986885 -1.80843371529 1.76218109253
-1.94999989007 -1.49996525496 1.70034591464
-1.94999985724 -1.23870659111 1.64797434016
-0.60683282825 -1.95000003963 1.35104520043
-0.816652586164 -1.9499999591 1.37658306314
-1.06244703646 -1.94999998866 1.40649954167
-1.35433577699 -1.95000010883 1.44202632401
-1.706626306 -1.95000003131 1.48490478701
-1.95000002762 -1.8051382344 1.49583589811
-1.95000015638 -1.49495998194 1.45581530355
-1.9500001235 -1.23253505274 1.42195604048
-0.601013798008 -1.94999985217 1.16446545934
-0.811677498607 -1.94999975329 1.17533853984
-1.05870497287 -1.94999991719 1.18808849598
-1.35240070032 -1.94999995084 1.20324715557
-1.70736883091 -1.9499997104 1.22156828147
-1.94999995992 -1.80179598774 1.22572505767
-1.94999995246 -1.48988959158 1.20811760477
-1.9500000735 -1.22628961561 1.19323710802
-0.595127368243 -1.9499999121 0.975721053148
-0.806640228386 -1.94999981318 0.971572551502
-1.054912031 -1.94999996106 0.966703074789
-1.35043694288 -1.9499999963 0.960906802085
-1.70812408137 -1.94999983879 0.953891315096
-1.95000001312 -1.79840624468 0.951768220245
-1.94999984008 -1.48475316386 0.957191038727
-1.94999974237 -1.21996897011 0.961768951107
-0.589172156736 -1.94999977343 0.784774070405
-0.801539397233 -1.94999978869 0.765237368497
-1.05106703708 -1.94999994254 0.742282087031
-1.34844365172 -1.95000001308 0.714924952172
-1.70889180467 -1.9499998952 0.68176557559
-1.95000001551 -1.79496785101 0.673882635257
-1.94999985929 -1.47954942169 0.702972017105
-1.94999977921 -1.21357207296 0.727501703522
-0.583147096068 -1.94999975408 0.59158571704
-0.796373806666 -1.949999697 0.556284116761
-1.04716886608 -1.9499997926 0.514762710942
-1.34642000201 -1.94999982294 0.465218974516
-1.70967225497 -1.94999982251 0.40507927966
-1.94999985899 -1.79147967211 0.391983232087
-1.94999995696 -1.4742769966 0.4453952778
-1.94999985009 -1.20709736447 0.490384244709
-0.577050961749 -1.94999988786 0.396116245058
-0.791142306993 -1.94999969861 0.344662611579
-1.04321670497 -1.9499999309 0.284080211028
-1.34436564864 -1.94999982343 0.211703554675
-1.71046582484 -1.9499996828 0.123716840917
-1.94999968062 -1.78794072812 0.105982416858
-1.94999978074 -1.46893430399 0.184393965128
-1.94999978465 -1.20054333341 0.250364290836
-0.570882329982 -1.949999818 0.198325127861
-0.785843674542 -1.94999988142 0.130321339062
-1.03920909639 -1.94999990149 0.0501683010471
-1.27613603318 -1.87362348749 -2.07724242252e-07
-1.44877628499 -1.70531729251 -1.80969270014e-07
-1.6212458512 -1.53717725012 -7.37543073281e-08
-1.79354535433 -1.36920340128 -9.63132147369e-08
-1.95000001416 -1.19390872281 0.00738806200932
