ply
format ascii 1.0
element vertex 384
property double x
property double y
property double z
end_header
0.95366010658 -0.437999963106 1.28026150464
0.828156205413 -0.437999931628 1.24858999735
0.735511591374 -0.43799994835 1.22521070356
0.664315244007 -0.437999963022 1.20724397908
0.607891582334 -0.437999934427 1.19300519355
0.560000000112 -0.435334788352 1.1798611263
1.4678573581 -1.95000005596 2.0104785773
1.23938841372 -1.95000006747 1.95282337821
0.934752892601 -0.437999936072 1.21257185663
0.815359061222 -0.437999939617 1.1916674554
0.726499687314 -0.437999958504 1.1761092698
0.65778915479 -0.437999938179 1.16407888788
0.595508964802 -0.429999963769 1.15062703375
0.558469148718 -0.43799996832 1.14668917687
1.44841086884 -1.95000012432 1.78395844322
1.22469117277 -1.94999999617 1.74478781472
0.916988606219 -0.43799994251 1.14897376086
0.803224971361 -0.437999950086 1.13769420141
0.717896353469 -0.437999966024 1.12923395014
0.651526112569 -0.437999949666 1.12265339698
0.586383097613 -0.424999980892 1.1130606803
0.554982146358 -0.437999944384 1.11308114897
1.42955211559 -1.95000007656 1.56428524871
1.21040411927 -1.95000014414 1.54255693982
0.900266598938 -0.437999954003 1.08910709799
0.791703671586 -0.437999943243 1.08644680367
0.709674406542 -0.437999960692 1.08443671113
0.645510493046 -0.43799996462 1.08286439989
0.582141020544 -0.425000011128 1.07916618009
0.551608296245 -0.43799996877 1.08056336356
0.567999970687 -0.525475095722 1.09540100876
0.567999960621 -0.612127233547 1.10970116461
0.884497781253 -0.437999982668 1.03265282721
0.780749980997 -0.43799997788 1.03772385894
0.701809051995 -0.437999955115 1.04158236751
0.639727873051 -0.43799994134 1.04461679836
0.578047376044 -0.424999988491 1.04645803309
0.549999996719 -0.44029401068 1.0492096628
0.567999957949 -0.53126127333 1.05654221538
0.567999962293 -0.619114234011 1.06447342439
0.869602777001 -0.437999961173 0.979327278131
0.770322843641 -0.437999978268 0.991343309178
0.694277600376 -0.437999961989 1.0005472029
0.634165043106 -0.437999947394 1.0078227347
0.574094580283 -0.424999998759 1.01487503789
0.550000035069 -0.444792560336 1.018123356
0.567999978925 -0.537075824034 1.0174932675
0.567999963674 -0.626141080762 1.01898774985
0.623260405108 -0.320269783363 0.980000013831
0.615619998518 -0.346700779282 0.980000009318
0.607169133144 -0.375935274329 0.980000014203
0.597771727356 -0.408444360141 0.980000009819
0.570275437806 -0.424999983069 0.984360118794
0.550000014639 -0.449310346347 0.986903552189
0.561988391695 -0.53223172392 0.980000013448
0.56799999041 -0.633208172946 0.973241920275
0.56000003784 -0.290919491362 0.973555692626
0.560000013308 -0.314599730614 0.970558169562
0.560000032706 -0.342581249391 0.967016163633
0.560000044052 -0.376152993292 0.962766529097
0.560000026219 -0.417176095809 0.957573682541
0.550000013017 -0.453847602203 0.955549385677
0.560000043692 -0.534330540905 0.942743848766
0.567999988495 -0.640315736392 0.927233709401
0.468354050089 -1.31239746547 2.77999972026
0.299805356008 -1.22065561188 2.77999971725
0.132256931003 -1.12945838452 2.78000000091
-0.0343000574279 -1.03880052914 2.77999983972
-0.199874447973 -0.948677668786 2.77999994439
-0.364474837636 -0.85908487625 2.7799999091
-0.528109876686 -0.770017602725 2.77999999516
-0.690787834467 -0.681471093297 2.77999978684
0.418335480316 -1.53740574485 2.77999969156
0.234713278696 -1.43664079507 2.77999974343
0.0522789922521 -1.33652779252 2.77999987951
-0.128978882836 -1.23706037964 2.78000004088
-0.309071606089 -1.13823217328 2.77999995801
-0.48801044907 -1.0400372462 2.77999997141
-0.665806400256 -0.942469434815 2.77999990498
-0.842470432301 -0.845522814992 2.77999988697
0.358339888125 -1.80729560871 2.77999965744
0.156683831517 -1.69555416018 2.7799998725
-0.0435384604401 -1.58460707934 2.77999997004
-0.2423421549 -1.47444587233 2.77999985444
-0.439742389833 -1.36506257872 2.77999998303
-0.635753905236 -1.25644875659 2.78000006271
-0.83039121294 -1.14859625667 2.77999997807
-1.02366870583 -1.04149716496 2.77999979472
0.283471259862 -1.94999998479 2.61855485513
0.0683285910916 -1.95000033051 2.72320183276
-0.16041797636 -1.88721766758 2.77999975527
-0.380526557899 -1.7638074765 2.77999997886
-0.598911656369 -1.64136328206 2.77999991996
-0.815593502668 -1.51987406305 2.7799998578
-1.03059189406 -1.39932864367 2.77999972656
-1.24392658087 -1.27971625544 2.77999979095
0.212288023178 -1.9499999414 2.35219919427
0.00878589946664 -1.95000000411 2.43345741131
-0.22018729577 -1.95000014214 2.52488625193
-0.479732812045 -1.95000011391 2.62852246984
-0.776411631275 -1.94999999429 2.74698591044
-1.03926307296 -1.84750057683 2.77999979855
-1.27937259186 -1.71090279595 2.77999986584
-1.51739932584 -1.57548969294 2.7799997824
0.150356193676 -1.95000010049 2.12046090182
-0.0425937775712 -1.95000011863 2.18343612747
-0.257942471254 -1.95000002963 2.25372181147
-0.499830565539 -1.95000012151 2.33266955495
-0.773486150608 -1.95000010766 2.42198554608
-1.08560735275 -1.95000029812 2.52385610102
-1.44491687179 -1.95000001593 2.64112776246
-1.86299204365 -1.95000013821 2.77757964756
0.0959823024935 -1.94999985455 1.91700279856
-0.0873813896141 -1.95000024454 1.96549286774
-0.290591568352 -1.95000028339 2.01923111539
-0.517054716102 -1.95000018412 2.07911846891
-0.771004371979 -1.95000024691 2.14627460682
-1.05776782084 -1.95000014037 2.2221081636
-1.38414459077 -1.95000018871 2.30841739538
-1.75895167062 -1.95000013454 2.4075338098
0.0478623491729 -1.94999996308 1.73694616724
-0.1267690434 -1.95000006238 1.77382618792
-0.319104678655 -1.95000031926 1.81444517954
-0.53198036863 -1.95000009469 1.85940181053
-0.768872281736 -1.95000007807 1.90943044187
-1.03408753458 -1.95000013374 1.96544063653
-1.33302855758 -1.9500000795 2.02857325817
-1.67256543618 -1.9500001624 2.10027926874
1.41106909035 -1.95000014486 2.07575022532
1.18423559637 -1.95000014399 2.07360879747
0.965313437672 -1.95000021344 2.07154209775
0.753895734732 -1.95000010995 2.06954614327
0.549603197244 -1.94999998843 2.0676174436
0.352081611526 -1.95000011394 2.0657528092
0.160999793683 -1.95000017003 2.06394892913
-0.0239520994515 -1.95000006889 2.06220282717
1.37663987855 -1.95000011642 1.84767534428
1.15526241998 -1.95000000615 1.84954092686
0.941443561559 -1.95000016262 1.85134293396
0.734802480174 -1.95000008516 1.8530843426
0.534983809198 -1.94999996839 1.85476823789
0.341655183341 -1.9500000526 1.85639753232
0.154505421044 -1.9500001046 1.85797474012
-0.0267570019235 -1.94999998765 1.85950225463
1.3436794633 -1.950000079 1.62933048128
1.12750433651 -1.95000001765 1.63486966672
0.918557939627 -1.95000005692 1.64022366055
0.716483581125 -1.95000003089 1.64540154447
0.520947748402 -1.9499999753 1.65041187682
0.331638153602 -1.94999996016 1.65526268405
0.148262050652 -1.95000011246 1.65996151186
-0.0294551886242 -1.95000002252 1.66451525387
1.3120958052 -1.95000001337 1.42010599367
1.10088639101 -1.94999998422 1.42901597861
0.896596962295 -1.95000000997 1.43763405312
0.698892865209 -1.9499999426 1.44597429923
0.507460790873 -1.95000006386 1.4540500017
0.322006875448 -1.9499999601 1.46187345804
0.142255422495 -1.95000000872 1.46945638926
-0.0320525975629 -1.94999995743 1.47680966212
0.567999977903 -0.664078629957 1.08845791144
1.07533981453 -1.95000005001 1.23144755523
0.875505678877 -1.94999995036 1.24306739763
0.681987780398 -1.94999991382 1.25431997508
0.494491298629 -1.94999992454 1.26522242854
0.312739485068 -1.94999987879 1.27579083631
0.136472301159 -1.95000002984 1.28604035297
-0.0345548515594 -1.95000022087 1.29598518026
0.568000004949 -0.678609902526 1.03650407876
1.05080110329 -1.94999998593 1.04167403158
0.855233444867 -1.94999992464 1.0560563653
0.665729027366 -1.95000004307 1.06999280504
0.482010109588 -1.95000011767 1.08350376914
0.303815743294 -1.94999995554 1.09660844197
0.130900446292 -1.95000008228 1.10932489344
-0.0369669279361 -1.94999996077 1.12167010525
0.568000024239 -0.693435365364 0.983498369081
1.02721182082 -1.94999992463 0.859243045853
0.835733440606 -1.94999987112 0.876169222689
0.650080170139 -1.95000000443 0.892580463068
0.469990099502 -1.9500000701 0.908499936064
0.295216882631 -1.94999995094 0.923949425808
0.125528481687 -1.95000022877 0.938949405084
-0.0392937567489 -1.94999996481 0.953519264767
0.567999996426 -0.708563965767 0.929408532275
1.00451792631 -1.94999990388 0.683736541836
0.816962395175 -1.94999989015 0.703006507614
0.635007556009 -1.94999997029 0.721701027936
0.458406193555 -1.95000001239 0.739845523707
0.286925479816 -1.9499998636 0.757463941029
0.120345872198 -1.95000014781 0.774578735382
-0.041539763526 -1.95000012411 0.791211308151
1.33860606218 0.438000046923 1.36052093567
1.34800009349 0.333793666559 1.36414680074
1.34800003691 0.227885292331 1.36434731327
1.34800007516 0.125521444703 1.36454114899
1.34800008562 0.0265270673183 1.36472859462
1.3479999347 -0.0692615089091 1.36490991129
1.34799999092 -0.161997505458 1.36508552363
1.34799993361 -0.251824558095 1.36525558657
1.34800006299 0.43690450964 1.2603480603
1.34799993722 0.327458810989 1.26234763226
1.34799987559 0.221735650805 1.26427920921
1.34800000222 0.119548295599 1.26614623543
1.34800006018 0.0207221986266 1.26795183242
1.3480000198 -0.0749057813887 1.26969897305
1.34799993839 -0.167488390101 1.27139046308
1.34800003935 -0.257168848728 1.27302897788
1.34800006851 0.430385064835 1.15691369336
1.34799999195 0.321133472382 1.16069991606
1.34799992407 0.215595071031 1.1643574554
1.34799995943 0.113583740061 1.16789277677
1.34799993504 0.0149255255112 1.17131188259
1.34799998858 -0.0805422056924 1.17462043117
1.34799993291 -0.172971762205 1.17782367093
1.34800004746 -0.262505922114 1.18092659481
1.34800000813 0.423875441514 1.05363573008
1.34799997846 0.314817502603 1.05920323545
1.34800001289 0.209463473837 1.06458165655
1.34799994892 0.107627759471 1.06978045879
1.34799988992 0.00913705230836 1.07480849566
1.34799990298 -0.0861707955849 1.07967404884
1.34799997638 -0.1784476382 1.08438486994
1.34799995947 -0.267835791397 1.08894821558
1.34799993958 0.41737565049 0.950513833218
1.34799989889 0.308510883033 0.957857276201
1.34799997205 0.203340784434 0.964951491315
1.34799997283 0.101680335212 0.971808967267
1.34799992697 0.0033567603997 0.9784413574
1.34799994578 -0.0917915660765 0.984859559209
1.34800000936 -0.183916028536 0.991073785163
1.34800002603 -0.273158517959 0.997093610549
1.00579805511 0.224945202902 0.913415164584
1.1547159373 0.219820145481 0.891967341991
1.34799991835 0.197227022381 0.865466662537
1.14110271444 0.0535695796582 0.90791029266
1.34799998891 -0.00241537465959 0.88221016281
1.34799999836 -0.0974045352708 0.890176665757
1.1350179542 -0.167364126965 0.927333369534
1.34799999984 -0.278474069622 0.90536251644
1.00595304933 0.220937336035 0.848462310007
1.16610904798 0.21962116339 0.808642447705
1.34799996894 0.191122204316 0.766126823766
1.15215617166 0.0511435373043 0.829019581819
1.34800007776 -0.0081793703928 0.786114616143
1.14277576724 -0.100895164534 0.846607437253
0.613554058806 -0.114606281892 0.979999998689
0.621688553428 -0.134839710679 0.979999997759
1.0110701495 0.219560474671 0.781519451587
1.18489571035 0.222327057671 0.719999976528
1.21089964599 0.143892737378 0.719999966516
0.893842317537 -0.00288236520667 0.848753928056
1.26556669113 -0.0209968920279 0.719999975908
1.13947752969 -0.105201073506 0.774218911333
0.560000009042 -0.109578947148 0.978739193578
0.56092998494 -0.123185983217 0.980000004048
1.34800012305 -0.198232219822 1.32715489064
1.34800016867 -0.284228013268 1.34756095386
1.34800012626 -0.377361889968 1.3696607939
1.22628565756 -0.438000029659 1.34556934622
0.793999955925 -0.338017539497 1.18517612281
0.882592872676 -0.43799999212 1.23690996544
0.792173820421 -0.438000003973 1.20832374866
0.726421378782 -0.437999990255 1.1875359392
1.34800016142 -0.206461482919 1.23859114832
1.34800014592 -0.292960078056 1.25550222801
1.34800016785 -0.38665365856 1.27381998612
1.20125917594 -0.437999988558 1.25163161832
0.793999950005 -0.342259655214 1.14347232895
0.873105963406 -0.437999994942 1.17956332791
0.785566987128 -0.437999991893 1.16033820857
0.721587858054 -0.438000022225 1.14628725794
1.3480001931 -0.214722871428 1.14968166632
1.34800013388 -0.301727595677 1.16306975459
1.34800015495 -0.395984711046 1.17757383476
1.17764926116 -0.43799997668 1.16301074994
0.986190967334 -0.437999993208 1.13937693036
0.863961795905 -0.437999964156 1.12428882269
0.779162371088 -0.438000010284 1.11382109563
0.716882556343 -0.438000006377 1.10613320628
1.34800017721 -0.223016571356 1.06042441673
1.34800020828 -0.310530794211 1.07026125299
1.34800015281 -0.405355312151 1.08091978382
1.1553389969 -0.438000008526 1.07926774369
0.972829480039 -0.437999994211 1.07422674284
0.855142328057 -0.438000026863 1.07097617166
0.772950764207 -0.438000008792 1.06870599974
0.71230050238 -0.438000003646 1.06703081022
1.34800013608 -0.231342772833 0.97081736762
1.34800013996 -0.319369857429 0.977074410627
1.34800016737 -0.414765715707 0.983855231009
1.13422371372 -0.437999993696 1.0000106287
0.960032464609 -0.438000004051 1.0118288149
0.846630308923 -0.438000015303 1.01952270224
0.766923621439 -0.43800002741 1.02493048575
0.707836907363 -0.438000005126 1.02893928339
1.12287289073 -0.222977170247 0.917045022737
1.34800018647 -0.328245044957 0.883506912026
0.780953123332 -0.268658251905 0.974130788767
1.1142100275 -0.437999982049 0.924888380552
0.94776481668 -0.437999984356 0.952012356031
0.838410034237 -0.437999995423 0.969832853663
0.761072786926 -0.438000018382 0.982435761841
0.7034872321 -0.438000006779 0.991819925601
0.615527704227 -0.1870147581 0.980000066343
0.614743549499 -0.205211087521 0.98000006825
0.613900785842 -0.224768151226 0.980000062384
0.612992519209 -0.245844496983 0.980000064631
0.612010847423 -0.268624325828 0.980000065781
0.610946519253 -0.293322876716 0.980000059595
0.609788581566 -0.320193195229 0.980000058563
0.608524124515 -0.3495348989 0.980000062223
0.563228779691 -0.183910637186 0.980000058151
0.561309811977 -0.196912354109 0.980000061276
0.560000095403 -0.210815623588 0.979738665762
0.560000097979 -0.226211938627 0.978938466668
0.560000096081 -0.243024673284 0.978064653066
0.560000097214 -0.261458716001 0.977106573573
0.560000097876 -0.281760467644 0.976051423142
0.560000092401 -0.304228919516 0.974883664187
-0.573139817701 -1.94999980433 1.53492266767
-0.782106493876 -1.94999987549 1.57510406447
-1.026680585 -1.94999993413 1.62213226893
-1.31681070879 -1.9499998378 1.67792023322
-1.66653271329 -1.94999987911 1.74516691407
-1.94999983325 -1.83837157708 1.77733369857
-1.94999990198 -1.52418255786 1.71445555842
-1.94999994065 -1.25807478721 1.66119983702
-0.567681373551 -1.94999988961 1.35046446118
-0.777516830666 -1.95000006482 1.37632395695
-1.02334907391 -1.94999996202 1.4066195496
-1.31530994391 -1.94999967295 1.44259986769
-1.66772783699 -1.94999974805 1.48603076931
-1.95000000999 -1.83463088173 1.50596998824
-1.9500000148 -1.51878442994 1.46532285512
-1.95000009755 -1.2515525683 1.43093207464
-0.562159555015 -1.94999982044 1.16386698837
-0.772869477765 -1.94999985357 1.17505518168
-1.01997212516 -1.94999981006 1.18817573708
-1.31378729232 -1.95000002544 1.20377662976
-1.66894270709 -1.94999970717 1.22263451249
-1.95000007267 -1.83083858828 1.23086957044
-1.95000010656 -1.51331819248 1.21304741788
-1.95000018495 -1.24495440691 1.19798438712
-0.556573323808 -1.94999974857 0.975092862609
-0.768163658511 -1.94999978209 0.971250832545
-1.0165489902 -1.94999973492 0.966740685183
-1.31224130412 -1.94999980947 0.961371541717
-1.67017788128 -1.9499998208 0.954872176217
-1.95000005249 -1.82699364963 0.951954771714
-1.94999988189 -1.50778236812 0.957569418744
-1.9500001646 -1.23827895205 0.962309740182
-0.550921642133 -1.94999988954 0.78410374659
-0.763398278541 -1.94999988609 0.76486263685
-1.01307868649 -1.94999970002 0.742252505998
-1.31067214552 -1.9499998091 0.715303516506
-1.6714337251 -1.94999995867 0.682634248419
-1.94999986321 -1.82309489977 0.669145752431
-1.95000001519 -1.50217604063 0.6988274978
-1.9500001662 -1.23152490349 0.723859985745
-0.545203216686 -1.94999994692 0.590860428737
-0.758572057949 -1.9499999219 0.555841146336
-1.00956041388 -1.94999996616 0.514647527271
-1.30907905634 -1.94999976424 0.465488887883
-1.67271041192 -1.94999979597 0.405807672333
-1.95000006045 -1.81914162647 0.382360285577
-1.94999983405 -1.49649743502 0.436758756199
-1.94999980473 -1.22469067844 0.482585904825
-0.539416861052 -1.94999992247 0.395322790062
-0.753683890408 -1.95000000458 0.344135620757
-1.00599272988 -1.94999991831 0.283860525327
-1.30746160722 -1.94999981351 0.211841386874
-1.6740091181 -1.94999992612 0.12427528729
-1.94999993009 -1.81513212607 0.0915140635361
-1.94999983406 -1.49074545399 0.171298535489
-1.94999998576 -1.21777528506 0.238436814104
-0.533561436505 -1.94999999286 0.197449671748
-0.748732539454 -1.95000007171 0.129694042828
-1.0023749153 -1.950000012 0.0498241727591
-1.2394482183 -1.87350657661 -8.76236092573e-08
-1.41258928854 -1.70553285164 -3.24773292704e-08
-1.58566237902 -1.5376251567 -3.02890068582e-09
-1.75866754299 -1.36978344032 6.60093313343e-10
-1.93160505636 -1.20200775716 -1.26037531745e-07
