ply
format ascii 1.0
element vertex 384
property double x
property double y
property double z
end_header
0.942645382514 -0.438000018168 1.27492389322
0.816990765984 -0.438000017771 1.24382925426
0.724262509488 -0.438000034241 1.2208826176
0.653017849719 -0.438000051226 1.2032523372
0.588818952162 -0.429999945686 1.18421868517
0.550732476251 -0.438000008084 1.17794066173
1.46116772693 -1.94999993904 1.99799757787
1.23259256673 -1.9499999834 1.94143411804
0.923796721619 -0.438000022776 1.20747849344
0.80418335608 -0.438000000517 1.18709795198
0.715201395872 -0.438000035311 1.17193661457
0.646419888222 -0.438000031007 1.16021715461
0.584074237101 -0.42999995612 1.14707357864
0.550000069035 -0.441868780087 1.14500747761
1.44102319634 -1.9499999173 1.7720152522
1.21718621783 -1.9500000503 1.73387643538
0.906065050145 -0.438000029616 1.14402995281
0.792026366481 -0.438000021165 1.13324745681
0.706542766643 -0.438000016863 1.12516487914
0.640082429045 -0.438000028443 1.11888097746
0.574852505038 -0.42499997229 1.10961850926
0.550000039659 -0.446702399833 1.11243533822
1.42147497756 -1.94999998787 1.55272178666
1.20220076144 -1.95000010457 1.53198917494
0.889353878565 -0.438000012527 1.0842332038
0.780471303233 -0.437999975874 1.08206373034
0.698260444466 -0.438000021189 1.08042569978
0.633990338748 -0.438000038804 1.0791451313
0.570529001076 -0.424999971026 1.07577102673
0.550000056053 -0.451564330934 1.07967284863
0.568000020769 -0.544792857738 1.09516059731
0.568000008801 -0.636152455254 1.10998641001
0.873577627963 -0.437999999708 1.0277818108
0.769474733205 -0.437999983536 1.0333535012
0.690330348137 -0.437999994167 1.03758938937
0.628129603986 -0.438000030479 1.04091843906
0.567999977611 -0.426844222993 1.04315838293
0.550000054022 -0.456454736661 1.04671830708
0.568000010677 -0.551128335985 1.05405687248
0.568000015713 -0.643884041706 1.06219063307
0.858659993278 -0.437999999388 0.974402672721
0.758997023407 -0.437999980698 0.986941682084
0.682730569207 -0.43800000777 0.996537079887
0.622487319838 -0.438000030986 1.00411653209
0.566695688173 -0.429999969177 1.01102173707
0.550000058032 -0.461373901323 1.01357002696
0.568000004099 -0.557506337144 1.01267730494
0.568000033243 -0.651676092162 1.01402121694
0.596428294475 -0.312557218227 0.979999831587
0.589119852529 -0.337376576504 0.979999826965
0.581046201051 -0.364794422121 0.979999830714
0.572080602102 -0.395241428296 0.979999826912
0.562066549319 -0.429248903691 0.979999826167
0.559999999399 -0.480643323511 0.977425795408
0.559999993703 -0.549724706062 0.973418772014
0.568000040035 -0.659529271657 0.96547376275
0.560000016077 -0.297025256473 0.966524711699
0.560000018787 -0.322225410701 0.963269778797
0.559999993782 -0.351999692673 0.959424044388
0.5599999904 -0.387717845122 0.954810574964
0.560000016033 -0.431357107608 0.949173981992
0.560000029718 -0.485880990474 0.942131499976
0.560000018741 -0.555942000497 0.933082199719
0.568000000736 -0.667444221448 0.916543829989
0.466304652701 -1.32053273767 2.77999993121
0.297123931574 -1.22802758696 2.78000002917
0.129151963066 -1.1361832748 2.77999998431
-0.0376241425446 -1.04499283632 2.77999993241
-0.20321711373 -0.954449323531 2.77999989264
-0.367639504145 -0.864545880127 2.77999987781
-0.530903744619 -0.775275781968 2.78000000705
-0.693021883194 -0.68663223484 2.77999994252
0.416389837974 -1.54657331229 2.77999995665
0.232082818722 -1.44480683225 2.78000001468
0.0492114265713 -1.34383296713 2.77999997064
-0.132241013852 -1.24364250722 2.77999982152
-0.312291018383 -1.14422655756 2.77999986281
-0.490954745971 -1.04557602529 2.77999986989
-0.668248230254 -0.947682191392 2.78000001931
-0.844186995019 -0.85053621918 2.77999996198
0.356490969325 -1.81782698738 2.78000002363
0.154088000979 -1.70476014591 2.77999988991
-0.0465820711816 -1.59266156609 2.77999999943
-0.2455413495 -1.48151844494 2.77999986561
-0.442811707626 -1.37131896267 2.77999991442
-0.638414450449 -1.26205090727 2.77999981447
-0.832370719424 -1.1537026704 2.77999978098
-1.02470139378 -1.04626278126 2.78000001964
0.280589110456 -1.95000028943 2.60878855383
0.0665167636561 -1.95000001053 2.71374486608
-0.163463225801 -1.89626639773 2.77999989069
-0.383665289976 -1.77151194099 2.77999983836
-0.601794242802 -1.64793201614 2.77999980406
-0.817879272428 -1.52551016414 2.77999985476
-1.03194904255 -1.40423020108 2.78000003837
-1.24403124133 -1.28407588109 2.77999987089
0.208304980729 -1.95000018086 2.3438657806
0.00566939633063 -1.95000019021 2.42559917432
-0.222215671587 -1.95000012742 2.51751693715
-0.480383200459 -1.95000025001 2.62164930876
-0.775298634534 -1.94999998112 2.74060373282
-1.04103730794 -1.85311224859 2.77999992412
-1.27986306854 -1.7154328881 2.7799998652
-1.51620483976 -1.57918584733 2.78000004355
0.145373885778 -1.95000022802 2.11322218054
-0.0468745185968 -1.95000027623 2.17677479034
-0.261349070788 -1.95000007115 2.24767467457
-0.502140750712 -1.95000003424 2.32727444673
-0.774409974656 -1.94999995725 2.41727989641
-1.0847608943 -1.95000002875 2.51987429911
-1.44178373591 -1.95000006231 2.63789726727
-1.85686234561 -1.94999986807 2.77511191326
0.0900908226855 -1.95000014742 1.91060865666
-0.0927060613845 -1.95000014893 1.95973689885
-0.295213788081 -1.9500001206 2.01416258703
-0.520802100932 -1.94999998003 2.07479133238
-0.77365541187 -1.94999992358 2.14274781873
-1.0590344784 -1.94999977239 2.21944584087
-1.38364716273 -1.9500001405 2.30668846677
-1.75618022201 -1.94999991323 2.40680984355
0.0411414550253 -1.95000006554 1.73120824378
-0.133034281507 -1.95000010709 1.76876040622
-0.324806705972 -1.95000015278 1.81010640179
-0.536984284297 -1.95000008935 1.85585169477
-0.773006743353 -1.94999991994 1.90673788857
-1.0371331623 -1.94999991621 1.96368333007
-1.33470084384 -1.94999990173 2.02783867713
-1.67249021599 -1.95000002829 2.10066583642
1.40453746007 -1.95000027777 2.06335106869
1.17781483392 -1.95000029895 2.06215479542
0.959053695792 -1.95000022407 2.06100047475
0.747842022831 -1.95000031839 2.05988608625
0.543795551503 -1.95000030264 2.05880944069
0.346555794144 -1.95000043406 2.05776879548
0.155787729349 -1.95000029843 2.05676214306
-0.0288220098573 -1.9500003104 2.05578807006
1.36941176409 -1.95000005991 1.83592967639
1.14808864762 -1.9500001618 1.83873729968
0.934376180404 -1.9500001417 1.84144832249
0.727888522931 -1.95000019954 1.84406773147
0.528265353887 -1.95000017468 1.84660002344
0.335169995587 -1.95000028482 1.84904956961
0.148287389372 -1.95000018536 1.85142020783
-0.0326775370196 -1.95000012546 1.85371579603
1.33576359607 -1.95000020638 1.61807329612
1.11959128385 -1.95000007326 1.62455530989
0.91070154022 -1.94999993714 1.63081895031
0.708732500279 -1.94999999751 1.63687513736
0.513345773469 -1.95000023877 1.64273401248
0.324224673717 -1.95000035235 1.6484049646
0.141072617901 -1.95000021142 1.65389684292
-0.0363885770735 -1.95000012968 1.65921809782
1.30350127032 -1.95000004433 1.40919066691
1.09224815808 -1.95000018213 1.41904778321
0.887969987882 -1.94999999352 1.42857937081
0.690327172865 -1.95000011011 1.43780142475
0.499001451016 -1.95000015935 1.44672870674
0.313694743365 -1.95000011562 1.45537511908
0.134127433394 -1.95000009076 1.46375373524
-0.0399631075216 -1.95000032268 1.47187686595
0.567999989131 -0.684475794165 1.08646423304
1.06599033453 -1.95000002437 1.22169809152
0.866126194053 -1.95000007102 1.23423799498
0.672629165511 -1.9500001013 1.24637841028
0.485199775589 -1.95000020092 1.25813813826
0.303557006142 -1.95000016791 1.26953478404
0.127436971193 -1.95000019316 1.28058492948
-0.0434084146049 -1.95000010383 1.29130411724
0.568000021214 -0.699936524023 1.03223021514
1.04075464791 -1.95000006144 1.03203001765
0.845119124747 -1.95000009241 1.04734099588
0.655598528912 -1.95000023865 1.06217340637
0.471910511051 -1.95000022619 1.0765493385
0.293789946855 -1.95000021306 1.09048954629
0.120987501402 -1.95000015347 1.10401354201
-0.0467314898589 -1.9500000899 1.11713969244
0.56800004021 -0.715738288584 0.976799807223
1.01648250031 -1.95000015764 0.849603581713
0.824901659427 -1.9500002299 0.867468668777
0.639198134008 -1.95000012459 0.884785702976
0.459105628468 -1.95000009785 0.901579498905
0.284373600942 -1.95000012161 0.917873421766
0.114766216588 -1.95000016684 0.933689465388
-0.0499387471419 -1.9500003699 0.949048342798
0.568000018267 -0.731892442026 0.920132999967
0.993119685234 -1.95000017117 0.674011828414
0.805430017751 -1.95000019963 0.69423229717
0.623393710282 -1.95000016916 0.713843719096
0.446759153389 -1.95000019155 0.732873182586
0.275289410943 -1.95000016851 0.751346229769
0.108761220131 -1.95000019626 0.769286897721
-0.0530359752357 -1.95000008107 0.786717902264
1.32741826984 0.438000050056 1.35580932676
1.34800023356 0.338886877432 1.36310123538
1.34800011565 0.23168424755 1.36298245822
1.34800004604 0.128092635458 1.3628676979
1.34800017607 0.0279326190077 1.36275681011
1.34800017351 -0.068963604307 1.36264948954
1.34800013193 -0.162752975658 1.36254559599
1.34800012499 -0.253582563994 1.36244499308
1.33777736917 0.438000078285 1.25595261567
1.34800014478 0.332966711525 1.26019890933
1.34800009063 0.22589001585 1.26184253838
1.34800018067 0.122419293678 1.26343085236
1.34800013012 0.0223753289963 1.26496652888
1.34800010805 -0.0744092926968 1.26645218135
1.34800013242 -0.168091307518 1.26789022031
1.34800007327 -0.258817542199 1.2692828661
1.34800019584 0.437792659475 1.15381937414
1.34800017964 0.327049355736 1.15734448457
1.34800013932 0.220098458037 1.16074887371
1.34800010364 0.116748453045 1.16403864216
1.34800011085 0.0168204992087 1.16721948864
1.34800019478 -0.0798526101083 1.17029674085
1.34800016935 -0.173427358344 1.17327535092
1.34800012489 -0.264050333983 1.176159999
1.34800017129 0.431746980112 1.04919130634
1.34800011276 0.321134706445 1.05453787994
1.34800020447 0.214309552194 1.05970140659
1.34800016494 0.1110801918 1.06469111925
1.34800017767 0.01126813416 1.06951565527
1.34800013232 -0.0852935633461 1.07418307815
1.3480000589 -0.178761113552 1.07870094021
1.34800003085 -0.269280895912 1.08307632081
1.34800026306 0.425704225885 0.944612740658
1.34800022614 0.315222886203 0.951779073634
1.3480001714 0.208523259377 0.958700108081
1.34800018967 0.105414468729 0.965388220685
1.34800015266 0.00571821193455 0.971854983259
1.34800016191 -0.0907321506636 0.978111199838
1.34800010757 -0.184092601636 0.984166993567
1.34800004027 -0.27450927491 0.990031840881
1.00581295859 0.232943333947 0.907172453126
1.13903805967 0.219811131018 0.888040424474
1.3480000975 0.202739597663 0.857744967999
1.13503575186 0.0559941905259 0.901984743194
1.34800027325 0.000170756172714 0.87423743468
1.34800004234 -0.096168374505 0.882081086998
1.13249636518 -0.167430495071 0.920560303907
1.14686453102 -0.239893016947 0.924281289713
1.00597168536 0.229188668425 0.840663050973
1.14945389552 0.219613125901 0.805110669749
1.34800009761 0.196958601465 0.756835935187
1.14438182241 0.0534795662966 0.822680463383
1.34800012402 -0.00537427624011 0.776663045093
1.14160500079 -0.0998154968748 0.83840844645
0.589984250826 -0.113102208468 0.979999854935
0.597298279765 -0.13208441248 0.979999849675
1.00613047574 0.225433815513 0.774149792623
1.1597337411 0.219229933504 0.719999835881
1.18460214026 0.141720634532 0.71999980766
0.894238588229 0.00066139916586 0.839870205452
1.23670915048 -0.0206859521045 0.71999981299
1.13867971131 -0.104012645618 0.764560549087
0.559999978977 -0.110735298562 0.972011904625
0.559999971914 -0.125334934157 0.97368491093
1.34800016128 -0.198422294678 1.32412573504
1.34800007748 -0.285443870598 1.34447513517
1.34800005016 -0.37965010105 1.36650463732
1.21578596285 -0.438000048759 1.33903131222
0.794000108275 -0.343140923838 1.18567532891
0.871546391255 -0.437999994599 1.23197410125
0.781008255874 -0.438000021738 1.20381709162
0.715175668231 -0.438000009747 1.18334340429
1.34800010328 -0.206526101099 1.23460972996
1.34800010547 -0.29408635946 1.25145217389
1.34800002641 -0.388894470834 1.26968874376
1.19096869976 -0.438000031831 1.24541250974
0.989342845139 -0.438000013628 1.20211420266
0.862030404109 -0.438000066827 1.17477440207
0.774339703447 -0.438000037922 1.15594318766
0.710265014893 -0.437999998405 1.1421834104
1.34800002822 -0.214668799529 1.14466410648
1.34800006345 -0.302771970771 1.15796495035
1.34800008402 -0.398186909949 1.1723696421
1.16751812412 -0.438000041114 1.15694904047
0.975400777233 -0.438000034129 1.1341362606
0.852848485877 -0.438000015991 1.11958391077
0.767869461309 -0.438000031814 1.10949316538
0.705481042404 -0.438000022478 1.10208491467
1.34800004934 -0.22285067645 1.05428577254
1.34800004823 -0.311501040799 1.06401000538
1.34800000773 -0.407527741998 1.07454336222
1.14532428887 -0.438000046603 1.07322645271
0.962044153694 -0.438000045465 1.06901287685
0.843983606703 -0.43800000759 1.06629868298
0.761588830335 -0.438000017479 1.0644044437
0.70081884321 -0.438000017833 1.06300735319
1.34800002528 -0.231072008715 0.963471579504
1.34800009401 -0.32027390269 0.969583809827
1.34799999185 -0.41691739357 0.976205960902
1.12428878556 -0.438000041138 0.993873589973
0.949236819482 -0.438000029178 1.00656795135
0.835419572658 -0.438000006798 1.01482171233
0.755489614094 -0.438000009295 1.02061804754
0.696273884424 -0.43800004018 1.0249122369
1.12171934445 -0.222834028067 0.909730604924
1.34800017318 -0.329090883729 0.874682795243
0.780656832066 -0.271444365468 0.9682885608
1.1043232083 -0.438000014134 0.918557063463
0.936945647282 -0.438000024509 0.946639577133
0.82714134655 -0.438000027385 0.965062481251
0.749564088154 -0.438000025992 0.97807835015
0.691841749421 -0.438000041646 0.987762972223
0.592121501663 -0.185805481024 0.979999957592
0.591242600163 -0.202911419811 0.979999957245
0.590299692725 -0.221262797257 0.979999960926
0.589285562502 -0.241000777571 0.979999959128
0.588191793275 -0.262288678669 0.979999958408
0.587008629563 -0.285316525925 0.979999956659
0.585724621149 -0.310306710214 0.979999960129
0.584326373695 -0.337521287889 0.979999950394
0.560000065195 -0.18448564148 0.974032840252
0.560000065196 -0.198732427718 0.973258434497
0.560000064926 -0.214177134269 0.972418914057
0.560000044954 -0.230977471994 0.971505713266
0.560000056959 -0.249320137949 0.970508665442
0.560000066155 -0.269427721978 0.969415683814
0.560000052944 -0.291567809858 0.968212230356
0.560000058693 -0.316065013961 0.966880645479
-0.580016491581 -1.94999994449 1.53228071736
-0.788336825531 -1.94999992491 1.57329809863
-1.0320611335 -1.94999998529 1.62128638719
-1.32105286247 -1.95000006877 1.67818764242
-1.66921441731 -1.95000010159 1.74673917394
-1.9499998729 -1.83745336049 1.77976726557
-1.95000012751 -1.52371223107 1.71772152609
-1.9500000336 -1.25812006014 1.66519770879
-0.575658909625 -1.95000000925 1.34813184622
-0.784993656597 -1.94999991571 1.37490012337
-1.0301565903 -1.95000000583 1.40624988603
-1.32120661554 -1.95000022016 1.4434673903
-1.67235630611 -1.95000002007 1.48836997449
-1.9500000686 -1.83202997815 1.50898405632
-1.95000015467 -1.51694639583 1.46921711296
-1.95000000742 -1.25047328463 1.43558530672
-0.571248253272 -1.94999986467 1.16174405433
-0.781606632185 -1.94999993473 1.17389862481
-1.02822473572 -1.94999979353 1.18814828115
-1.321362315 -1.94999985431 1.20508585678
-1.67555233156 -1.94999996154 1.22555106203
-1.95000004376 -1.82653825682 1.23479721932
-1.95000018841 -1.51010267176 1.21785175613
-1.95000017701 -1.24274539866 1.20353448119
-0.566783689228 -1.94999981799 0.97307631926
-0.778174843995 -1.94999991321 0.970242008584
-1.02626537715 -1.94999990388 0.9669156389
-1.32152073111 -1.949999792 0.962956890697
-1.67880375843 -1.94999979009 0.958166480223
-1.95000007836 -1.82097711731 0.957142253491
-1.95000008754 -1.50317961928 0.963575765462
-1.95000020693 -1.23493493512 0.969006125744
-0.562264225919 -1.9499998809 0.78208651683
-0.774697498156 -1.95000002565 0.763877305042
-1.02427766353 -1.94999998344 0.742483981159
-1.32168170026 -1.94999977803 0.716991341602
-1.68211252373 -1.94999995185 0.686096182483
-1.94999998245 -1.81534508914 0.675952945535
-1.95000007517 -1.4961759914 0.706338307483
-1.94999995436 -1.22704049755 0.731960414684
-0.557688770122 -1.94999989111 0.588731516554
-0.771173490062 -1.94999993793 0.554750177867
-1.02226092944 -1.949999966 0.514783447078
-1.32184554508 -1.95000011411 0.46709718032
-1.68547982899 -1.95000015676 0.409215855578
-1.950000248 -1.80964118391 0.391161287508
-1.95000010346 -1.48909034136 0.446087323253
-1.94999991398 -1.21906097092 0.492356570867
-0.553056329771 -1.94999997088 0.392967083311
-0.767602063617 -1.94999997852 0.342804731194
-1.02021468298 -1.95000005836 0.283742046913
-1.32201167138 -1.9500000458 0.213179723048
-1.68890684229 -1.95000003558 0.127396970904
-1.9500001373 -1.80386344914 0.102697778344
-1.95000006614 -1.48192115436 0.18276957215
-1.95000007843 -1.21099496281 0.250152892289
-0.548365758166 -1.94999995117 0.194747954092
-0.763982149559 -1.94999996441 0.127983653241
-1.01813805678 -1.94999995902 0.0492858331852
-1.2567724793 -1.87482858811 -1.21900545436e-07
-1.43237856205 -1.70871008959 -1.48047613502e-07
-1.60835184506 -1.54224410942 -1.34850915767e-07
-1.78469344776 -1.37542956771 -7.54584397189e-08
-1.94999995043 -1.20284081759 0.00530699826965
