ply
format ascii 1.0
element vertex 384
property double x
property double y
property double z
end_header
1.01149116279 -0.437999876786 1.27862892354
0.886482099217 -0.437999923801 1.24730264412
0.794137708866 -0.437999916977 1.22416185612
0.723134600188 -0.437999907351 1.20636902605
0.666840980205 -0.437999905521 1.19226228242
0.621114922157 -0.437999929246 1.18080369769
0.578245622741 -0.429999975649 1.16688401498
0.551344070845 -0.437999953736 1.16331967526
0.99258764537 -0.437999898115 1.21116866364
0.873662196135 -0.43799993929 1.19054297749
0.785092210593 -0.43799992208 1.17518193788
0.716570907561 -0.43799991199 1.16329802085
0.661983101212 -0.437999927945 1.15383065217
0.617471028387 -0.437999944256 1.14611075692
0.575580065014 -0.429999986238 1.13629810306
0.549999966084 -0.439536387832 1.13489822399
0.974824140791 -0.437999907159 1.14777680606
0.86150519027 -0.43799991665 1.13671853983
0.776456135147 -0.43799992391 1.12841900047
0.710271358633 -0.437999915649 1.12196033444
0.657301199823 -0.437999947284 1.11679123101
0.613947153085 -0.437999955775 1.11256051359
0.569986513985 -0.42500004284 1.10513695099
0.549999985979 -0.443821200296 1.1077234272
0.958100521154 -0.437999895419 1.08809609243
0.849961061764 -0.437999917292 1.08560741797
0.768202326978 -0.437999941983 1.08372585938
0.704220350198 -0.437999942784 1.08225340401
0.652785860951 -0.437999938372 1.08106971061
0.61053746814 -0.437999971257 1.0800974285
0.568000007799 -0.42579319347 1.07710454259
0.549999980992 -0.448133165494 1.080376077
0.942328153202 -0.437999904413 1.03180991161
0.838984557109 -0.437999911342 1.03700947411
0.760305914084 -0.437999945179 1.04096806277
0.698403379697 -0.437999920485 1.04408258404
0.648428395957 -0.437999952456 1.04659699546
0.607236476412 -0.437999941804 1.04866949771
0.568000010031 -0.429910204943 1.04991400234
0.549999968363 -0.452472578024 1.05285454455
0.927428103006 -0.437999924346 0.978636648854
0.828534863221 -0.437999928444 0.990743791717
0.752744192864 -0.4379999478 1.00002257055
0.692807211695 -0.437999930695 1.00736043878
0.644220637625 -0.437999954508 1.01330871826
0.598370755939 -0.429999975741 1.01878889599
0.565687847545 -0.429999998102 1.022790147
0.550000004502 -0.456839824636 1.02515716087
0.913329869483 -0.437999913285 0.9283250231
0.818574862832 -0.437999916463 0.946646419863
0.664290533739 -0.374792387225 0.979999912687
0.654991494113 -0.407062598645 0.979999911326
0.640155014357 -0.437999960461 0.981144867483
0.591893581629 -0.425000039559 0.991200803968
0.563390843377 -0.42999997998 0.996433378659
0.549999999789 -0.461234976432 0.997282229672
0.598385671946 -0.280429688174 0.979999915189
0.590636128737 -0.296499815202 0.979999918666
0.582349383888 -0.313683967082 0.979999917715
0.573467576872 -0.332102154897 0.979999909005
0.56392417117 -0.351892208524 0.979999911097
0.560000030832 -0.382512340139 0.977147096554
0.560000020175 -0.427901052528 0.971387751052
0.560000024546 -0.488438871642 0.963706139924
0.52922620103 -1.31302165901 2.78000008056
0.360711494301 -1.22098492398 2.7800001684
0.193242805666 -1.12951947888 2.78000024271
0.0268104736801 -1.03861989491 2.78000005431
-0.138595128414 -0.948281167678 2.78000001846
-0.302983421884 -0.858497994931 2.77999987838
-0.466363871875 -0.769265389746 2.77999993332
-0.628745626725 -0.680578193659 2.77999991785
0.479017597785 -1.53799020149 2.7800000963
0.295448844077 -1.43687473389 2.78000020563
0.113122151282 -1.33644339899 2.78000026978
-0.0679749800539 -1.23668914913 2.78000007425
-0.247855030127 -1.13760548584 2.7800001152
-0.426530158034 -1.03918546377 2.78000006576
-0.60401238673 -0.941422440339 2.77999989957
-0.780313699358 -0.84430994793 2.77999979227
0.418798400951 -1.80781303816 2.78000016168
0.217222683813 -1.6956479483 2.78000013635
0.0171458396567 -1.58431694439 2.78000016558
-0.181448743065 -1.47381058366 2.78000003614
-0.378577559043 -1.36412000285 2.78000008493
-0.574256717638 -1.2552360238 2.78000008286
-0.768502100027 -1.1471497612 2.77999997821
-0.961329468377 -1.03985256508 2.77999990011
0.343585371461 -1.95000000437 2.61822558505
0.128596908168 -1.94999979124 2.72329962186
-0.0999097304838 -1.88663095992 2.78000018139
-0.319742328808 -1.76279699306 2.78000010502
-0.537775553511 -1.63997648587 2.77999990258
-0.754031591581 -1.51815736606 2.77999994356
-0.968531938114 -1.39732716076 2.77999991172
-1.1812980176 -1.27747400814 2.77999998651
0.27204718343 -1.94999999592 2.35205376993
0.0686534756074 -1.94999991931 2.43369794366
-0.16023961766 -1.9499999806 2.52557791739
-0.41974799635 -1.94999991023 2.62974707429
-0.716454350495 -1.94999997103 2.74884795513
-0.977553000733 -1.84505812274 2.78000004633
-1.21701552083 -1.70810565924 2.77999991353
-1.45430844717 -1.57239411709 2.77999984919
0.209801967077 -1.94999999021 2.12045827419
0.0169247044331 -1.94999983407 2.18378305823
-0.198380314151 -1.94999991714 2.25447138911
-0.440266318811 -1.9499998487 2.33388662258
-0.713979654028 -1.94999983332 2.42375133759
-1.02624449568 -1.94999990135 2.52627321207
-1.38582278236 -1.95000018816 2.64432901506
-1.80217679817 -1.94817960561 2.77999984789
0.155149385007 -1.95000007559 1.91711273364
-0.0281698047714 -1.95000005299 1.9659204125
-0.231364308525 -1.95000015432 2.02001983557
-0.457851591997 -1.95000008241 2.08032075126
-0.711880322725 -1.94999986738 2.1479543565
-0.998799634744 -1.9499998845 2.22434499483
-1.32543925416 -1.94999981011 2.31131089777
-1.70066104906 -1.94999995445 2.41121162529
0.106780088177 -1.95000008022 1.73714531661
-0.0678293481057 -1.9500000805 1.77431518029
-0.260171051428 -1.95000016705 1.81525981779
-0.4730905848 -1.95000006398 1.86058488147
-0.710076996955 -1.95000004873 1.91103319561
-0.975455079131 -1.94999987227 1.96752531151
-1.2746521805 -1.94999973192 2.03121664027
-1.6145732684 -1.9499999027 2.10357716668
1.46975852751 -1.95000018478 2.07345569936
1.2431513314 -1.94999998658 2.07172773239
1.02440454915 -1.95000011567 2.07005989075
0.813115941905 -1.95000009305 2.06844882838
0.608910549835 -1.95000012823 2.06689180832
0.411438034173 -1.94999996203 2.06538600828
0.220370838788 -1.95000003114 2.06392918509
0.0354022808389 -1.9499999764 2.0625187911
1.43506450456 -1.95000025156 1.84558756709
1.21390546356 -1.95000021783 1.84783235948
1.00025636012 -1.95000024734 1.85000095386
0.793740977711 -1.95000009929 1.85209705718
0.59400799133 -1.95000010605 1.85412438966
0.400728622605 -1.94999993861 1.85608613582
0.213595080911 -1.9499999733 1.8579855944
0.0323187805818 -1.95000008619 1.85982563711
1.40184906114 -1.95000021965 1.62743099007
1.18588485687 -1.95000023425 1.63331778954
0.977103052222 -1.95000017586 1.63900878422
0.775151271263 -1.95000022624 1.64451364284
0.579699697365 -1.9500001868 1.64984128613
0.390439496164 -1.95000006143 1.65500013371
0.207081071798 -1.95000008703 1.65999816232
0.0293525597627 -1.95000026672 1.6648427836
0.56799997839 -0.546790021039 1.11672376903
1.15901418997 -1.9500002576 1.42760667455
0.954884512981 -1.95000028748 1.43653449238
0.757300006268 -1.95000036201 1.44517606151
0.565950814446 -1.95000035751 1.4535449041
0.380546387823 -1.9500003141 1.46165373723
0.200813955744 -1.95000007647 1.46951445355
0.0264971091007 -1.95000021214 1.47713840353
0.567999973139 -0.557939683916 1.07726512643
0.567999957456 -0.656478238375 1.09047383221
0.933545113919 -1.95000014913 1.2420723718
0.740143965404 -1.95000015874 1.2536025115
0.552729112205 -1.95000013627 1.26477575754
0.371026861669 -1.95000014707 1.27560843561
0.194779947375 -1.95000006979 1.28611586707
0.0237463012779 -1.95000013983 1.29631251505
0.56799998174 -0.56931988883 1.03699068757
0.567999973048 -0.671988342521 1.0402640981
0.913033843082 -1.95000025782 1.05515615072
0.72364340837 -1.95000008837 1.06934816216
0.540004906852 -1.95000015521 1.08310915866
0.361860154478 -1.95000014066 1.09645847719
0.188966285825 -1.94999999146 1.10941431521
0.0210945007422 -1.94999998476 1.12199382676
0.567999971517 -0.580937798973 0.995874887295
0.567999977454 -0.687904809208 0.988738787292
0.893303296929 -1.95000023013 0.87535493451
0.707761491532 -1.95000024777 0.892001377488
0.52775061363 -1.95000017927 0.908151602326
0.353027006856 -1.95000018695 0.923827458565
0.183361096756 -1.95000005956 0.939049557263
0.0185363879748 -1.95000010746 0.95383730125
0.560000007703 -0.576995828622 0.957282304965
0.567999975731 -0.704243832572 0.935845514247
0.874309772201 -1.95000020328 0.702270073665
0.692463976828 -1.9500001754 0.721180880547
0.515940661189 -1.95000006835 0.739538196322
0.344509539505 -1.95000005711 0.757365940902
0.177953390427 -1.94999999977 0.774686726904
0.0160671628655 -1.95000007668 0.791521849127
1.34800003371 0.407647513745 1.34067341395
1.3480000101 0.30515675283 1.34089077676
1.34800003977 0.206136667804 1.34110079802
1.3480000809 0.110413875696 1.34130383025
1.34800009151 0.0178263686425 1.34150020181
1.34799999439 -0.0717774033543 1.34169020604
1.34800005268 -0.158539372112 1.34187423961
1.34799996388 -0.242592613338 1.34205247482
1.34800001451 0.401625076328 1.24383673606
1.34799996149 0.299298406839 1.24572081509
1.34799997155 0.200434857036 1.24754114581
1.34799999939 0.104861516392 1.24930090009
1.34800000442 0.0124168142063 1.25100304227
1.34800003606 -0.0770503942336 1.2526503682
1.34799994592 -0.163681675416 1.25424544573
1.34800005413 -0.247609786036 1.25579080286
1.34799992354 0.395609821608 1.1471161913
1.34799992852 0.293446973653 1.15066304269
1.34800000728 0.194739688685 1.15408993689
1.34800005274 0.0993155149303 1.15740284401
1.34800002288 0.00701333637684 1.16060735092
1.34800009102 -0.0823175703384 1.16370871793
1.34800006139 -0.168818415509 1.16671181641
1.34800008328 -0.252621588186 1.16962126631
1.34799992813 0.389601831188 1.05051159952
1.3479999123 0.287602441235 1.05571725622
1.34799997597 0.189051093582 1.06074694258
1.3480000087 0.0937758078016 1.06560942955
1.34800002931 0.00161591009691 1.07031291838
1.34800003957 -0.0875789423682 1.07486508208
1.34800003264 -0.173949571568 1.0792731073
1.34800005203 -0.257628027448 1.0835437358
1.34799991862 0.383601029874 0.954022729611
1.34799991391 0.281764797549 0.960883252367
1.34799993594 0.183369080192 0.967511992635
1.34800004324 0.0882424229412 0.973920498335
1.34800008398 -0.00377546833659 0.980119575154
1.34800006341 -0.0928345178008 0.986119322968
1.34799998288 -0.179075162207 0.991929202685
1.34800008563 -0.262629135699 0.997558077848
1.05725446838 0.219875146164 0.913990636239
1.34800004742 0.275934078626 0.866160807013
1.34800000312 0.177693673473 0.874384882172
1.34799998219 0.0827153127165 0.88233587603
1.34800000969 -0.00916082720804 0.890027164296
1.34800004279 -0.0980843069707 0.897471273599
1.14823545945 -0.163388823462 0.932576545484
1.13669192836 -0.225323867777 0.939474031961
1.06439557797 0.219717062434 0.847771584862
1.34800003154 0.270110151892 0.771549762636
1.34800000622 0.172024807539 0.781365437944
1.34800000173 0.0771945028746 0.790855367289
1.34799998544 -0.0145401579299 0.80003551004
1.14309029027 -0.101059457065 0.860121825444
1.13227807907 -0.165571319811 0.869291345394
1.12463031547 -0.226616643172 0.877319748406
1.07170645662 0.219555207541 0.779978067421
1.24106922539 0.220229133702 0.719999897328
1.13680991626 0.103141513892 0.770508306302
0.909634090731 -0.0117722953415 0.864236314496
1.32089245303 -0.0222160519011 0.719999868992
1.13911471634 -0.104994209631 0.793929577627
0.614457702185 -0.109384776958 0.979999891017
0.619039931399 -0.123302293387 0.979999891826
1.34800006356 -0.197436035953 1.30647721396
1.34800003227 -0.27787175265 1.32557076009
1.34800003043 -0.364991759055 1.34625100935
1.28312499491 -0.437999980137 1.34318041014
1.07260121826 -0.437999997002 1.2769776862
0.940919377878 -0.43799997293 1.23556812004
0.850774988822 -0.437999970747 1.20722070642
0.785191807903 -0.437999994579 1.18659698229
1.34800003988 -0.205132713083 1.22367174304
1.34800012235 -0.286050646847 1.23949622166
1.34800010187 -0.373708129313 1.25663867644
1.25812767784 -0.437999969247 1.2496162434
1.05796933988 -0.437999972307 1.20597443109
0.931394808885 -0.43799997045 1.17837656966
0.844127405042 -0.437999957392 1.15934909241
0.780318157458 -0.438000001165 1.14543635932
1.34799994717 -0.212861563826 1.14052008458
1.34800010058 -0.294265090136 1.15304738099
1.34800010729 -0.382463967108 1.16662040346
1.23454104846 -0.437999991465 1.16133191014
1.04398135882 -0.437999986961 1.13809540483
0.922213712134 -0.437999985627 1.12324727756
0.837682866351 -0.437999938659 1.11293973156
0.775573577844 -0.437999959305 1.1053662402
1.34800005556 -0.220622803917 1.05702009197
1.34800003662 -0.302515322357 1.06622182832
1.34800010428 -0.39125955397 1.07619344999
1.2122488009 -0.437999982828 1.07789272221
1.03059554703 -0.437999970483 1.07313880399
0.913357756683 -0.437999967434 1.07007065763
0.831432253183 -0.437999948035 1.06792664194
0.77095311335 -0.437999968007 1.06634388806
1.34800006366 -0.228416622804 0.973169532452
1.34800012057 -0.310801607477 0.979017097718
1.34800014938 -0.400095175935 0.985355026396
1.19114732076 -0.437999979298 0.998910493016
0.790000025018 -0.324051531527 1.01860966331
0.904810052183 -0.437999968831 1.01874478657
0.825366894098 -0.437999946957 1.02424773259
0.766451900792 -0.437999972798 1.02832871669
1.12299716937 -0.219350043983 0.925450155687
1.34800005538 -0.319124135481 0.891430702177
1.34800000713 -0.408971043482 0.894102339366
1.17114365139 -0.437999969189 0.924037405552
0.7900000192 -0.327655344759 0.983409162275
0.89655475095 -0.437999970203 0.969174691049
0.819478706008 -0.437999961632 0.981844552677
0.762065375654 -0.437999967462 0.991282231787
1.12355296477 -0.225207379759 0.862792258809
1.12831903305 -0.287765226915 0.860845960055
0.792936176265 -0.259389865564 0.94808912674
0.780878062375 -0.289671015078 0.950870007707
0.669426522431 -0.268101837662 0.979999895009
0.668353644628 -0.292563866373 0.979999895207
0.667186424421 -0.319176986279 0.979999894877
0.665911870675 -0.348238009304 0.979999887101
0.621372130109 -0.184178035773 0.979999886584
0.619463917662 -0.197073624669 0.979999881927
0.61745400595 -0.210656381102 0.979999882786
0.615334065283 -0.224982738009 0.979999881746
0.613094795228 -0.240115473638 0.97999988263
0.610725831732 -0.256124641569 0.979999884686
0.608215584563 -0.273088661437 0.979999882992
0.605551005066 -0.291095570361 0.979999885099
-0.51471887899 -1.94999986806 1.53611135106
-0.723779526245 -1.95000006754 1.57663821974
-0.968511299719 -1.95000008328 1.62407997157
-1.25889557627 -1.95000021614 1.68037157675
-1.60901980647 -1.94999986097 1.74824379504
-1.95000001727 -1.88184087802 1.80071353079
-1.95000037607 -1.55928699504 1.73621148236
-1.95000046189 -1.28605767306 1.68157296916
-0.509513009874 -1.95000016354 1.35159708899
-0.71946319143 -1.95000015817 1.37778179101
-0.96547848055 -1.95000009522 1.40846447707
-1.25772499114 -1.95000008932 1.44491306589
-1.61058581678 -1.95000012779 1.48892139581
-1.95000022703 -1.8776977241 1.52195738396
-1.95000030107 -1.55351664582 1.48028013099
-1.95000015038 -1.27918881477 1.44501206692
-0.504246578642 -1.95000013052 1.16494158076
-0.715092602684 -1.94999993605 1.17643406167
-0.96240415966 -1.94999979504 1.18991415641
-1.25653700758 -1.95000000955 1.20594633865
-1.61217713313 -1.94999996352 1.22533105651
-1.95000019138 -1.87349874374 1.23945781265
-1.95000031887 -1.54767536012 1.22120000232
-1.95000033273 -1.27224222808 1.20576585055
-0.49891864999 -1.95000003526 0.976107435424
-0.710667102602 -1.95000004064 0.972548010845
-0.959287945476 -1.94999982705 0.968368776915
-1.25533138233 -1.95000014818 0.963392374759
-1.61379515312 -1.95000007361 0.957366713518
-1.9500003367 -1.86924313257 0.953138984098
-1.9500002847 -1.54176173043 0.958912597495
-1.95000039629 -1.26521627395 0.96378818947
-0.493528185223 -1.94999997483 0.785056292587
-0.706185353863 -1.94999996505 0.766075292804
-0.956128651781 -1.94999974806 0.743766288722
-1.25410727444 -1.95000000526 0.717169783488
-1.61544002462 -1.94999997809 0.684918546958
-1.95000039568 -1.86492952876 0.662922892001
-1.95000039897 -1.53577452797 0.693357978235
-1.95000059388 -1.25810971017 0.719032043674
-0.488074096171 -1.94999999494 0.59174885637
-0.701646443289 -1.94999999514 0.556966356879
-0.952925698211 -1.95000000643 0.516042889623
-1.25286465554 -1.95000002607 0.467194677444
-1.61711275202 -1.94999997426 0.407873058682
-1.95000018682 -1.8605566054 0.368729505605
-1.95000015553 -1.52971205994 0.424474795842
-1.95000021387 -1.25092079501 0.471449411648
-0.482555245184 -1.95000008995 0.396144895424
-0.697049267037 -1.95000013072 0.345170353492
-0.949677722773 -1.94999997647 0.285133206365
-1.25160289178 -1.9499999765 0.213380651069
-1.61881413141 -1.95000014322 0.126112811719
-1.95000036283 -1.85612363037 0.0704763279755
-1.95000042563 -1.52357343466 0.152199863913
-1.95000029646 -1.24364860199 0.220990866909
-0.476970395781 -1.95000008977 0.198203295083
-0.69239247888 -1.94999998785 0.130635309391
-0.946383956308 -1.9499999106 0.0509698671866
-1.18569399163 -1.87570498085 -9.20874982935e-08
-1.35943679421 -1.70764376649 -2.9343767638e-07
-1.53319436059 -1.5395672941 -1.77998102036e-07
-1.70696755683 -1.37147633393 -2.67173700275e-07
-1.88075559785 -1.20337035908 -1.43864350877e-07
