ply
format ascii 1.0
element vertex 384
property double x
property double y
property double z
end_header
0.941774602892 -0.437999952654 1.28195741769
0.81607231346 -0.437999917484 1.25014810197
0.723304678386 -0.437999926564 1.22667300652
0.652027315092 -0.437999936627 1.20863608241
0.587825818664 -0.429999969731 1.18921050761
0.549999958596 -0.438396286883 1.18297529692
1.45557841178 -1.95000002266 2.0128507745
1.22703351176 -1.95000017239 1.9550169336
0.922835233381 -0.437999942369 1.21416207618
0.803263245026 -0.437999909651 1.19314856318
0.714291410368 -0.437999939445 1.17751272097
0.645505651844 -0.437999935631 1.1654243558
0.583170723963 -0.42999997018 1.15192026561
0.549999911129 -0.44311059701 1.15026888103
1.43621413168 -1.94999999779 1.78621993762
1.2124205212 -1.9499999336 1.74689057527
0.905043487134 -0.437999912005 1.15047492059
0.791119462721 -0.4379999189 1.13910938159
0.705687686612 -0.437999928163 1.13058634989
0.639247401702 -0.437999932376 1.12395798816
0.574050812148 -0.425000040636 1.11431670009
0.549999909718 -0.447844097446 1.11742977609
1.41743637825 -1.94999992792 1.5664538544
1.19821623441 -1.94999995738 1.54458353633
0.888298257505 -0.43799992616 1.09053354491
0.779590439268 -0.437999939273 1.08780575801
0.697466274407 -0.437999938057 1.08574502838
0.633236946725 -0.437999949525 1.08413333334
0.569816026331 -0.425000040592 1.08039340032
0.549999909108 -0.452596846826 1.08445713759
0.567999967666 -0.54635024299 1.10040362434
0.567999971515 -0.638444473753 1.11562422477
0.872509748358 -0.437999933642 1.0340168985
0.768630562002 -0.437999920053 1.03903509501
0.68960220221 -0.437999935906 1.04285279997
0.627459799802 -0.437999935161 1.04585477628
0.567999985295 -0.427547742665 1.04778094635
0.54999991736 -0.457368974 1.0513501496
0.567999956942 -0.552470290727 1.05908993275
0.567999990171 -0.645822995028 1.06754096222
0.857598262112 -0.437999943352 0.980639628956
0.758198810715 -0.437999931322 0.992614335208
0.682072695551 -0.437999943249 1.00178529028
0.621902684275 -0.43799993681 1.00903400445
0.566155049932 -0.43000002814 1.01561359476
0.567999984297 -0.487506596385 1.01637152927
0.567999953697 -0.558618883274 1.01758363609
0.567999961189 -0.653241498452 1.01919646996
0.616264751735 -0.322881719889 0.980000056632
0.60847529562 -0.349890293053 0.980000049264
0.599858832115 -0.379766013315 0.980000060768
0.590276467003 -0.412991159283 0.980000053071
0.562261464602 -0.429999987851 0.984423811038
0.567481907601 -0.492026959693 0.980000050125
0.560000005423 -0.550583412953 0.978199449062
0.567999952486 -0.660700458222 0.970588625099
0.560000013988 -0.297271313818 0.970639733085
0.560000000713 -0.322504124191 0.967453748214
0.559999992111 -0.352317804822 0.963689364432
0.559999988967 -0.388084340827 0.959173349599
0.559999953041 -0.431784319556 0.95365563739
0.560000023375 -0.486386810695 0.946761305723
0.56000000964 -0.556552963173 0.937901870339
0.567999965044 -0.668200209855 0.921715255161
0.454988706934 -1.31094766639 2.78000007983
0.286554657487 -1.21938705873 2.78000014039
0.119097765107 -1.12835755866 2.7800000791
-0.0473904180866 -1.03785459075 2.77999992355
-0.212918344902 -0.947873780183 2.78000003428
-0.377494219973 -0.858410408455 2.77999998793
-0.541126301483 -0.769460135309 2.78000002838
-0.703822593447 -0.681018483141 2.77999994821
0.405057654473 -1.53576842895 2.78000025929
0.221558221687 -1.43521879513 2.77999998946
0.0392192855322 -1.33530527705 2.78000000434
-0.141970152626 -1.2360216319 2.78000001892
-0.322020864076 -1.13736181343 2.77999984314
-0.500943676072 -1.0393202082 2.77999989836
-0.67874906292 -0.941890848986 2.77999988411
-0.855447371937 -0.845067989389 2.77999969941
0.345169038133 -1.80542393981 2.78000012525
0.143645044585 -1.69394280563 2.77999985912
-0.0564782915784 -1.58323684306 2.77999995989
-0.255215503275 -1.47329755059 2.77999993353
-0.452580997372 -1.36411718371 2.78000002082
-0.64858879464 -1.25568768275 2.77999989725
-0.843253051962 -1.14800160729 2.77999998087
-1.03658735317 -1.04105112731 2.77999993427
0.270498552546 -1.95000006209 2.62035186377
0.0552453159833 -1.95000005636 2.72488589509
-0.17321062329 -1.88566487151 2.77999989889
-0.393257088205 -1.76252748972 2.77999995435
-0.611618938615 -1.64033249879 2.77999973629
-0.828315705779 -1.51906963365 2.77999982148
-1.04336614392 -1.39872788986 2.77999976762
-1.25678923968 -1.27929709729 2.77999996937
0.19944594231 -1.95000026852 2.35383139038
-0.00414062477037 -1.95000008277 2.43497502435
-0.233201712299 -1.95000016829 2.52627226175
-0.492837801853 -1.95000025093 2.62975581569
-0.789608353063 -1.95000028546 2.74804006681
-1.05185566093 -1.84665767187 2.77999986025
-1.29205424211 -1.71031484687 2.77999978527
-1.53021550443 -1.57512883999 2.77999998064
0.137632928568 -1.95000019921 2.12196871337
-0.0553805961741 -1.95000022229 2.18483139866
-0.270793079614 -1.95000024916 2.25498921426
-0.512743706428 -1.95000017574 2.33379019465
-0.786458693048 -1.9500003556 2.42293666814
-1.09863233406 -1.95000014999 2.52460854297
-1.45798298691 -1.95000005879 2.64164558708
-1.87607908051 -1.9499999641 2.77781546146
0.0833672679086 -1.95000028053 1.91841652805
-0.100043082682 -1.95000032341 1.9667977514
-0.303297901017 -1.95000021871 2.0204136149
-0.529802072002 -1.95000009631 2.08016233965
-0.783786770503 -1.9500001544 2.14716014147
-1.07057591598 -1.95000012711 2.22281128083
-1.3969639137 -1.95000019388 2.30890811119
-1.77176012038 -1.95000001954 2.40777427395
0.0353462231991 -1.95000018419 1.73828795167
-0.139318149835 -1.95000021795 1.77506416086
-0.331683179762 -1.95000019725 1.81556728681
-0.544583130168 -1.95000003131 1.86039406241
-0.781491798515 -1.95000021124 1.91027607707
-1.04671272398 -1.95000016898 1.96611926044
-1.34564403702 -1.95000032497 2.02906035266
-1.68514871123 -1.95000042734 2.1005442902
1.39875850683 -1.94999990626 2.07811251419
1.17182533724 -1.95000021104 2.07581559766
0.952819308901 -1.95000018288 2.07359872827
0.741332357684 -1.95000007188 2.07145792122
0.536983850684 -1.95000009942 2.06938945267
0.339418317069 -1.95000013401 2.06738964778
0.148303552445 -1.95000008838 2.06545509299
-0.0366712641946 -1.94999987043 2.06358258838
1.36440539248 -1.94999988861 1.84991428792
1.14293754384 -1.9499999716 1.85163610552
0.92904298398 -1.95000005761 1.85329904677
0.722339773136 -1.95000012533 1.85490607113
0.522471229155 -1.95000008011 1.85645990762
0.329103921755 -1.95000016987 1.85796326359
0.141925711693 -1.95000003498 1.85941839875
-0.0393558468193 -1.94999996884 1.86082772292
1.33152010192 -1.94999985309 1.63146647544
1.11526321751 -1.9500001002 1.63687236942
0.906248599642 -1.95000007883 1.6420971333
0.704118607767 -1.95000018962 1.64714984737
0.508538509342 -1.95000003158 1.65203873858
0.319195102873 -1.95000011087 1.65677181334
0.135794725441 -1.94999994777 1.66135624437
-0.0419381207924 -1.95000001585 1.66579908419
1.30001058203 -1.94999989436 1.42215725368
1.0887271759 -1.94999993376 1.43094312681
0.884376495155 -1.95000006126 1.43944073543
0.686622742988 -1.9500000188 1.44766398108
0.495151627431 -1.95000006715 1.45562599571
0.309668402716 -1.95000010517 1.46333901153
0.129896519515 -1.94999999118 1.47081449433
-0.0444238210544 -1.94999999639 1.47806331258
0.56799994917 -0.686288258674 1.0919954225
1.06326086162 -1.95000006499 1.2333143965
0.863371809739 -1.95000001655 1.24482150586
0.669809821833 -1.95000009643 1.25596439911
0.482279117162 -1.95000013477 1.26676008081
0.30050213517 -1.95000020718 1.27722453956
0.124218095631 -1.95000001336 1.2873727475
-0.0468182871107 -1.95000002964 1.29721888911
0.567999991803 -0.701457230619 1.0375912074
1.03880071623 -1.95000012886 1.04349414163
0.843183937944 -1.94999992027 1.05777062924
0.653640574115 -1.95000019155 1.07160388267
0.46989188691 -1.95000019328 1.08501422061
0.291676223637 -1.95000025703 1.09802074966
0.118747386975 -1.95000008968 1.11064142832
-0.0491264366059 -1.95000003291 1.12289318584
0.56799994308 -0.716929362021 0.982099084461
1.01528828782 -1.95000018349 0.861028561865
0.823766232558 -1.95000006912 0.877855037482
0.638078683647 -1.95000006813 0.894168905951
0.457962988195 -1.95000008934 0.909993249097
0.283172057956 -1.95000017571 0.925349772392
0.113473216487 -1.95000005758 0.94025893587
-0.0513528636728 -1.95000005797 0.954739987465
0.567999960339 -0.732714137473 0.925486081733
0.992669463475 -1.95000002751 0.685498382841
0.805075330709 -1.95000006626 0.70467409775
0.623090628779 -1.95000008525 0.723276424345
0.446467460361 -1.94999997635 0.741330719956
0.274972359801 -1.95000010634 0.758860790023
0.108385163073 -1.95000009789 0.775889200469
-0.0535018312323 -1.95000009311 0.792437159416
1.32510021109 0.43799997653 1.36167701342
1.34800013341 0.340090835163 1.37024997624
1.34800010019 0.232713488903 1.37047024081
1.34800002721 0.128934983653 1.37068310808
1.34800016604 0.0285774189331 1.37088903499
1.34800008525 -0.0685256872579 1.37108820532
1.34800004689 -0.16253007081 1.37128103436
1.34800008359 -0.253581747756 1.37146783359
1.33649515055 0.438000011344 1.26207800885
1.3480001423 0.333617574438 1.26703350089
1.34800009377 0.226435526972 1.26901137131
1.34800016145 0.122843016021 1.27092303284
1.34800016178 0.0226626338316 1.27277171094
1.34800010872 -0.0742714515294 1.27456046946
1.34800007363 -0.168114506054 1.2762921924
1.34800007815 -0.259012068114 1.27796957115
1.34800012701 0.437911331955 1.16012196715
1.34800016787 0.327154746639 1.1639832625
1.34800010947 0.220167511481 1.16771313163
1.34800008628 0.116760483089 1.17131819027
1.34800011939 0.0167569001436 1.17480460421
1.34800002667 -0.0800085629596 1.17817810785
1.34800010554 -0.173690664456 1.18144414438
1.34799994007 -0.264434441347 1.18460770324
1.3480000184 0.43125457199 1.05542978341
1.34800010033 0.320702277934 1.06109885038
1.34800015013 0.213909419338 1.06657513364
1.34800015393 0.110687443186 1.07186830127
1.34800010061 0.0108602046467 1.07698738524
1.34800008247 -0.0857370371942 1.08194083878
1.34800002239 -0.179258553518 1.08673656831
1.34800004474 -0.269848952932 1.09138199657
1.34799986744 0.424608682277 0.950908929989
1.34799994241 0.314260146329 0.958379894848
1.34800004638 0.207661172339 0.965597000442
1.34800007545 0.104623810686 0.972572976151
1.34800004868 0.00497252024477 0.979319705864
1.34799997713 -0.0914568968274 0.985848305845
1.34800001017 -0.184818207621 0.992169180094
1.34799995884 -0.275255540534 0.998292094876
1.00580064447 0.231970873982 0.912283340424
1.14163951959 0.219823912186 0.893427583848
1.34800008797 0.201422840713 0.864778349732
1.13855127654 0.0558408990424 0.907676137616
1.34800002545 -0.000906167017728 0.881801224189
1.34800007502 -0.0971681598297 0.8899001789
1.133795101 -0.168273495907 0.927227893589
1.34800005815 -0.280654292926 0.905337709406
1.00595894556 0.227841407484 0.845954153515
1.1531110597 0.219625055829 0.810160909994
1.3480001055 0.195194346257 0.764118804634
1.14742245107 0.0528947739075 0.828345127665
1.34799997406 -0.00677588350402 0.784431604373
1.14265164361 -0.100789072338 0.844988825472
0.605860619391 -0.114984777007 0.97999983623
0.614242797837 -0.135725409959 0.979999835714
1.00611709525 0.223716513931 0.779698210296
1.17591361017 0.22395552644 0.719999841729
1.20213781444 0.145200559337 0.719999870958
0.894186851519 -0.000263153079548 0.845242920147
1.2572867125 -0.0204186263245 0.719999850784
1.13958562595 -0.105190544171 0.771282633384
0.560000008237 -0.110882199135 0.975628377319
0.560000018763 -0.125486782342 0.977337385507
1.34799997792 -0.198208100505 1.33281649109
1.34799995355 -0.285378296929 1.35352067294
1.34799997505 -0.379782364493 1.37594301893
1.21477812252 -0.437999945742 1.34756202514
0.794000051818 -0.343463963598 1.19179375431
0.87049328739 -0.437999964557 1.23848268759
0.779962574693 -0.437999960995 1.20979995208
0.714140507669 -0.437999954097 1.18894562569
1.34799994445 -0.206569848971 1.24302747117
1.34800002523 -0.294245456093 1.26018823111
1.3480000579 -0.389211794544 1.27877599492
1.18968702593 -0.437999927366 1.25345709336
0.988230484976 -0.437999973906 1.20908661105
0.861001868062 -0.437999960052 1.18106470233
0.77335876968 -0.43799997361 1.16176144818
0.709313553311 -0.437999979644 1.14765558955
1.34799994889 -0.214963318925 1.15289784793
1.34800006381 -0.303147594888 1.16648755209
1.34800002639 -0.398679949543 1.18120961736
1.16602100576 -0.437999940975 1.16469664291
0.974248065723 -0.437999981733 1.14090942116
0.851854521213 -0.437999982948 1.12572790954
0.766957656809 -0.437999982798 1.11519742971
0.704615038059 -0.437999969816 1.10746454273
1.34799995299 -0.223388690088 1.06242566722
1.3479999658 -0.312084904194 1.07241645777
1.34800000821 -0.408187097772 1.08324146274
1.14366191634 -0.437999951214 1.08083792015
0.960870960176 -0.43799997797 1.07568380453
0.843032788948 -0.437999981326 1.07236114647
0.760750031487 -0.437999978155 1.07004103628
0.700039962261 -0.43799998104 1.06832920739
1.34799991845 -0.231846142177 0.971608974886
1.34799993205 -0.321057621384 0.977972777607
1.34799995462 -0.417733468117 0.984869042246
0.808915546585 -0.319999998196 1.01416627499
0.948060673193 -0.437999952834 1.01322215827
0.834519616806 -0.437999973834 1.02086106394
0.754727253097 -0.437999961479 1.02622939624
0.695583461864 -0.43799995348 1.03020851801
1.1232478335 -0.223682656907 0.916440688968
1.34799997952 -0.330065961925 0.883154271378
0.779456004908 -0.271479820598 0.973711900818
1.10245410623 -0.437999945853 0.926286507076
0.935782063115 -0.43799997749 0.953352434642
0.826299135437 -0.437999987404 0.97113140273
0.748881238974 -0.437999975034 0.983703319427
0.691241060277 -0.437999959576 0.993063526091
0.607547029951 -0.187243738022 0.980000044957
0.606764051453 -0.205873101705 0.980000038066
0.605922351266 -0.225898899358 0.980000038525
0.605015096424 -0.247484258251 0.98000004032
0.604034324348 -0.270818743347 0.980000042174
0.602970741167 -0.296123950745 0.98000003895
0.60181334842 -0.323660515699 0.980000041906
0.600549172921 -0.353737181912 0.980000050135
0.559999979336 -0.184631363455 0.977836086735
0.559999978181 -0.198893907304 0.977099503686
0.55999997495 -0.214357236115 0.9763009073
0.559999982106 -0.231179662395 0.97543211721
0.559999975575 -0.249548592204 0.974483463366
0.55999997056 -0.269687564411 0.973443395847
0.55999997672 -0.291865381867 0.972298029041
0.559999982428 -0.316408159377 0.971030524964
-0.585525415687 -1.94999993178 1.53585259998
-0.794494123141 -1.94999995263 1.57590777427
-1.03905956989 -1.95000002365 1.62278614982
-1.32916398845 -1.94999995148 1.67839341731
-1.67883262047 -1.94999993316 1.74541797778
-1.95000000356 -1.82904266391 1.77315566643
-1.94999983259 -1.51664321948 1.71055104013
-1.95000034994 -1.2520595155 1.6575287811
-0.579946045587 -1.95000009146 1.35138833761
-0.789768544766 -1.95000002415 1.37712381363
-1.03557367275 -1.95000011731 1.40727270928
-1.32748535752 -1.95000011879 1.44307672825
-1.67981875861 -1.95000006312 1.48629168081
-1.94999982686 -1.82550001224 1.50337548004
-1.95000007709 -1.51141876769 1.46287322148
-1.94999974616 -1.24569086472 1.42860628792
-0.574302143895 -1.95000003686 1.16479374481
-0.784983936435 -1.94999988615 1.17586174282
-1.03204029169 -1.94999982143 1.18884065546
-1.32578168834 -1.95000010788 1.20427215077
-1.68082104388 -1.95000020037 1.22292387644
-1.94999993005 -1.82190830411 1.22984323333
-1.95000019481 -1.50612767092 1.21203971142
-1.94999999868 -1.23924778354 1.19699316205
-0.568592618085 -1.94999983076 0.976031770869
-0.780139331611 -1.94999978639 0.972074997555
-1.02845895575 -1.94999983396 0.967430421368
-1.32405232512 -1.9499998051 0.961901637404
-1.68183950413 -1.94999999797 0.955209575297
-1.94999984821 -1.81826615058 0.952480009471
-1.9499996031 -1.50076829288 0.957989875691
-1.9499998513 -1.23272832176 0.962641439926
-0.562816480611 -1.949999833 0.785064433048
-0.775233693676 -1.94999990269 0.765715733548
-1.02482853478 -1.94999996109 0.742980593361
-1.32229742162 -1.95000004623 0.715884691973
-1.6828752028 -1.95000006344 0.683040323795
-1.949999773 -1.8145726333 0.671204799417
-1.94999973788 -1.49534020145 0.700661492198
-1.9499998284 -1.2261313789 0.725502320684
-0.556972535844 -1.95000000341 0.59185279754
-0.770265619081 -1.94999981329 0.556734964574
-1.02114794888 -1.95000011757 0.515428127142
-1.32051558706 -1.94999991323 0.466138460553
-1.68392812768 -1.9499999871 0.406304006503
-1.9499999565 -1.81082684797 0.385934175665
-1.9499998359 -1.48984158005 0.439990628198
-1.94999992837 -1.21945556133 0.485525735854
-0.551059489824 -1.95000013955 0.396357084283
-0.765234175935 -1.94999998713 0.345082311272
-1.01741602648 -1.95000012666 0.284708304563
-1.31870669894 -1.94999996605 0.212577400794
-1.68499893112 -1.94999996606 0.124884662102
-1.94999995074 -1.80702733014 0.0965824891018
-1.94999988852 -1.48427104099 0.175911750892
-1.94999963706 -1.21269919569 0.242660595519
-0.545076051908 -1.9500001064 0.19853662408
-0.76013788731 -1.94999997585 0.130706335177
-1.01363177198 -1.9500001041 0.0507545246391
-1.25178752764 -1.87491861144 -7.55077622649e-08
-1.42483865759 -1.70669016382 -1.1916838849e-08
-1.59777629611 -1.53857265205 -1.45386651162e-07
-1.77059983697 -1.37056537677 -5.78170911147e-08
-1.94331017048 -1.20266876288 -1.67858629663e-07
